<svg width="320" height="121" viewBox="0 0 320 121" fill="none" xmlns="http://www.w3.org/2000/svg">
<path fill-rule="evenodd" clip-rule="evenodd" d="M0 16C0 7.16345 7.16344 0 16 0H304C312.837 0 320 7.16344 320 16V58.9053C320 67.7418 312.837 74.9053 304 74.9053H218.983C210.146 74.9053 202.983 82.0687 202.983 90.9053V105C202.983 113.837 195.819 121 186.983 121H138C129.163 121 122 113.837 122 105V91C122 82.1634 114.837 75 106 75H16C7.16344 75 0 67.8366 0 59V16Z" fill="black"/>
<path fill-rule="evenodd" clip-rule="evenodd" d="M182.354 95L169.354 82L168.646 82.7071L180.793 94.8536H154.5C150.358 94.8536 147 91.4957 147 87.3536V82.3536H146V87.3536C146 92.048 149.806 95.8536 154.5 95.8536H181.367L169.664 106.483L170.336 107.224L182.836 95.8701L182.821 95.8536H183.207L182.354 95Z" fill="white"/>
<path d="M23.4673 24.952C23.9473 24.952 24.4673 24.968 25.0273 25C25.6033 25.032 26.1713 25.104 26.7313 25.216C27.3073 25.312 27.8593 25.464 28.3873 25.672C28.9153 25.88 29.3793 26.152 29.7793 26.488C30.1953 26.808 30.5233 27.208 30.7633 27.688C31.0193 28.168 31.1473 28.736 31.1473 29.392C31.1473 30.416 30.8993 31.232 30.4033 31.84C29.9233 32.432 29.2993 32.896 28.5313 33.232C27.7633 33.552 26.9073 33.76 25.9633 33.856C25.0193 33.952 24.0913 34 23.1793 34H19.4353L18.5473 32.608H22.8913C23.7553 32.608 24.5633 32.584 25.3153 32.536C26.0673 32.488 26.7233 32.36 27.2833 32.152C27.8593 31.928 28.3073 31.608 28.6273 31.192C28.9473 30.76 29.1073 30.168 29.1073 29.416C29.1073 28.68 28.9473 28.08 28.6273 27.616C28.3073 27.152 27.8593 26.792 27.2833 26.536C26.7233 26.264 26.0673 26.08 25.3153 25.984C24.5633 25.872 23.7553 25.816 22.8913 25.816H22.2673V24.328H22.5073C23.2273 24.328 23.9233 24.304 24.5953 24.256C25.2673 24.192 25.8593 24.064 26.3713 23.872C26.8993 23.664 27.3233 23.368 27.6433 22.984C27.9633 22.6 28.1233 22.08 28.1233 21.424C28.1233 20.736 27.9633 20.208 27.6433 19.84C27.3233 19.456 26.8753 19.168 26.2993 18.976C25.7393 18.784 25.0833 18.672 24.3313 18.64C23.5793 18.608 22.7713 18.592 21.9073 18.592H18.5473L19.4353 17.464V34H17.5633V17.2H22.1953C23.1073 17.2 24.0353 17.24 24.9793 17.32C25.9233 17.4 26.7793 17.592 27.5473 17.896C28.3153 18.184 28.9393 18.608 29.4193 19.168C29.9153 19.728 30.1633 20.488 30.1633 21.448C30.1633 22.36 29.9473 23.056 29.5153 23.536C29.0833 24 28.5393 24.336 27.8833 24.544C27.2273 24.752 26.5073 24.872 25.7233 24.904C24.9393 24.936 24.1873 24.952 23.4673 24.952ZM33.2117 28C33.2117 27.056 33.3477 26.208 33.6197 25.456C33.8917 24.688 34.2837 24.032 34.7957 23.488C35.3077 22.928 35.9317 22.504 36.6677 22.216C37.4197 21.912 38.2597 21.76 39.1877 21.76C40.1157 21.76 40.9477 21.912 41.6837 22.216C42.4197 22.504 43.0357 22.928 43.5317 23.488C44.0437 24.032 44.4357 24.688 44.7077 25.456C44.9797 26.208 45.1157 27.056 45.1157 28C45.1157 28.928 44.9797 29.776 44.7077 30.544C44.4357 31.312 44.0437 31.976 43.5317 32.536C43.0357 33.08 42.4197 33.504 41.6837 33.808C40.9477 34.096 40.1157 34.24 39.1877 34.24C38.2597 34.24 37.4197 34.096 36.6677 33.808C35.9317 33.504 35.3077 33.08 34.7957 32.536C34.2837 31.976 33.8917 31.312 33.6197 30.544C33.3477 29.776 33.2117 28.928 33.2117 28ZM35.1077 28C35.1077 28.736 35.1957 29.4 35.3717 29.992C35.5637 30.584 35.8277 31.088 36.1637 31.504C36.5157 31.92 36.9317 32.24 37.4117 32.464C37.9077 32.688 38.4677 32.8 39.0917 32.8C39.7157 32.8 40.2757 32.688 40.7717 32.464C41.2837 32.24 41.7157 31.92 42.0677 31.504C42.4357 31.088 42.7157 30.584 42.9077 29.992C43.1157 29.4 43.2197 28.736 43.2197 28C43.2197 26.544 42.8677 25.392 42.1637 24.544C41.4757 23.696 40.5157 23.272 39.2837 23.272C38.6597 23.272 38.0837 23.384 37.5557 23.608C37.0437 23.816 36.6037 24.128 36.2357 24.544C35.8837 24.944 35.6037 25.44 35.3957 26.032C35.2037 26.624 35.1077 27.28 35.1077 28ZM51.7164 32.728C52.2284 32.712 52.6844 32.648 53.0844 32.536C53.5004 32.424 53.8524 32.264 54.1404 32.056C54.4284 31.832 54.6524 31.568 54.8124 31.264C54.9724 30.944 55.0604 30.584 55.0764 30.184C55.0924 29.832 55.0364 29.536 54.9084 29.296C54.7804 29.056 54.5724 28.864 54.2844 28.72C53.9964 28.576 53.6124 28.472 53.1324 28.408C52.6684 28.344 52.1004 28.312 51.4284 28.312H50.2284L50.3964 26.968H51.1164C51.7564 26.968 52.2924 26.944 52.7244 26.896C53.1564 26.832 53.5084 26.744 53.7804 26.632C54.0524 26.504 54.2524 26.352 54.3804 26.176C54.5244 25.984 54.6124 25.752 54.6444 25.48C54.7564 24.76 54.5484 24.216 54.0204 23.848C53.4924 23.464 52.7724 23.272 51.8604 23.272C51.3324 23.272 50.8044 23.36 50.2764 23.536C49.7644 23.696 49.2924 23.944 48.8604 24.28L47.4924 23.32C47.9884 22.808 48.6204 22.424 49.3884 22.168C50.1564 21.896 50.9964 21.76 51.9084 21.76C52.6284 21.76 53.2844 21.848 53.8764 22.024C54.4684 22.2 54.9644 22.44 55.3644 22.744C55.7804 23.048 56.1004 23.424 56.3244 23.872C56.5484 24.304 56.6444 24.776 56.6124 25.288C56.5964 25.848 56.4284 26.28 56.1084 26.584C55.8044 26.888 55.4044 27.12 54.9084 27.28C54.4284 27.424 53.8844 27.512 53.2764 27.544C52.6844 27.576 52.0924 27.592 51.5004 27.592C52.1084 27.592 52.7484 27.624 53.4204 27.688C54.0924 27.736 54.7004 27.856 55.2444 28.048C55.8044 28.24 56.2524 28.536 56.5884 28.936C56.9404 29.32 57.0924 29.84 57.0444 30.496C57.0124 31.056 56.8444 31.568 56.5404 32.032C56.2364 32.48 55.8284 32.872 55.3164 33.208C54.8204 33.528 54.2364 33.784 53.5644 33.976C52.9084 34.152 52.2044 34.24 51.4524 34.24C50.5084 34.24 49.6444 34.104 48.8604 33.832C48.0924 33.544 47.4524 33.144 46.9404 32.632L48.2844 31.648C48.6844 32 49.1804 32.272 49.7724 32.464C50.3644 32.656 51.0124 32.744 51.7164 32.728ZM64.7736 31.312L60.5976 24.16L61.0776 24.736L61.2936 26.56V34H59.4696V22H61.1496L65.7816 29.8L70.4136 22H72.0936V34H70.2696V26.56L70.4856 24.736L70.9176 24.232L66.7896 31.312H64.7736ZM74.4851 28C74.4851 27.056 74.6211 26.208 74.8931 25.456C75.1651 24.688 75.5571 24.032 76.0691 23.488C76.5811 22.928 77.2051 22.504 77.9411 22.216C78.6931 21.912 79.5331 21.76 80.4611 21.76C81.3891 21.76 82.2211 21.912 82.9571 22.216C83.6931 22.504 84.3091 22.928 84.8051 23.488C85.3171 24.032 85.7091 24.688 85.9811 25.456C86.2531 26.208 86.3891 27.056 86.3891 28C86.3891 28.928 86.2531 29.776 85.9811 30.544C85.7091 31.312 85.3171 31.976 84.8051 32.536C84.3091 33.08 83.6931 33.504 82.9571 33.808C82.2211 34.096 81.3891 34.24 80.4611 34.24C79.5331 34.24 78.6931 34.096 77.9411 33.808C77.2051 33.504 76.5811 33.08 76.0691 32.536C75.5571 31.976 75.1651 31.312 74.8931 30.544C74.6211 29.776 74.4851 28.928 74.4851 28ZM76.3811 28C76.3811 28.736 76.4691 29.4 76.6451 29.992C76.8371 30.584 77.1011 31.088 77.4371 31.504C77.7891 31.92 78.2051 32.24 78.6851 32.464C79.1811 32.688 79.7411 32.8 80.3651 32.8C80.9891 32.8 81.5491 32.688 82.0451 32.464C82.5571 32.24 82.9891 31.92 83.3411 31.504C83.7091 31.088 83.9891 30.584 84.1811 29.992C84.3891 29.4 84.4931 28.736 84.4931 28C84.4931 26.544 84.1411 25.392 83.4371 24.544C82.7491 23.696 81.7891 23.272 80.5571 23.272C79.9331 23.272 79.3571 23.384 78.8291 23.608C78.3171 23.816 77.8771 24.128 77.5091 24.544C77.1571 24.944 76.8771 25.44 76.6691 26.032C76.4771 26.624 76.3811 27.28 76.3811 28ZM94.7438 22H96.4478V34H94.7438V22ZM101.344 22H103.432L98.8238 27.4L103.984 34H101.752L96.9518 27.52L101.344 22ZM89.8717 22L94.2638 27.52L89.4398 34H87.2318L92.3918 27.4L87.7838 22H89.8717ZM115.203 22H117.075V34H115.203V22ZM106.251 22H108.123V34H106.251V22ZM106.851 27.928V26.536H115.971V27.928H106.851ZM119.485 28C119.485 27.056 119.621 26.208 119.893 25.456C120.165 24.688 120.557 24.032 121.069 23.488C121.581 22.928 122.205 22.504 122.941 22.216C123.693 21.912 124.533 21.76 125.461 21.76C126.389 21.76 127.221 21.912 127.957 22.216C128.693 22.504 129.309 22.928 129.805 23.488C130.317 24.032 130.709 24.688 130.981 25.456C131.253 26.208 131.389 27.056 131.389 28C131.389 28.928 131.253 29.776 130.981 30.544C130.709 31.312 130.317 31.976 129.805 32.536C129.309 33.08 128.693 33.504 127.957 33.808C127.221 34.096 126.389 34.24 125.461 34.24C124.533 34.24 123.693 34.096 122.941 33.808C122.205 33.504 121.581 33.08 121.069 32.536C120.557 31.976 120.165 31.312 119.893 30.544C119.621 29.776 119.485 28.928 119.485 28ZM121.381 28C121.381 28.736 121.469 29.4 121.645 29.992C121.837 30.584 122.101 31.088 122.437 31.504C122.789 31.92 123.205 32.24 123.685 32.464C124.181 32.688 124.741 32.8 125.365 32.8C125.989 32.8 126.549 32.688 127.045 32.464C127.557 32.24 127.989 31.92 128.341 31.504C128.709 31.088 128.989 30.584 129.181 29.992C129.389 29.4 129.493 28.736 129.493 28C129.493 26.544 129.141 25.392 128.437 24.544C127.749 23.696 126.789 23.272 125.557 23.272C124.933 23.272 124.357 23.384 123.829 23.608C123.317 23.816 122.877 24.128 122.509 24.544C122.157 24.944 121.877 25.44 121.669 26.032C121.477 26.624 121.381 27.28 121.381 28ZM143.534 32.632C143.038 33.128 142.446 33.52 141.758 33.808C141.07 34.096 140.278 34.24 139.382 34.24C138.454 34.24 137.622 34.096 136.886 33.808C136.15 33.504 135.526 33.08 135.014 32.536C134.502 31.976 134.11 31.312 133.838 30.544C133.582 29.776 133.454 28.928 133.454 28C133.454 27.056 133.582 26.208 133.838 25.456C134.11 24.688 134.502 24.032 135.014 23.488C135.526 22.928 136.15 22.504 136.886 22.216C137.622 21.912 138.454 21.76 139.382 21.76C140.278 21.76 141.062 21.896 141.734 22.168C142.422 22.44 143.014 22.824 143.51 23.32L142.142 24.28C141.71 23.944 141.294 23.696 140.894 23.536C140.51 23.36 140.038 23.272 139.478 23.272C138.854 23.272 138.286 23.384 137.774 23.608C137.262 23.816 136.83 24.128 136.478 24.544C136.126 24.944 135.846 25.44 135.638 26.032C135.446 26.608 135.35 27.264 135.35 28C135.35 29.456 135.694 30.624 136.382 31.504C137.07 32.368 138.038 32.8 139.286 32.8C139.878 32.8 140.398 32.696 140.846 32.488C141.31 32.28 141.758 32 142.19 31.648L143.534 32.632ZM155.434 22V23.488H149.986L150.898 22.264V34H149.074V22.312L149.986 23.488H144.514V22H155.434ZM162.4 26.536C164.208 26.552 165.608 26.872 166.6 27.496C167.592 28.12 168.088 29.016 168.088 30.184C168.088 31.368 167.576 32.304 166.552 32.992C165.528 33.664 164.152 34 162.424 34H159.592L158.416 32.656H162.232C163.464 32.656 164.408 32.448 165.064 32.032C165.736 31.6 166.072 30.968 166.072 30.136C166.072 29.304 165.752 28.704 165.112 28.336C164.472 27.952 163.512 27.76 162.232 27.76H158.824V26.536H162.4ZM157.72 22H159.592V34H157.72V22ZM186.221 34H184.325V23.032L178.109 34H175.181V22H177.077V32.968L183.245 22H186.221V34ZM197.914 22H199.786V34H197.914V22ZM188.962 22H190.834V34H188.962V22ZM189.562 27.928V26.536H198.682V27.928H189.562ZM212.996 22V23.488H207.548L208.46 22.264V34H206.636V22.312L207.548 23.488H202.076V22H212.996ZM220.196 34.24C219.252 34.24 218.404 34.088 217.652 33.784C216.916 33.48 216.292 33.056 215.78 32.512C215.284 31.952 214.9 31.296 214.628 30.544C214.356 29.776 214.22 28.928 214.22 28C214.22 27.008 214.364 26.128 214.652 25.36C214.94 24.576 215.34 23.92 215.852 23.392C216.364 22.864 216.98 22.464 217.7 22.192C218.436 21.904 219.244 21.76 220.124 21.76C220.972 21.76 221.732 21.896 222.404 22.168C223.076 22.44 223.636 22.84 224.084 23.368C224.548 23.896 224.884 24.552 225.092 25.336C225.316 26.12 225.396 27.024 225.332 28.048H215.564L215.756 26.776H223.532C223.532 26.28 223.46 25.824 223.316 25.408C223.188 24.976 222.98 24.608 222.692 24.304C222.42 23.984 222.076 23.736 221.66 23.56C221.244 23.368 220.748 23.272 220.172 23.272C219.612 23.272 219.076 23.36 218.564 23.536C218.068 23.712 217.62 23.992 217.22 24.376C216.836 24.744 216.532 25.232 216.308 25.84C216.084 26.448 215.972 27.184 215.972 28.048C215.972 28.768 216.068 29.416 216.26 29.992C216.452 30.568 216.724 31.064 217.076 31.48C217.428 31.88 217.86 32.192 218.372 32.416C218.9 32.64 219.484 32.752 220.124 32.752C220.844 32.752 221.5 32.648 222.092 32.44C222.684 32.232 223.188 31.92 223.604 31.504L224.996 32.416C224.468 33.024 223.78 33.48 222.932 33.784C222.1 34.088 221.188 34.24 220.196 34.24ZM227.774 34V22H236.342V23.68H228.11L229.646 22.264V34H227.774ZM238.321 37.672V22H240.193V37.672H238.321ZM250.513 28C250.513 28.928 250.369 29.776 250.081 30.544C249.809 31.312 249.425 31.976 248.929 32.536C248.449 33.08 247.873 33.504 247.201 33.808C246.529 34.096 245.793 34.24 244.993 34.24C244.209 34.24 243.505 34.096 242.881 33.808C242.273 33.504 241.761 33.08 241.345 32.536C240.929 31.976 240.609 31.312 240.385 30.544C240.161 29.776 240.049 28.928 240.049 28C240.049 27.056 240.161 26.208 240.385 25.456C240.609 24.688 240.929 24.032 241.345 23.488C241.761 22.928 242.273 22.504 242.881 22.216C243.505 21.912 244.209 21.76 244.993 21.76C245.793 21.76 246.529 21.912 247.201 22.216C247.873 22.504 248.449 22.928 248.929 23.488C249.425 24.032 249.809 24.688 250.081 25.456C250.369 26.208 250.513 27.056 250.513 28ZM248.593 27.976C248.593 27.24 248.489 26.568 248.281 25.96C248.089 25.352 247.809 24.84 247.441 24.424C247.073 23.992 246.633 23.656 246.121 23.416C245.609 23.176 245.041 23.056 244.417 23.056C243.793 23.056 243.241 23.176 242.761 23.416C242.281 23.656 241.873 23.992 241.537 24.424C241.201 24.84 240.945 25.352 240.769 25.96C240.593 26.568 240.505 27.248 240.505 28C240.505 28.72 240.593 29.392 240.769 30.016C240.945 30.624 241.201 31.144 241.537 31.576C241.873 31.992 242.281 32.32 242.761 32.56C243.241 32.8 243.793 32.92 244.417 32.92C245.041 32.92 245.609 32.8 246.121 32.56C246.633 32.32 247.073 31.992 247.441 31.576C247.809 31.144 248.089 30.624 248.281 30.016C248.489 29.408 248.593 28.728 248.593 27.976ZM264.732 34H262.836V22H264.732V34ZM252.516 28C252.516 27.056 252.652 26.208 252.924 25.456C253.212 24.688 253.596 24.032 254.076 23.488C254.572 22.928 255.156 22.504 255.828 22.216C256.516 21.912 257.252 21.76 258.036 21.76C258.82 21.76 259.516 21.912 260.124 22.216C260.748 22.504 261.268 22.928 261.684 23.488C262.116 24.032 262.436 24.688 262.644 25.456C262.868 26.208 262.98 27.056 262.98 28C262.98 28.928 262.868 29.776 262.644 30.544C262.436 31.312 262.116 31.976 261.684 32.536C261.268 33.08 260.748 33.504 260.124 33.808C259.516 34.096 258.82 34.24 258.036 34.24C257.252 34.24 256.516 34.096 255.828 33.808C255.156 33.504 254.572 33.08 254.076 32.536C253.596 31.976 253.212 31.312 252.924 30.544C252.652 29.776 252.516 28.928 252.516 28ZM254.46 28C254.46 28.72 254.556 29.392 254.748 30.016C254.956 30.624 255.236 31.144 255.588 31.576C255.956 31.992 256.396 32.32 256.908 32.56C257.42 32.8 257.988 32.92 258.612 32.92C259.236 32.92 259.788 32.8 260.268 32.56C260.764 32.32 261.18 31.992 261.516 31.576C261.852 31.144 262.1 30.624 262.26 30.016C262.436 29.408 262.524 28.728 262.524 27.976C262.524 27.24 262.436 26.568 262.26 25.96C262.1 25.352 261.852 24.84 261.516 24.424C261.18 23.992 260.764 23.656 260.268 23.416C259.788 23.176 259.236 23.056 258.612 23.056C257.988 23.056 257.42 23.176 256.908 23.416C256.396 23.656 255.956 23.992 255.588 24.424C255.236 24.84 254.956 25.352 254.748 25.96C254.556 26.568 254.46 27.248 254.46 28ZM279.766 32.512V34H267.454L267.934 32.512H279.766ZM279.766 34V36.76H278.062V33.784L279.766 34ZM267.454 34V22H269.326V33.328L267.454 34ZM275.902 33.448V22H277.798V33.328L275.902 33.448ZM292.65 34H290.754V23.032L284.538 34H281.61V22H283.506V32.968L289.674 22H292.65V34ZM306.431 34H304.535V23.032L298.319 34H295.391V22H297.287V32.968L303.455 22H306.431V34ZM152.897 58.632C152.401 59.128 151.809 59.52 151.121 59.808C150.433 60.096 149.641 60.24 148.745 60.24C147.817 60.24 146.985 60.096 146.249 59.808C145.513 59.504 144.889 59.08 144.377 58.536C143.865 57.976 143.473 57.312 143.201 56.544C142.945 55.776 142.817 54.928 142.817 54C142.817 53.056 142.945 52.208 143.201 51.456C143.473 50.688 143.865 50.032 144.377 49.488C144.889 48.928 145.513 48.504 146.249 48.216C146.985 47.912 147.817 47.76 148.745 47.76C149.641 47.76 150.425 47.896 151.097 48.168C151.785 48.44 152.377 48.824 152.873 49.32L151.505 50.28C151.073 49.944 150.657 49.696 150.257 49.536C149.873 49.36 149.401 49.272 148.841 49.272C148.217 49.272 147.649 49.384 147.137 49.608C146.625 49.816 146.193 50.128 145.841 50.544C145.489 50.944 145.209 51.44 145.001 52.032C144.809 52.608 144.713 53.264 144.713 54C144.713 55.456 145.057 56.624 145.745 57.504C146.433 58.368 147.401 58.8 148.649 58.8C149.241 58.8 149.761 58.696 150.209 58.488C150.673 58.28 151.121 58 151.553 57.648L152.897 58.632ZM165.549 43.2V60H163.725V43.512L164.349 44.376L160.005 47.52V45.72L163.485 43.2H165.549ZM181.388 58.704C180.796 59.2 180.092 59.584 179.276 59.856C178.46 60.112 177.564 60.24 176.588 60.24C175.436 60.24 174.372 60.04 173.396 59.64C172.436 59.224 171.604 58.64 170.9 57.888C170.196 57.136 169.652 56.232 169.268 55.176C168.884 54.104 168.692 52.912 168.692 51.6C168.692 50.288 168.884 49.104 169.268 48.048C169.652 46.976 170.196 46.064 170.9 45.312C171.604 44.56 172.436 43.984 173.396 43.584C174.372 43.168 175.436 42.96 176.588 42.96C177.564 42.96 178.46 43.096 179.276 43.368C180.092 43.624 180.796 44 181.388 44.496L180.044 45.6C179.628 45.28 179.14 45.016 178.58 44.808C178.02 44.6 177.356 44.496 176.588 44.496C175.724 44.496 174.924 44.68 174.188 45.048C173.468 45.4 172.844 45.888 172.316 46.512C171.788 47.136 171.372 47.888 171.068 48.768C170.78 49.632 170.636 50.576 170.636 51.6C170.636 52.624 170.78 53.576 171.068 54.456C171.372 55.32 171.788 56.064 172.316 56.688C172.844 57.312 173.468 57.808 174.188 58.176C174.924 58.528 175.724 58.704 176.588 58.704C177.356 58.704 178.02 58.6 178.58 58.392C179.14 58.184 179.628 57.92 180.044 57.6L181.388 58.704Z" fill="white"/>
</svg>
