<svg width="402" height="95" viewBox="0 0 402 95" fill="none" xmlns="http://www.w3.org/2000/svg">
<path fill-rule="evenodd" clip-rule="evenodd" d="M0 21C0 12.1634 7.16344 5 16 5H386C394.837 5 402 12.1634 402 21V44.7148C402 53.5514 394.837 60.7148 386 60.7148H271C262.163 60.7148 255 67.8783 255 76.7148V79C255 87.8366 247.837 95 239 95H177C168.163 95 161 87.8366 161 79V76.7148C161 67.8783 153.837 60.7148 145 60.7148H16C7.16344 60.7148 0 53.5514 0 44.7148V21Z" fill="black"/>
<path fill-rule="evenodd" clip-rule="evenodd" d="M221.354 73L208.354 60L207.646 60.7071L219.793 72.8536H193.5C189.358 72.8536 186 69.4957 186 65.3536V60.3536H185V65.3536C185 70.048 188.806 73.8536 193.5 73.8536H220.367L208.664 84.4834L209.336 85.2236L221.836 73.8701L221.821 73.8536H222.207L221.354 73Z" fill="white"/>
<path d="M30.272 28.952C30.752 28.952 31.272 28.968 31.832 29C32.408 29.032 32.976 29.104 33.536 29.216C34.112 29.312 34.664 29.464 35.192 29.672C35.72 29.88 36.184 30.152 36.584 30.488C37 30.808 37.328 31.208 37.568 31.688C37.824 32.168 37.952 32.736 37.952 33.392C37.952 34.416 37.704 35.232 37.208 35.84C36.728 36.432 36.104 36.896 35.336 37.232C34.568 37.552 33.712 37.76 32.768 37.856C31.824 37.952 30.896 38 29.984 38H26.24L25.352 36.608H29.696C30.56 36.608 31.368 36.584 32.12 36.536C32.872 36.488 33.528 36.36 34.088 36.152C34.664 35.928 35.112 35.608 35.432 35.192C35.752 34.76 35.912 34.168 35.912 33.416C35.912 32.68 35.752 32.08 35.432 31.616C35.112 31.152 34.664 30.792 34.088 30.536C33.528 30.264 32.872 30.08 32.12 29.984C31.368 29.872 30.56 29.816 29.696 29.816H29.072V28.328H29.312C30.032 28.328 30.728 28.304 31.4 28.256C32.072 28.192 32.664 28.064 33.176 27.872C33.704 27.664 34.128 27.368 34.448 26.984C34.768 26.6 34.928 26.08 34.928 25.424C34.928 24.736 34.768 24.208 34.448 23.84C34.128 23.456 33.68 23.168 33.104 22.976C32.544 22.784 31.888 22.672 31.136 22.64C30.384 22.608 29.576 22.592 28.712 22.592H25.352L26.24 21.464V38H24.368V21.2H29C29.912 21.2 30.84 21.24 31.784 21.32C32.728 21.4 33.584 21.592 34.352 21.896C35.12 22.184 35.744 22.608 36.224 23.168C36.72 23.728 36.968 24.488 36.968 25.448C36.968 26.36 36.752 27.056 36.32 27.536C35.888 28 35.344 28.336 34.688 28.544C34.032 28.752 33.312 28.872 32.528 28.904C31.744 28.936 30.992 28.952 30.272 28.952ZM40.0164 32C40.0164 31.056 40.1524 30.208 40.4244 29.456C40.6964 28.688 41.0884 28.032 41.6004 27.488C42.1124 26.928 42.7364 26.504 43.4724 26.216C44.2244 25.912 45.0644 25.76 45.9924 25.76C46.9204 25.76 47.7524 25.912 48.4884 26.216C49.2244 26.504 49.8404 26.928 50.3364 27.488C50.8484 28.032 51.2404 28.688 51.5124 29.456C51.7844 30.208 51.9204 31.056 51.9204 32C51.9204 32.928 51.7844 33.776 51.5124 34.544C51.2404 35.312 50.8484 35.976 50.3364 36.536C49.8404 37.08 49.2244 37.504 48.4884 37.808C47.7524 38.096 46.9204 38.24 45.9924 38.24C45.0644 38.24 44.2244 38.096 43.4724 37.808C42.7364 37.504 42.1124 37.08 41.6004 36.536C41.0884 35.976 40.6964 35.312 40.4244 34.544C40.1524 33.776 40.0164 32.928 40.0164 32ZM41.9124 32C41.9124 32.736 42.0004 33.4 42.1764 33.992C42.3684 34.584 42.6324 35.088 42.9684 35.504C43.3204 35.92 43.7364 36.24 44.2164 36.464C44.7124 36.688 45.2724 36.8 45.8964 36.8C46.5204 36.8 47.0804 36.688 47.5764 36.464C48.0884 36.24 48.5204 35.92 48.8724 35.504C49.2404 35.088 49.5204 34.584 49.7124 33.992C49.9204 33.4 50.0244 32.736 50.0244 32C50.0244 30.544 49.6724 29.392 48.9684 28.544C48.2804 27.696 47.3204 27.272 46.0884 27.272C45.4644 27.272 44.8884 27.384 44.3604 27.608C43.8484 27.816 43.4084 28.128 43.0404 28.544C42.6884 28.944 42.4084 29.44 42.2004 30.032C42.0084 30.624 41.9124 31.28 41.9124 32ZM58.5211 36.728C59.0331 36.712 59.4891 36.648 59.8891 36.536C60.3051 36.424 60.6571 36.264 60.9451 36.056C61.2331 35.832 61.4571 35.568 61.6171 35.264C61.7771 34.944 61.8651 34.584 61.8811 34.184C61.8971 33.832 61.8411 33.536 61.7131 33.296C61.5851 33.056 61.3771 32.864 61.0891 32.72C60.8011 32.576 60.4171 32.472 59.9371 32.408C59.4731 32.344 58.9051 32.312 58.2331 32.312H57.0331L57.2011 30.968H57.9211C58.5611 30.968 59.0971 30.944 59.5291 30.896C59.9611 30.832 60.3131 30.744 60.5851 30.632C60.8571 30.504 61.0571 30.352 61.1851 30.176C61.3291 29.984 61.4171 29.752 61.4491 29.48C61.5611 28.76 61.3531 28.216 60.8251 27.848C60.2971 27.464 59.5771 27.272 58.6651 27.272C58.1371 27.272 57.6091 27.36 57.0811 27.536C56.5691 27.696 56.0971 27.944 55.6651 28.28L54.2971 27.32C54.7931 26.808 55.4251 26.424 56.1931 26.168C56.9611 25.896 57.8011 25.76 58.7131 25.76C59.4331 25.76 60.0891 25.848 60.6811 26.024C61.2731 26.2 61.7691 26.44 62.1691 26.744C62.5851 27.048 62.9051 27.424 63.1291 27.872C63.3531 28.304 63.4491 28.776 63.4171 29.288C63.4011 29.848 63.2331 30.28 62.9131 30.584C62.6091 30.888 62.2091 31.12 61.7131 31.28C61.2331 31.424 60.6891 31.512 60.0811 31.544C59.4891 31.576 58.8971 31.592 58.3051 31.592C58.9131 31.592 59.5531 31.624 60.2251 31.688C60.8971 31.736 61.5051 31.856 62.0491 32.048C62.6091 32.24 63.0571 32.536 63.3931 32.936C63.7451 33.32 63.8971 33.84 63.8491 34.496C63.8171 35.056 63.6491 35.568 63.3451 36.032C63.0411 36.48 62.6331 36.872 62.1211 37.208C61.6251 37.528 61.0411 37.784 60.3691 37.976C59.7131 38.152 59.0091 38.24 58.2571 38.24C57.3131 38.24 56.4491 38.104 55.6651 37.832C54.8971 37.544 54.2571 37.144 53.7451 36.632L55.0891 35.648C55.4891 36 55.9851 36.272 56.5771 36.464C57.1691 36.656 57.8171 36.744 58.5211 36.728ZM71.5783 35.312L67.4023 28.16L67.8823 28.736L68.0983 30.56V38H66.2743V26H67.9543L72.5863 33.8L77.2183 26H78.8983V38H77.0743V30.56L77.2903 28.736L77.7223 28.232L73.5943 35.312H71.5783ZM81.2898 32C81.2898 31.056 81.4258 30.208 81.6978 29.456C81.9698 28.688 82.3618 28.032 82.8738 27.488C83.3858 26.928 84.0098 26.504 84.7458 26.216C85.4978 25.912 86.3378 25.76 87.2658 25.76C88.1938 25.76 89.0258 25.912 89.7618 26.216C90.4978 26.504 91.1138 26.928 91.6098 27.488C92.1218 28.032 92.5138 28.688 92.7858 29.456C93.0578 30.208 93.1938 31.056 93.1938 32C93.1938 32.928 93.0578 33.776 92.7858 34.544C92.5138 35.312 92.1218 35.976 91.6098 36.536C91.1138 37.08 90.4978 37.504 89.7618 37.808C89.0258 38.096 88.1938 38.24 87.2658 38.24C86.3378 38.24 85.4978 38.096 84.7458 37.808C84.0098 37.504 83.3858 37.08 82.8738 36.536C82.3618 35.976 81.9698 35.312 81.6978 34.544C81.4258 33.776 81.2898 32.928 81.2898 32ZM83.1858 32C83.1858 32.736 83.2738 33.4 83.4498 33.992C83.6418 34.584 83.9058 35.088 84.2418 35.504C84.5938 35.92 85.0098 36.24 85.4898 36.464C85.9858 36.688 86.5458 36.8 87.1698 36.8C87.7938 36.8 88.3538 36.688 88.8498 36.464C89.3618 36.24 89.7938 35.92 90.1458 35.504C90.5138 35.088 90.7938 34.584 90.9858 33.992C91.1938 33.4 91.2978 32.736 91.2978 32C91.2978 30.544 90.9458 29.392 90.2418 28.544C89.5538 27.696 88.5938 27.272 87.3618 27.272C86.7378 27.272 86.1618 27.384 85.6338 27.608C85.1218 27.816 84.6818 28.128 84.3138 28.544C83.9618 28.944 83.6818 29.44 83.4738 30.032C83.2818 30.624 83.1858 31.28 83.1858 32ZM101.548 26H103.252V38H101.548V26ZM108.148 26H110.236L105.628 31.4L110.788 38H108.556L103.756 31.52L108.148 26ZM96.6764 26L101.068 31.52L96.2444 38H94.0364L99.1964 31.4L94.5884 26H96.6764ZM122.008 26H123.88V38H122.008V26ZM113.056 26H114.928V38H113.056V26ZM113.656 31.928V30.536H122.776V31.928H113.656ZM126.29 32C126.29 31.056 126.426 30.208 126.698 29.456C126.97 28.688 127.362 28.032 127.874 27.488C128.386 26.928 129.01 26.504 129.746 26.216C130.498 25.912 131.338 25.76 132.266 25.76C133.194 25.76 134.026 25.912 134.762 26.216C135.498 26.504 136.114 26.928 136.61 27.488C137.122 28.032 137.514 28.688 137.786 29.456C138.058 30.208 138.194 31.056 138.194 32C138.194 32.928 138.058 33.776 137.786 34.544C137.514 35.312 137.122 35.976 136.61 36.536C136.114 37.08 135.498 37.504 134.762 37.808C134.026 38.096 133.194 38.24 132.266 38.24C131.338 38.24 130.498 38.096 129.746 37.808C129.01 37.504 128.386 37.08 127.874 36.536C127.362 35.976 126.97 35.312 126.698 34.544C126.426 33.776 126.29 32.928 126.29 32ZM128.186 32C128.186 32.736 128.274 33.4 128.45 33.992C128.642 34.584 128.906 35.088 129.242 35.504C129.594 35.92 130.01 36.24 130.49 36.464C130.986 36.688 131.546 36.8 132.17 36.8C132.794 36.8 133.354 36.688 133.85 36.464C134.362 36.24 134.794 35.92 135.146 35.504C135.514 35.088 135.794 34.584 135.986 33.992C136.194 33.4 136.298 32.736 136.298 32C136.298 30.544 135.946 29.392 135.242 28.544C134.554 27.696 133.594 27.272 132.362 27.272C131.738 27.272 131.162 27.384 130.634 27.608C130.122 27.816 129.682 28.128 129.314 28.544C128.962 28.944 128.682 29.44 128.474 30.032C128.282 30.624 128.186 31.28 128.186 32ZM150.339 36.632C149.843 37.128 149.251 37.52 148.563 37.808C147.875 38.096 147.083 38.24 146.187 38.24C145.259 38.24 144.427 38.096 143.691 37.808C142.955 37.504 142.331 37.08 141.819 36.536C141.307 35.976 140.915 35.312 140.643 34.544C140.387 33.776 140.259 32.928 140.259 32C140.259 31.056 140.387 30.208 140.643 29.456C140.915 28.688 141.307 28.032 141.819 27.488C142.331 26.928 142.955 26.504 143.691 26.216C144.427 25.912 145.259 25.76 146.187 25.76C147.083 25.76 147.867 25.896 148.539 26.168C149.227 26.44 149.819 26.824 150.315 27.32L148.947 28.28C148.515 27.944 148.099 27.696 147.699 27.536C147.315 27.36 146.843 27.272 146.283 27.272C145.659 27.272 145.091 27.384 144.579 27.608C144.067 27.816 143.635 28.128 143.283 28.544C142.931 28.944 142.651 29.44 142.443 30.032C142.251 30.608 142.155 31.264 142.155 32C142.155 33.456 142.499 34.624 143.187 35.504C143.875 36.368 144.843 36.8 146.091 36.8C146.683 36.8 147.203 36.696 147.651 36.488C148.115 36.28 148.563 36 148.995 35.648L150.339 36.632ZM162.238 26V27.488H156.79L157.702 26.264V38H155.878V26.312L156.79 27.488H151.318V26H162.238ZM169.204 30.536C171.012 30.552 172.412 30.872 173.404 31.496C174.396 32.12 174.892 33.016 174.892 34.184C174.892 35.368 174.38 36.304 173.356 36.992C172.332 37.664 170.956 38 169.228 38H166.396L165.22 36.656H169.036C170.268 36.656 171.212 36.448 171.868 36.032C172.54 35.6 172.876 34.968 172.876 34.136C172.876 33.304 172.556 32.704 171.916 32.336C171.276 31.952 170.316 31.76 169.036 31.76H165.628V30.536H169.204ZM164.524 26H166.396V38H164.524V26ZM193.025 38H191.129V27.032L184.913 38H181.985V26H183.881V36.968L190.049 26H193.025V38ZM204.718 26H206.59V38H204.718V26ZM195.766 26H197.638V38H195.766V26ZM196.366 31.928V30.536H205.486V31.928H196.366ZM219.801 26V27.488H214.353L215.265 26.264V38H213.441V26.312L214.353 27.488H208.881V26H219.801ZM227 38.24C226.056 38.24 225.208 38.088 224.456 37.784C223.72 37.48 223.096 37.056 222.584 36.512C222.088 35.952 221.704 35.296 221.432 34.544C221.16 33.776 221.024 32.928 221.024 32C221.024 31.008 221.168 30.128 221.456 29.36C221.744 28.576 222.144 27.92 222.656 27.392C223.168 26.864 223.784 26.464 224.504 26.192C225.24 25.904 226.048 25.76 226.928 25.76C227.776 25.76 228.536 25.896 229.208 26.168C229.88 26.44 230.44 26.84 230.888 27.368C231.352 27.896 231.688 28.552 231.896 29.336C232.12 30.12 232.2 31.024 232.136 32.048H222.368L222.56 30.776H230.336C230.336 30.28 230.264 29.824 230.12 29.408C229.992 28.976 229.784 28.608 229.496 28.304C229.224 27.984 228.88 27.736 228.464 27.56C228.048 27.368 227.552 27.272 226.976 27.272C226.416 27.272 225.88 27.36 225.368 27.536C224.872 27.712 224.424 27.992 224.024 28.376C223.64 28.744 223.336 29.232 223.112 29.84C222.888 30.448 222.776 31.184 222.776 32.048C222.776 32.768 222.872 33.416 223.064 33.992C223.256 34.568 223.528 35.064 223.88 35.48C224.232 35.88 224.664 36.192 225.176 36.416C225.704 36.64 226.288 36.752 226.928 36.752C227.648 36.752 228.304 36.648 228.896 36.44C229.488 36.232 229.992 35.92 230.408 35.504L231.8 36.416C231.272 37.024 230.584 37.48 229.736 37.784C228.904 38.088 227.992 38.24 227 38.24ZM234.579 38V26H243.147V27.68H234.915L236.451 26.264V38H234.579ZM245.126 41.672V26H246.998V41.672H245.126ZM257.318 32C257.318 32.928 257.174 33.776 256.886 34.544C256.614 35.312 256.23 35.976 255.734 36.536C255.254 37.08 254.678 37.504 254.006 37.808C253.334 38.096 252.598 38.24 251.798 38.24C251.014 38.24 250.31 38.096 249.686 37.808C249.078 37.504 248.566 37.08 248.15 36.536C247.734 35.976 247.414 35.312 247.19 34.544C246.966 33.776 246.854 32.928 246.854 32C246.854 31.056 246.966 30.208 247.19 29.456C247.414 28.688 247.734 28.032 248.15 27.488C248.566 26.928 249.078 26.504 249.686 26.216C250.31 25.912 251.014 25.76 251.798 25.76C252.598 25.76 253.334 25.912 254.006 26.216C254.678 26.504 255.254 26.928 255.734 27.488C256.23 28.032 256.614 28.688 256.886 29.456C257.174 30.208 257.318 31.056 257.318 32ZM255.398 31.976C255.398 31.24 255.294 30.568 255.086 29.96C254.894 29.352 254.614 28.84 254.246 28.424C253.878 27.992 253.438 27.656 252.926 27.416C252.414 27.176 251.846 27.056 251.222 27.056C250.598 27.056 250.046 27.176 249.566 27.416C249.086 27.656 248.678 27.992 248.342 28.424C248.006 28.84 247.75 29.352 247.574 29.96C247.398 30.568 247.31 31.248 247.31 32C247.31 32.72 247.398 33.392 247.574 34.016C247.75 34.624 248.006 35.144 248.342 35.576C248.678 35.992 249.086 36.32 249.566 36.56C250.046 36.8 250.598 36.92 251.222 36.92C251.846 36.92 252.414 36.8 252.926 36.56C253.438 36.32 253.878 35.992 254.246 35.576C254.614 35.144 254.894 34.624 255.086 34.016C255.294 33.408 255.398 32.728 255.398 31.976ZM271.537 38H269.641V26H271.537V38ZM259.321 32C259.321 31.056 259.457 30.208 259.729 29.456C260.017 28.688 260.401 28.032 260.881 27.488C261.377 26.928 261.961 26.504 262.633 26.216C263.321 25.912 264.057 25.76 264.841 25.76C265.625 25.76 266.321 25.912 266.929 26.216C267.553 26.504 268.073 26.928 268.489 27.488C268.921 28.032 269.241 28.688 269.449 29.456C269.673 30.208 269.785 31.056 269.785 32C269.785 32.928 269.673 33.776 269.449 34.544C269.241 35.312 268.921 35.976 268.489 36.536C268.073 37.08 267.553 37.504 266.929 37.808C266.321 38.096 265.625 38.24 264.841 38.24C264.057 38.24 263.321 38.096 262.633 37.808C261.961 37.504 261.377 37.08 260.881 36.536C260.401 35.976 260.017 35.312 259.729 34.544C259.457 33.776 259.321 32.928 259.321 32ZM261.265 32C261.265 32.72 261.361 33.392 261.553 34.016C261.761 34.624 262.041 35.144 262.393 35.576C262.761 35.992 263.201 36.32 263.713 36.56C264.225 36.8 264.793 36.92 265.417 36.92C266.041 36.92 266.593 36.8 267.073 36.56C267.569 36.32 267.985 35.992 268.321 35.576C268.657 35.144 268.905 34.624 269.065 34.016C269.241 33.408 269.329 32.728 269.329 31.976C269.329 31.24 269.241 30.568 269.065 29.96C268.905 29.352 268.657 28.84 268.321 28.424C267.985 27.992 267.569 27.656 267.073 27.416C266.593 27.176 266.041 27.056 265.417 27.056C264.793 27.056 264.225 27.176 263.713 27.416C263.201 27.656 262.761 27.992 262.393 28.424C262.041 28.84 261.761 29.352 261.553 29.96C261.361 30.568 261.265 31.248 261.265 32ZM286.571 36.512V38H274.259L274.739 36.512H286.571ZM286.571 38V40.76H284.867V37.784L286.571 38ZM274.259 38V26H276.131V37.328L274.259 38ZM282.707 37.448V26H284.603V37.328L282.707 37.448ZM299.455 38H297.559V27.032L291.343 38H288.415V26H290.311V36.968L296.479 26H299.455V38ZM313.236 38H311.34V27.032L305.124 38H302.196V26H304.092V36.968L310.26 26H313.236V38ZM330.643 36.632C330.147 37.128 329.555 37.52 328.867 37.808C328.179 38.096 327.387 38.24 326.491 38.24C325.563 38.24 324.731 38.096 323.995 37.808C323.259 37.504 322.635 37.08 322.123 36.536C321.611 35.976 321.219 35.312 320.947 34.544C320.691 33.776 320.563 32.928 320.563 32C320.563 31.056 320.691 30.208 320.947 29.456C321.219 28.688 321.611 28.032 322.123 27.488C322.635 26.928 323.259 26.504 323.995 26.216C324.731 25.912 325.563 25.76 326.491 25.76C327.387 25.76 328.171 25.896 328.843 26.168C329.531 26.44 330.123 26.824 330.619 27.32L329.251 28.28C328.819 27.944 328.403 27.696 328.003 27.536C327.619 27.36 327.147 27.272 326.587 27.272C325.963 27.272 325.395 27.384 324.883 27.608C324.371 27.816 323.939 28.128 323.587 28.544C323.235 28.944 322.955 29.44 322.747 30.032C322.555 30.608 322.459 31.264 322.459 32C322.459 33.456 322.803 34.624 323.491 35.504C324.179 36.368 325.147 36.8 326.395 36.8C326.987 36.8 327.507 36.696 327.955 36.488C328.419 36.28 328.867 36 329.299 35.648L330.643 36.632ZM343.295 21.2V38H341.471V21.512L342.095 22.376L337.751 25.52V23.72L341.231 21.2H343.295ZM359.134 36.704C358.542 37.2 357.838 37.584 357.022 37.856C356.206 38.112 355.31 38.24 354.334 38.24C353.182 38.24 352.118 38.04 351.142 37.64C350.182 37.224 349.35 36.64 348.646 35.888C347.942 35.136 347.398 34.232 347.014 33.176C346.63 32.104 346.438 30.912 346.438 29.6C346.438 28.288 346.63 27.104 347.014 26.048C347.398 24.976 347.942 24.064 348.646 23.312C349.35 22.56 350.182 21.984 351.142 21.584C352.118 21.168 353.182 20.96 354.334 20.96C355.31 20.96 356.206 21.096 357.022 21.368C357.838 21.624 358.542 22 359.134 22.496L357.79 23.6C357.374 23.28 356.886 23.016 356.326 22.808C355.766 22.6 355.102 22.496 354.334 22.496C353.47 22.496 352.67 22.68 351.934 23.048C351.214 23.4 350.59 23.888 350.062 24.512C349.534 25.136 349.118 25.888 348.814 26.768C348.526 27.632 348.382 28.576 348.382 29.6C348.382 30.624 348.526 31.576 348.814 32.456C349.118 33.32 349.534 34.064 350.062 34.688C350.59 35.312 351.214 35.808 351.934 36.176C352.67 36.528 353.47 36.704 354.334 36.704C355.102 36.704 355.766 36.6 356.326 36.392C356.886 36.184 357.374 35.92 357.79 35.6L359.134 36.704Z" fill="white"/>
</svg>
