<svg width="48" height="48" viewBox="0 0 48 48" fill="none" xmlns="http://www.w3.org/2000/svg">
<g id="control">
<path id="Icon" d="M17.3333 9H17C14.1997 9 12.7996 9 11.73 9.54497C10.7892 10.0243 10.0243 10.7892 9.54497 11.73C9 12.7996 9 14.1997 9 17V17.3333M17.3333 39H17C14.1997 39 12.7996 39 11.73 38.455C10.7892 37.9757 10.0243 37.2108 9.54497 36.27C9 35.2004 9 33.8003 9 31V30.6667M39 17.3333V17C39 14.1997 39 12.7996 38.455 11.73C37.9757 10.7892 37.2108 10.0243 36.27 9.54497C35.2004 9 33.8003 9 31 9H30.6667M39 30.6667V31C39 33.8003 39 35.2004 38.455 36.27C37.9757 37.2108 37.2108 37.9757 36.27 38.455C35.2004 39 33.8003 39 31 39H30.6667" stroke="black" stroke-width="3" stroke-linecap="round" stroke-linejoin="round"/>
<path id="Icon_2" d="M18 24L22 28L31 19" stroke="black" stroke-width="3" stroke-linecap="round" stroke-linejoin="round"/>
</g>
</svg>
