<svg width="48" height="48" viewBox="0 0 48 48" fill="none" xmlns="http://www.w3.org/2000/svg">
<g id="&#209;&#129;&#208;&#190;&#208;&#179;&#208;&#187;&#208;&#176;&#209;&#129;&#208;&#190;&#208;&#178;&#208;&#176;&#208;&#189;&#208;&#184;&#208;&#181; &#209;&#130;&#208;&#190;&#209;&#135;&#208;&#186;&#208;&#184; &#208;&#188;&#208;&#176;&#209;&#128;&#209;&#136;&#209;&#128;&#209;&#131;&#209;&#130;&#208;&#176;">
<path id="Vector 171" d="M19 25L22 28L30 20" stroke="black" stroke-width="3" stroke-linecap="round"/>
<path id="Subtract" fill-rule="evenodd" clip-rule="evenodd" d="M24 42C33.9411 42 42 33.9411 42 24C42 14.0589 33.9411 6 24 6C14.0589 6 6 14.0589 6 24C6 33.9411 14.0589 42 24 42ZM24 39C32.2843 39 39 32.2843 39 24C39 15.7157 32.2843 9 24 9C15.7157 9 9 15.7157 9 24C9 32.2843 15.7157 39 24 39Z" fill="black"/>
</g>
</svg>
