<svg width="75" height="61" viewBox="0 0 75 61" fill="none" xmlns="http://www.w3.org/2000/svg">
<g id="Group 325">
<g id="Group 324">
<g id="Group 205">
<path id="Vector 162" d="M3.48828 3.48828H5.48828C9.90656 3.48828 13.4883 7.07 13.4883 11.4883V49.4883C13.4883 53.9066 17.07 57.4883 21.4883 57.4883H27.4883" stroke="#2B2B2B" stroke-width="6" stroke-linecap="round"/>
</g>
</g>
<path id="Vector 414" d="M29.4883 47.4883L39.4883 3.48828L53.4883 47.4883" stroke="#2B2B2B" stroke-width="6" stroke-linecap="round" stroke-linejoin="bevel"/>
<path id="Vector 415" d="M39.4883 0.488281C37.8314 0.488281 36.4883 1.83143 36.4883 3.48828C36.4883 5.14514 37.8314 6.48828 39.4883 6.48828V0.488281ZM61.4883 3.48828H64.4883L61.4883 0.488281V3.48828ZM55.4883 12.4883V9.48828C53.8314 9.48828 52.4883 10.8314 52.4883 12.4883H55.4883ZM55.4883 21.4883H52.4883C52.4883 23.1451 53.8314 24.4883 55.4883 24.4883V21.4883ZM71.4883 21.4883V24.4883C73.1451 24.4883 74.4883 23.1451 74.4883 21.4883H71.4883ZM71.4883 12.4883H74.4883C74.4883 10.8314 73.1451 9.48828 71.4883 9.48828V12.4883ZM39.4883 6.48828H61.4883V0.488281H39.4883V6.48828ZM58.4883 3.48828V12.4883H64.4883V3.48828H58.4883ZM61.4883 9.48828H55.4883V15.4883H61.4883V9.48828ZM52.4883 12.4883V21.4883H58.4883V12.4883H52.4883ZM55.4883 24.4883H71.4883V18.4883H55.4883V24.4883ZM74.4883 21.4883V12.4883H68.4883V21.4883H74.4883ZM71.4883 9.48828H61.4883V15.4883H71.4883V9.48828Z" fill="#2B2B2B"/>
</g>
</svg>
