<svg width="380" height="85" viewBox="0 0 380 85" fill="none" xmlns="http://www.w3.org/2000/svg">
<path fill-rule="evenodd" clip-rule="evenodd" d="M16 29C7.16344 29 0 36.1634 0 45V68.5C0 77.3366 7.16344 84.5 16 84.5H364C372.837 84.5 380 77.3366 380 68.5V16.5C380 7.66344 372.837 0.5 364 0.5H274.25C266.38 0.5 260 6.87994 260 14.75C260 22.6201 253.62 29 245.75 29H16Z" fill="black"/>
<path d="M18.9774 46.2H20.8494V62.664H20.5134L29.6094 46.2H32.8734V63H30.9774V46.44H31.1694L22.0254 63H18.9774V46.2ZM45.2666 51H47.1386V63H45.2666V51ZM36.3146 51H38.1866V63H36.3146V51ZM36.9146 56.928V55.536H46.0346V56.928H36.9146ZM61.0689 51V52.488H55.6209L56.5329 51.264V63H54.7089V51.312L55.6209 52.488H50.1489V51H61.0689ZM68.9883 63.24C68.0443 63.24 67.1963 63.088 66.4443 62.784C65.7083 62.48 65.0843 62.056 64.5723 61.512C64.0763 60.952 63.6923 60.296 63.4203 59.544C63.1483 58.776 63.0123 57.928 63.0123 57C63.0123 56.008 63.1563 55.128 63.4443 54.36C63.7323 53.576 64.1323 52.92 64.6443 52.392C65.1563 51.864 65.7723 51.464 66.4923 51.192C67.2283 50.904 68.0363 50.76 68.9163 50.76C69.7643 50.76 70.5243 50.896 71.1963 51.168C71.8683 51.44 72.4283 51.84 72.8763 52.368C73.3403 52.896 73.6763 53.552 73.8843 54.336C74.1083 55.12 74.1883 56.024 74.1243 57.048H64.3563L64.5483 55.776H72.3243C72.3243 55.28 72.2523 54.824 72.1083 54.408C71.9803 53.976 71.7723 53.608 71.4843 53.304C71.2123 52.984 70.8683 52.736 70.4523 52.56C70.0363 52.368 69.5403 52.272 68.9643 52.272C68.4043 52.272 67.8683 52.36 67.3563 52.536C66.8603 52.712 66.4123 52.992 66.0123 53.376C65.6283 53.744 65.3243 54.232 65.1003 54.84C64.8763 55.448 64.7643 56.184 64.7643 57.048C64.7643 57.768 64.8603 58.416 65.0523 58.992C65.2443 59.568 65.5163 60.064 65.8683 60.48C66.2203 60.88 66.6523 61.192 67.1643 61.416C67.6923 61.64 68.2763 61.752 68.9163 61.752C69.6363 61.752 70.2923 61.648 70.8843 61.44C71.4763 61.232 71.9803 60.92 72.3963 60.504L73.7883 61.416C73.2603 62.024 72.5723 62.48 71.7243 62.784C70.8923 63.088 69.9803 63.24 68.9883 63.24ZM77.2871 63V51H85.8551V52.68H77.6231L79.1591 51.264V63H77.2871ZM88.5539 66.672V51H90.4259V66.672H88.5539ZM100.746 57C100.746 57.928 100.602 58.776 100.314 59.544C100.042 60.312 99.6579 60.976 99.1619 61.536C98.6819 62.08 98.1059 62.504 97.4339 62.808C96.7619 63.096 96.0259 63.24 95.2259 63.24C94.4419 63.24 93.7379 63.096 93.1139 62.808C92.5059 62.504 91.9939 62.08 91.5779 61.536C91.1619 60.976 90.8419 60.312 90.6179 59.544C90.3939 58.776 90.2819 57.928 90.2819 57C90.2819 56.056 90.3939 55.208 90.6179 54.456C90.8419 53.688 91.1619 53.032 91.5779 52.488C91.9939 51.928 92.5059 51.504 93.1139 51.216C93.7379 50.912 94.4419 50.76 95.2259 50.76C96.0259 50.76 96.7619 50.912 97.4339 51.216C98.1059 51.504 98.6819 51.928 99.1619 52.488C99.6579 53.032 100.042 53.688 100.314 54.456C100.602 55.208 100.746 56.056 100.746 57ZM98.8259 56.976C98.8259 56.24 98.7219 55.568 98.5139 54.96C98.3219 54.352 98.0419 53.84 97.6739 53.424C97.3059 52.992 96.8659 52.656 96.3539 52.416C95.8419 52.176 95.2739 52.056 94.6499 52.056C94.0259 52.056 93.4739 52.176 92.9939 52.416C92.5139 52.656 92.1059 52.992 91.7699 53.424C91.4339 53.84 91.1779 54.352 91.0019 54.96C90.8259 55.568 90.7379 56.248 90.7379 57C90.7379 57.72 90.8259 58.392 91.0019 59.016C91.1779 59.624 91.4339 60.144 91.7699 60.576C92.1059 60.992 92.5139 61.32 92.9939 61.56C93.4739 61.8 94.0259 61.92 94.6499 61.92C95.2739 61.92 95.8419 61.8 96.3539 61.56C96.8659 61.32 97.3059 60.992 97.6739 60.576C98.0419 60.144 98.3219 59.624 98.5139 59.016C98.7219 58.408 98.8259 57.728 98.8259 56.976ZM115.685 63H113.789V51H115.685V63ZM103.469 57C103.469 56.056 103.605 55.208 103.877 54.456C104.165 53.688 104.549 53.032 105.029 52.488C105.525 51.928 106.109 51.504 106.781 51.216C107.469 50.912 108.205 50.76 108.989 50.76C109.773 50.76 110.469 50.912 111.077 51.216C111.701 51.504 112.221 51.928 112.637 52.488C113.069 53.032 113.389 53.688 113.597 54.456C113.821 55.208 113.933 56.056 113.933 57C113.933 57.928 113.821 58.776 113.597 59.544C113.389 60.312 113.069 60.976 112.637 61.536C112.221 62.08 111.701 62.504 111.077 62.808C110.469 63.096 109.773 63.24 108.989 63.24C108.205 63.24 107.469 63.096 106.781 62.808C106.109 62.504 105.525 62.08 105.029 61.536C104.549 60.976 104.165 60.312 103.877 59.544C103.605 58.776 103.469 57.928 103.469 57ZM105.413 57C105.413 57.72 105.509 58.392 105.701 59.016C105.909 59.624 106.189 60.144 106.541 60.576C106.909 60.992 107.349 61.32 107.861 61.56C108.373 61.8 108.941 61.92 109.565 61.92C110.189 61.92 110.741 61.8 111.221 61.56C111.717 61.32 112.133 60.992 112.469 60.576C112.805 60.144 113.053 59.624 113.213 59.016C113.389 58.408 113.477 57.728 113.477 56.976C113.477 56.24 113.389 55.568 113.213 54.96C113.053 54.352 112.805 53.84 112.469 53.424C112.133 52.992 111.717 52.656 111.221 52.416C110.741 52.176 110.189 52.056 109.565 52.056C108.941 52.056 108.373 52.176 107.861 52.416C107.349 52.656 106.909 52.992 106.541 53.424C106.189 53.84 105.909 54.352 105.701 54.96C105.509 55.568 105.413 56.248 105.413 57ZM131.439 61.512V63H119.127L119.607 61.512H131.439ZM131.439 63V65.76H129.735V62.784L131.439 63ZM119.127 63V51H120.999V62.328L119.127 63ZM127.575 62.448V51H129.471V62.328L127.575 62.448ZM145.043 63H143.147V52.032L136.931 63H134.003V51H135.899V61.968L142.067 51H145.043V63ZM158.44 63H156.568V51H158.44V63ZM153.424 58.008C151.952 57.816 150.808 57.464 149.992 56.952C149.192 56.424 148.752 55.648 148.672 54.624C148.624 54.048 148.704 53.536 148.912 53.088C149.136 52.624 149.472 52.24 149.92 51.936C150.384 51.632 150.952 51.4 151.624 51.24C152.312 51.08 153.096 51 153.976 51H156.568L158.008 52.344H154.192C152.912 52.344 151.968 52.528 151.36 52.896C150.768 53.248 150.504 53.832 150.568 54.648C150.616 55.016 150.728 55.328 150.904 55.584C151.08 55.84 151.312 56.056 151.6 56.232C151.904 56.408 152.256 56.56 152.656 56.688C153.056 56.8 153.488 56.912 153.952 57.024L155.248 57.36L150.04 63H147.856L151.912 58.608L153.472 57.336L153.424 58.008ZM178.034 63H176.138V51H178.034V63ZM166.994 54.864V51H168.914V54.528C168.914 55.2 168.986 55.76 169.13 56.208C169.274 56.64 169.482 56.992 169.754 57.264C170.042 57.52 170.394 57.704 170.81 57.816C171.242 57.928 171.738 57.984 172.298 57.984C172.97 57.984 173.546 57.872 174.026 57.648C174.506 57.408 174.898 57.072 175.202 56.64C175.522 56.208 175.754 55.688 175.898 55.08C176.058 54.472 176.138 53.8 176.138 53.064H176.594C176.594 53.992 176.49 54.84 176.282 55.608C176.074 56.36 175.754 57.016 175.322 57.576C174.906 58.12 174.378 58.544 173.738 58.848C173.114 59.152 172.386 59.304 171.554 59.304C170.818 59.304 170.162 59.2 169.586 58.992C169.026 58.768 168.554 58.464 168.17 58.08C167.786 57.68 167.49 57.208 167.282 56.664C167.09 56.12 166.994 55.52 166.994 54.864ZM187.101 63.24C186.157 63.24 185.309 63.088 184.557 62.784C183.821 62.48 183.197 62.056 182.685 61.512C182.189 60.952 181.805 60.296 181.533 59.544C181.261 58.776 181.125 57.928 181.125 57C181.125 56.008 181.269 55.128 181.557 54.36C181.845 53.576 182.245 52.92 182.757 52.392C183.269 51.864 183.885 51.464 184.605 51.192C185.341 50.904 186.149 50.76 187.029 50.76C187.877 50.76 188.637 50.896 189.309 51.168C189.981 51.44 190.541 51.84 190.989 52.368C191.453 52.896 191.789 53.552 191.997 54.336C192.221 55.12 192.301 56.024 192.237 57.048H182.469L182.661 55.776H190.437C190.437 55.28 190.365 54.824 190.221 54.408C190.093 53.976 189.885 53.608 189.597 53.304C189.325 52.984 188.981 52.736 188.565 52.56C188.149 52.368 187.653 52.272 187.077 52.272C186.517 52.272 185.981 52.36 185.469 52.536C184.973 52.712 184.525 52.992 184.125 53.376C183.741 53.744 183.437 54.232 183.213 54.84C182.989 55.448 182.877 56.184 182.877 57.048C182.877 57.768 182.973 58.416 183.165 58.992C183.357 59.568 183.629 60.064 183.981 60.48C184.333 60.88 184.765 61.192 185.277 61.416C185.805 61.64 186.389 61.752 187.029 61.752C187.749 61.752 188.405 61.648 188.997 61.44C189.589 61.232 190.093 60.92 190.509 60.504L191.901 61.416C191.373 62.024 190.685 62.48 189.837 62.784C189.005 63.088 188.093 63.24 187.101 63.24ZM195.4 66.672V51H197.272V66.672H195.4ZM207.592 57C207.592 57.928 207.448 58.776 207.16 59.544C206.888 60.312 206.504 60.976 206.008 61.536C205.528 62.08 204.952 62.504 204.28 62.808C203.608 63.096 202.872 63.24 202.072 63.24C201.288 63.24 200.584 63.096 199.96 62.808C199.352 62.504 198.84 62.08 198.424 61.536C198.008 60.976 197.688 60.312 197.464 59.544C197.24 58.776 197.128 57.928 197.128 57C197.128 56.056 197.24 55.208 197.464 54.456C197.688 53.688 198.008 53.032 198.424 52.488C198.84 51.928 199.352 51.504 199.96 51.216C200.584 50.912 201.288 50.76 202.072 50.76C202.872 50.76 203.608 50.912 204.28 51.216C204.952 51.504 205.528 51.928 206.008 52.488C206.504 53.032 206.888 53.688 207.16 54.456C207.448 55.208 207.592 56.056 207.592 57ZM205.672 56.976C205.672 56.24 205.568 55.568 205.36 54.96C205.168 54.352 204.888 53.84 204.52 53.424C204.152 52.992 203.712 52.656 203.2 52.416C202.688 52.176 202.12 52.056 201.496 52.056C200.872 52.056 200.32 52.176 199.84 52.416C199.36 52.656 198.952 52.992 198.616 53.424C198.28 53.84 198.024 54.352 197.848 54.96C197.672 55.568 197.584 56.248 197.584 57C197.584 57.72 197.672 58.392 197.848 59.016C198.024 59.624 198.28 60.144 198.616 60.576C198.952 60.992 199.36 61.32 199.84 61.56C200.32 61.8 200.872 61.92 201.496 61.92C202.12 61.92 202.688 61.8 203.2 61.56C203.712 61.32 204.152 60.992 204.52 60.576C204.888 60.144 205.168 59.624 205.36 59.016C205.568 58.408 205.672 57.728 205.672 56.976ZM216.291 63.24C215.347 63.24 214.499 63.088 213.747 62.784C213.011 62.48 212.387 62.056 211.875 61.512C211.379 60.952 210.995 60.296 210.723 59.544C210.451 58.776 210.315 57.928 210.315 57C210.315 56.008 210.459 55.128 210.747 54.36C211.035 53.576 211.435 52.92 211.947 52.392C212.459 51.864 213.075 51.464 213.795 51.192C214.531 50.904 215.339 50.76 216.219 50.76C217.067 50.76 217.827 50.896 218.499 51.168C219.171 51.44 219.731 51.84 220.179 52.368C220.643 52.896 220.979 53.552 221.187 54.336C221.411 55.12 221.491 56.024 221.427 57.048H211.659L211.851 55.776H219.627C219.627 55.28 219.555 54.824 219.411 54.408C219.283 53.976 219.075 53.608 218.787 53.304C218.515 52.984 218.171 52.736 217.755 52.56C217.339 52.368 216.843 52.272 216.267 52.272C215.707 52.272 215.171 52.36 214.659 52.536C214.163 52.712 213.715 52.992 213.315 53.376C212.931 53.744 212.627 54.232 212.403 54.84C212.179 55.448 212.067 56.184 212.067 57.048C212.067 57.768 212.163 58.416 212.355 58.992C212.547 59.568 212.819 60.064 213.171 60.48C213.523 60.88 213.955 61.192 214.467 61.416C214.995 61.64 215.579 61.752 216.219 61.752C216.939 61.752 217.595 61.648 218.187 61.44C218.779 61.232 219.283 60.92 219.699 60.504L221.091 61.416C220.563 62.024 219.875 62.48 219.027 62.784C218.195 63.088 217.283 63.24 216.291 63.24ZM228.79 61.728C229.302 61.712 229.758 61.648 230.158 61.536C230.574 61.424 230.926 61.264 231.214 61.056C231.502 60.832 231.726 60.568 231.886 60.264C232.046 59.944 232.134 59.584 232.15 59.184C232.166 58.832 232.11 58.536 231.982 58.296C231.854 58.056 231.646 57.864 231.358 57.72C231.07 57.576 230.686 57.472 230.206 57.408C229.742 57.344 229.174 57.312 228.502 57.312H227.302L227.47 55.968H228.19C228.83 55.968 229.366 55.944 229.798 55.896C230.23 55.832 230.582 55.744 230.854 55.632C231.126 55.504 231.326 55.352 231.454 55.176C231.598 54.984 231.686 54.752 231.718 54.48C231.83 53.76 231.622 53.216 231.094 52.848C230.566 52.464 229.846 52.272 228.934 52.272C228.406 52.272 227.878 52.36 227.35 52.536C226.838 52.696 226.366 52.944 225.934 53.28L224.566 52.32C225.062 51.808 225.694 51.424 226.462 51.168C227.23 50.896 228.07 50.76 228.982 50.76C229.702 50.76 230.358 50.848 230.95 51.024C231.542 51.2 232.038 51.44 232.438 51.744C232.854 52.048 233.174 52.424 233.398 52.872C233.622 53.304 233.718 53.776 233.686 54.288C233.67 54.848 233.502 55.28 233.182 55.584C232.878 55.888 232.478 56.12 231.982 56.28C231.502 56.424 230.958 56.512 230.35 56.544C229.758 56.576 229.166 56.592 228.574 56.592C229.182 56.592 229.822 56.624 230.494 56.688C231.166 56.736 231.774 56.856 232.318 57.048C232.878 57.24 233.326 57.536 233.662 57.936C234.014 58.32 234.166 58.84 234.118 59.496C234.086 60.056 233.918 60.568 233.614 61.032C233.31 61.48 232.902 61.872 232.39 62.208C231.894 62.528 231.31 62.784 230.638 62.976C229.982 63.152 229.278 63.24 228.526 63.24C227.582 63.24 226.718 63.104 225.934 62.832C225.166 62.544 224.526 62.144 224.014 61.632L225.358 60.648C225.758 61 226.254 61.272 226.846 61.464C227.438 61.656 228.086 61.744 228.79 61.728ZM242.089 63L249.505 46.2H251.497L258.865 63H256.825L249.649 46.512H251.161L244.153 63H242.089ZM246.289 55.896H254.737L254.833 57.12H246.289V55.896ZM261.531 66.672V51H263.403V66.672H261.531ZM273.723 57C273.723 57.928 273.579 58.776 273.291 59.544C273.019 60.312 272.635 60.976 272.139 61.536C271.659 62.08 271.083 62.504 270.411 62.808C269.739 63.096 269.003 63.24 268.203 63.24C267.419 63.24 266.715 63.096 266.091 62.808C265.483 62.504 264.971 62.08 264.555 61.536C264.139 60.976 263.819 60.312 263.595 59.544C263.371 58.776 263.259 57.928 263.259 57C263.259 56.056 263.371 55.208 263.595 54.456C263.819 53.688 264.139 53.032 264.555 52.488C264.971 51.928 265.483 51.504 266.091 51.216C266.715 50.912 267.419 50.76 268.203 50.76C269.003 50.76 269.739 50.912 270.411 51.216C271.083 51.504 271.659 51.928 272.139 52.488C272.635 53.032 273.019 53.688 273.291 54.456C273.579 55.208 273.723 56.056 273.723 57ZM271.803 56.976C271.803 56.24 271.699 55.568 271.491 54.96C271.299 54.352 271.019 53.84 270.651 53.424C270.283 52.992 269.843 52.656 269.331 52.416C268.819 52.176 268.251 52.056 267.627 52.056C267.003 52.056 266.451 52.176 265.971 52.416C265.491 52.656 265.083 52.992 264.747 53.424C264.411 53.84 264.155 54.352 263.979 54.96C263.803 55.568 263.715 56.248 263.715 57C263.715 57.72 263.803 58.392 263.979 59.016C264.155 59.624 264.411 60.144 264.747 60.576C265.083 60.992 265.491 61.32 265.971 61.56C266.451 61.8 267.003 61.92 267.627 61.92C268.251 61.92 268.819 61.8 269.331 61.56C269.843 61.32 270.283 60.992 270.651 60.576C271.019 60.144 271.299 59.624 271.491 59.016C271.699 58.408 271.803 57.728 271.803 56.976ZM276.997 47.136C276.997 47.504 277.101 47.792 277.309 48C277.533 48.208 277.837 48.312 278.221 48.312C278.557 48.312 278.829 48.208 279.037 48C279.245 47.792 279.349 47.504 279.349 47.136C279.349 46.768 279.245 46.48 279.037 46.272C278.829 46.064 278.557 45.96 278.221 45.96C277.837 45.96 277.533 46.064 277.309 46.272C277.101 46.48 276.997 46.768 276.997 47.136ZM277.213 63V51H279.109V63H277.213Z" fill="white"/>
<path fill-rule="evenodd" clip-rule="evenodd" d="M351.457 31.4622L335.108 18.4622L334.485 19.2449L349.714 31.3535H314.5C309.806 31.3535 306 35.1591 306 39.8535V70.3535H307V39.8535C307 35.7114 310.358 32.3535 314.5 32.3535H350.432L335.762 42.9482L336.347 43.7589L352.068 32.4053L352.03 32.3535H352.578L351.457 31.4622Z" fill="white"/>
</svg>
