<svg width="320" height="84" viewBox="0 0 320 84" fill="none" xmlns="http://www.w3.org/2000/svg">
<path fill-rule="evenodd" clip-rule="evenodd" d="M304 34C312.837 34 320 41.1634 320 50V68C320 76.8366 312.837 84 304 84L16 84C7.16345 84 0 76.8366 0 68V16C0 7.16344 7.16345 0 16 0L85.6216 0C94.4582 0 101.622 7.16344 101.622 16V18C101.622 26.8366 108.785 34 117.622 34L304 34Z" fill="black"/>
<path d="M102.368 48.2H104.24V64.664H103.904L113 48.2H116.264V65H114.368V48.44H114.56L105.416 65H102.368V48.2ZM128.657 53H130.529V65H128.657V53ZM119.705 53H121.577V65H119.705V53ZM120.305 58.928V57.536H129.425V58.928H120.305ZM144.46 53V54.488H139.012L139.924 53.264V65H138.1V53.312L139.012 54.488H133.54V53H144.46ZM152.379 65.24C151.435 65.24 150.587 65.088 149.835 64.784C149.099 64.48 148.475 64.056 147.963 63.512C147.467 62.952 147.083 62.296 146.811 61.544C146.539 60.776 146.403 59.928 146.403 59C146.403 58.008 146.547 57.128 146.835 56.36C147.123 55.576 147.523 54.92 148.035 54.392C148.547 53.864 149.163 53.464 149.883 53.192C150.619 52.904 151.427 52.76 152.307 52.76C153.155 52.76 153.915 52.896 154.587 53.168C155.259 53.44 155.819 53.84 156.267 54.368C156.731 54.896 157.067 55.552 157.275 56.336C157.499 57.12 157.579 58.024 157.515 59.048H147.747L147.939 57.776H155.715C155.715 57.28 155.643 56.824 155.499 56.408C155.371 55.976 155.163 55.608 154.875 55.304C154.603 54.984 154.259 54.736 153.843 54.56C153.427 54.368 152.931 54.272 152.355 54.272C151.795 54.272 151.259 54.36 150.747 54.536C150.251 54.712 149.803 54.992 149.403 55.376C149.019 55.744 148.715 56.232 148.491 56.84C148.267 57.448 148.155 58.184 148.155 59.048C148.155 59.768 148.251 60.416 148.443 60.992C148.635 61.568 148.907 62.064 149.259 62.48C149.611 62.88 150.043 63.192 150.555 63.416C151.083 63.64 151.667 63.752 152.307 63.752C153.027 63.752 153.683 63.648 154.275 63.44C154.867 63.232 155.371 62.92 155.787 62.504L157.179 63.416C156.651 64.024 155.963 64.48 155.115 64.784C154.283 65.088 153.371 65.24 152.379 65.24ZM160.678 65V53H169.246V54.68H161.014L162.55 53.264V65H160.678ZM171.945 68.672V53H173.817V68.672H171.945ZM184.137 59C184.137 59.928 183.993 60.776 183.705 61.544C183.433 62.312 183.049 62.976 182.553 63.536C182.073 64.08 181.497 64.504 180.825 64.808C180.153 65.096 179.417 65.24 178.617 65.24C177.833 65.24 177.129 65.096 176.505 64.808C175.897 64.504 175.385 64.08 174.969 63.536C174.553 62.976 174.233 62.312 174.009 61.544C173.785 60.776 173.673 59.928 173.673 59C173.673 58.056 173.785 57.208 174.009 56.456C174.233 55.688 174.553 55.032 174.969 54.488C175.385 53.928 175.897 53.504 176.505 53.216C177.129 52.912 177.833 52.76 178.617 52.76C179.417 52.76 180.153 52.912 180.825 53.216C181.497 53.504 182.073 53.928 182.553 54.488C183.049 55.032 183.433 55.688 183.705 56.456C183.993 57.208 184.137 58.056 184.137 59ZM182.217 58.976C182.217 58.24 182.113 57.568 181.905 56.96C181.713 56.352 181.433 55.84 181.065 55.424C180.697 54.992 180.257 54.656 179.745 54.416C179.233 54.176 178.665 54.056 178.041 54.056C177.417 54.056 176.865 54.176 176.385 54.416C175.905 54.656 175.497 54.992 175.161 55.424C174.825 55.84 174.569 56.352 174.393 56.96C174.217 57.568 174.129 58.248 174.129 59C174.129 59.72 174.217 60.392 174.393 61.016C174.569 61.624 174.825 62.144 175.161 62.576C175.497 62.992 175.905 63.32 176.385 63.56C176.865 63.8 177.417 63.92 178.041 63.92C178.665 63.92 179.233 63.8 179.745 63.56C180.257 63.32 180.697 62.992 181.065 62.576C181.433 62.144 181.713 61.624 181.905 61.016C182.113 60.408 182.217 59.728 182.217 58.976ZM199.076 65H197.18V53H199.076V65ZM186.86 59C186.86 58.056 186.996 57.208 187.268 56.456C187.556 55.688 187.94 55.032 188.42 54.488C188.916 53.928 189.5 53.504 190.172 53.216C190.86 52.912 191.596 52.76 192.38 52.76C193.164 52.76 193.86 52.912 194.468 53.216C195.092 53.504 195.612 53.928 196.028 54.488C196.46 55.032 196.78 55.688 196.988 56.456C197.212 57.208 197.324 58.056 197.324 59C197.324 59.928 197.212 60.776 196.988 61.544C196.78 62.312 196.46 62.976 196.028 63.536C195.612 64.08 195.092 64.504 194.468 64.808C193.86 65.096 193.164 65.24 192.38 65.24C191.596 65.24 190.86 65.096 190.172 64.808C189.5 64.504 188.916 64.08 188.42 63.536C187.94 62.976 187.556 62.312 187.268 61.544C186.996 60.776 186.86 59.928 186.86 59ZM188.804 59C188.804 59.72 188.9 60.392 189.092 61.016C189.3 61.624 189.58 62.144 189.932 62.576C190.3 62.992 190.74 63.32 191.252 63.56C191.764 63.8 192.332 63.92 192.956 63.92C193.58 63.92 194.132 63.8 194.612 63.56C195.108 63.32 195.524 62.992 195.86 62.576C196.196 62.144 196.444 61.624 196.604 61.016C196.78 60.408 196.868 59.728 196.868 58.976C196.868 58.24 196.78 57.568 196.604 56.96C196.444 56.352 196.196 55.84 195.86 55.424C195.524 54.992 195.108 54.656 194.612 54.416C194.132 54.176 193.58 54.056 192.956 54.056C192.332 54.056 191.764 54.176 191.252 54.416C190.74 54.656 190.3 54.992 189.932 55.424C189.58 55.84 189.3 56.352 189.092 56.96C188.9 57.568 188.804 58.248 188.804 59ZM214.829 63.512V65H202.517L202.997 63.512H214.829ZM214.829 65V67.76H213.125V64.784L214.829 65ZM202.517 65V53H204.389V64.328L202.517 65ZM210.965 64.448V53H212.861V64.328L210.965 64.448ZM228.434 65H226.538V54.032L220.322 65H217.394V53H219.29V63.968L225.458 53H228.434V65ZM241.831 65H239.959V53H241.831V65ZM236.815 60.008C235.343 59.816 234.199 59.464 233.383 58.952C232.583 58.424 232.143 57.648 232.063 56.624C232.015 56.048 232.095 55.536 232.303 55.088C232.527 54.624 232.863 54.24 233.311 53.936C233.775 53.632 234.343 53.4 235.015 53.24C235.703 53.08 236.487 53 237.367 53H239.959L241.399 54.344H237.583C236.303 54.344 235.359 54.528 234.751 54.896C234.159 55.248 233.895 55.832 233.959 56.648C234.007 57.016 234.119 57.328 234.295 57.584C234.471 57.84 234.703 58.056 234.991 58.232C235.295 58.408 235.647 58.56 236.047 58.688C236.447 58.8 236.879 58.912 237.343 59.024L238.639 59.36L233.431 65H231.247L235.303 60.608L236.863 59.336L236.815 60.008Z" fill="white"/>
<path fill-rule="evenodd" clip-rule="evenodd" d="M67.184 29.0386L54.6147 16L53.8947 16.694L65.6476 28.8856H40.5C35.8056 28.8856 32 32.6912 32 37.3856V67.9999H33V37.3856C33 33.2435 36.3579 29.8856 40.5 29.8856H66.2044L54.8798 40.5555L55.5655 41.2834L67.6515 29.8961L67.6415 29.8856H68.0006L67.184 29.0386Z" fill="white"/>
</svg>
