<svg width="37" height="36" viewBox="0 0 37 36" fill="none" xmlns="http://www.w3.org/2000/svg">
<path d="M26.9961 5.76685H10.8086C8.59945 5.76685 6.80859 7.55771 6.80859 9.76685V26.0376C6.80859 28.2467 8.59946 30.0376 10.8086 30.0376H26.9961C29.2052 30.0376 30.9961 28.2467 30.9961 26.0375V9.76685C30.9961 7.55771 29.2052 5.76685 26.9961 5.76685Z" fill="#FFC300"/>
<path d="M14.417 31.3858C15.3206 32.3632 16.7084 32.625 18.0395 32.625H20.6813C22.0124 32.625 23.4002 32.3632 24.3038 31.3858C24.6762 30.983 24.9957 30.5301 25.252 30.0376H21.8672C21.2724 30.4737 20.5549 30.7083 19.8185 30.7075H18.9023C18.1657 30.7084 17.448 30.4737 16.853 30.0376H13.4688C13.7251 30.5301 14.0446 30.983 14.417 31.3858Z" fill="#1D1728"/>
<path d="M14.9555 3.375C14.2644 3.375 13.5452 3.62916 13.2821 4.26812C13.1445 4.60217 13.0739 4.96021 13.0742 5.32172V22.226C13.0742 25.4203 15.6755 28.0853 18.8551 28.0867C22.0466 28.0884 24.6419 25.481 24.6419 22.2763V11.6619C24.642 11.4336 24.5973 11.2075 24.5103 10.9966C24.4234 10.7857 24.2959 10.594 24.1352 10.4326C23.9746 10.2711 23.7838 10.143 23.5738 10.0557C23.3639 9.96828 23.1388 9.92331 22.9116 9.92331H21.3943C21.3036 9.92331 21.2138 9.94125 21.1301 9.9761C21.0463 10.011 20.9702 10.062 20.9061 10.1264C20.842 10.1908 20.7912 10.2673 20.7565 10.3514C20.7218 10.4356 20.7039 10.5258 20.7039 10.6168V11.8737C20.704 12.0576 20.7768 12.2339 20.9062 12.3639C21.0357 12.4939 21.2112 12.5669 21.3943 12.5669H22.0102V22.2415C22.0102 23.9888 20.6157 25.4329 18.8761 25.4431C18.4608 25.445 18.0491 25.3645 17.6648 25.2063C17.2805 25.0481 16.931 24.8152 16.6365 24.521C16.3419 24.2268 16.1081 23.877 15.9484 23.4919C15.7887 23.1067 15.7062 22.6936 15.7057 22.2763V5.32172C15.7057 5.29188 15.7175 5.26327 15.7385 5.24217C15.7595 5.22108 15.788 5.20922 15.8177 5.20922H23.4863C23.516 5.20922 23.5445 5.22108 23.5655 5.24217C23.5865 5.26327 23.5983 5.29188 23.5983 5.32172V5.76692H26.2298V5.32172C26.2304 4.96034 26.1601 4.60239 26.0229 4.26835C25.7604 3.62947 25.0416 3.375 24.3509 3.375L14.9555 3.375Z" fill="#1D1728"/>
</svg>
