<svg width="326" height="246" viewBox="0 0 326 246" fill="none" xmlns="http://www.w3.org/2000/svg">
<g filter="url(#filter0_b_2063_26212)">
<path d="M284.6 3C305.808 3 323 20.1923 323 41.4L323 228.6C323 236.553 316.553 243 308.6 243L17.4 243C9.44707 243 2.99998 236.553 2.99998 228.6L3 17.4C3 9.44709 9.44711 2.99999 17.4 2.99999L284.6 3Z" fill="url(#paint0_radial_2063_26212)"/>
<path d="M324.05 41.4C324.05 19.6124 306.388 1.95 284.6 1.95L17.4 1.94999C8.86722 1.94999 1.95001 8.86719 1.95001 17.4L1.95 228.6C1.95 237.133 8.86717 244.05 17.4 244.05L308.6 244.05C317.133 244.05 324.05 237.133 324.05 228.6L324.05 41.4Z" stroke="url(#paint1_radial_2063_26212)" stroke-width="2.1"/>
<path d="M324.05 41.4C324.05 19.6124 306.388 1.95 284.6 1.95L17.4 1.94999C8.86722 1.94999 1.95001 8.86719 1.95001 17.4L1.95 228.6C1.95 237.133 8.86717 244.05 17.4 244.05L308.6 244.05C317.133 244.05 324.05 237.133 324.05 228.6L324.05 41.4Z" stroke="url(#paint2_radial_2063_26212)" stroke-width="2.1"/>
<path d="M324.05 41.4C324.05 19.6124 306.388 1.95 284.6 1.95L17.4 1.94999C8.86722 1.94999 1.95001 8.86719 1.95001 17.4L1.95 228.6C1.95 237.133 8.86717 244.05 17.4 244.05L308.6 244.05C317.133 244.05 324.05 237.133 324.05 228.6L324.05 41.4Z" stroke="url(#paint3_linear_2063_26212)" stroke-width="2.1"/>
</g>
<path d="M155.933 218.891L146.908 214.92V213.856L155.933 209.353V211.044L149.017 214.312L155.933 217.2V218.891ZM164.754 208.878H158.199V207.7H166.445V208.954L161.752 213.21C162.563 213.058 163.291 213.046 163.937 213.172C164.583 213.299 165.128 213.533 165.571 213.875C166.027 214.205 166.369 214.629 166.597 215.148C166.838 215.668 166.952 216.257 166.939 216.915C166.926 217.561 166.793 218.15 166.54 218.682C166.287 219.202 165.938 219.651 165.495 220.031C165.052 220.399 164.526 220.684 163.918 220.886C163.31 221.089 162.639 221.19 161.904 221.19C161.005 221.19 160.175 221.038 159.415 220.734C158.668 220.43 158.015 219.993 157.458 219.423L158.503 218.663C159.06 219.145 159.624 219.493 160.194 219.708C160.764 219.924 161.385 220.025 162.056 220.012C163.12 219.987 163.931 219.708 164.488 219.176C165.058 218.644 165.362 217.922 165.4 217.01C165.425 216.428 165.33 215.921 165.115 215.49C164.9 215.047 164.583 214.705 164.165 214.464C163.747 214.211 163.234 214.065 162.626 214.027C162.018 213.977 161.321 214.053 160.536 214.255L160.137 214.35V213.096L164.754 208.878ZM168.691 217.2L175.607 214.312L168.691 211.044V209.353L177.716 213.856V214.92L168.691 218.891V217.2Z" fill="black"/>
<defs>
<filter id="filter0_b_2063_26212" x="-24.3016" y="-24.3001" width="374.603" height="294.6" filterUnits="userSpaceOnUse" color-interpolation-filters="sRGB">
<feFlood flood-opacity="0" result="BackgroundImageFix"/>
<feGaussianBlur in="BackgroundImageFix" stdDeviation="12.6"/>
<feComposite in2="SourceAlpha" operator="in" result="effect1_backgroundBlur_2063_26212"/>
<feBlend mode="normal" in="SourceGraphic" in2="effect1_backgroundBlur_2063_26212" result="shape"/>
</filter>
<radialGradient id="paint0_radial_2063_26212" cx="0" cy="0" r="1" gradientUnits="userSpaceOnUse" gradientTransform="translate(323 3) rotate(143.13) scale(400 266.818)">
<stop stop-color="white" stop-opacity="0.4"/>
<stop offset="1" stop-color="white" stop-opacity="0"/>
</radialGradient>
<radialGradient id="paint1_radial_2063_26212" cx="0" cy="0" r="1" gradientUnits="userSpaceOnUse" gradientTransform="translate(163 123) rotate(-180) scale(160 193.903)">
<stop stop-color="#8C4424"/>
<stop offset="1" stop-color="#8C4424" stop-opacity="0"/>
</radialGradient>
<radialGradient id="paint2_radial_2063_26212" cx="0" cy="0" r="1" gradientUnits="userSpaceOnUse" gradientTransform="translate(163 123) rotate(-180) scale(160 4.86298)">
<stop stop-color="#00FF1A"/>
<stop offset="1" stop-color="#A3FFA2"/>
</radialGradient>
<linearGradient id="paint3_linear_2063_26212" x1="323" y1="123" x2="2.99999" y2="123" gradientUnits="userSpaceOnUse">
<stop stop-color="white"/>
<stop offset="1" stop-color="white" stop-opacity="0"/>
</linearGradient>
</defs>
</svg>
