<svg width="326" height="246" viewBox="0 0 326 246" fill="none" xmlns="http://www.w3.org/2000/svg">
<g filter="url(#filter0_b_2063_26199)">
<path d="M41.4 243C20.1923 243 3 225.808 3.00001 204.6L3.00004 17.4C3.00004 9.44713 9.44714 3.00002 17.4 3.00002L308.6 3.00005C316.553 3.00005 323 9.44717 323 17.4001L323 228.6C323 236.553 316.553 243 308.6 243L41.4 243Z" fill="url(#paint0_radial_2063_26199)"/>
<path d="M1.95001 204.6C1.95 226.388 19.6124 244.05 41.4 244.05L308.6 244.05C317.133 244.05 324.05 237.133 324.05 228.6L324.05 17.4001C324.05 8.86727 317.133 1.95005 308.6 1.95005L17.4 1.95001C8.86724 1.95001 1.95004 8.86723 1.95004 17.4L1.95001 204.6Z" stroke="url(#paint1_radial_2063_26199)" stroke-width="2.1"/>
<path d="M1.95001 204.6C1.95 226.388 19.6124 244.05 41.4 244.05L308.6 244.05C317.133 244.05 324.05 237.133 324.05 228.6L324.05 17.4001C324.05 8.86727 317.133 1.95005 308.6 1.95005L17.4 1.95001C8.86724 1.95001 1.95004 8.86723 1.95004 17.4L1.95001 204.6Z" stroke="url(#paint2_radial_2063_26199)" stroke-width="2.1"/>
<path d="M1.95001 204.6C1.95 226.388 19.6124 244.05 41.4 244.05L308.6 244.05C317.133 244.05 324.05 237.133 324.05 228.6L324.05 17.4001C324.05 8.86727 317.133 1.95005 308.6 1.95005L17.4 1.95001C8.86724 1.95001 1.95004 8.86723 1.95004 17.4L1.95001 204.6Z" stroke="url(#paint3_linear_2063_26199)" stroke-width="2.1"/>
</g>
<path d="M155.937 218.891L146.912 214.92V213.856L155.937 209.353V211.044L149.021 214.312L155.937 217.2V218.891ZM158.45 219.822H166.696V221H157.557V219.841L162.136 215.756C162.427 215.49 162.731 215.224 163.048 214.958C163.365 214.679 163.656 214.375 163.922 214.046C164.201 213.704 164.435 213.33 164.625 212.925C164.815 212.507 164.923 212.038 164.948 211.519C164.986 211.025 164.942 210.601 164.815 210.246C164.688 209.891 164.492 209.6 164.226 209.372C163.96 209.144 163.637 208.979 163.257 208.878C162.877 208.777 162.44 208.726 161.946 208.726C161.376 208.726 160.857 208.802 160.388 208.954C159.932 209.093 159.501 209.309 159.096 209.6L158.051 208.726C158.545 208.333 159.115 208.036 159.761 207.833C160.407 207.618 161.11 207.51 161.87 207.51C162.567 207.51 163.2 207.599 163.77 207.776C164.353 207.953 164.84 208.219 165.233 208.574C165.638 208.916 165.942 209.347 166.145 209.866C166.348 210.373 166.43 210.968 166.392 211.652C166.367 212.057 166.284 212.45 166.145 212.83C166.006 213.21 165.816 213.571 165.575 213.913C165.347 214.255 165.075 214.591 164.758 214.92C164.454 215.249 164.112 215.585 163.732 215.927L158.469 220.658L158.45 219.822ZM168.565 217.2L175.481 214.312L168.565 211.044V209.353L177.59 213.856V214.92L168.565 218.891V217.2Z" fill="black"/>
<defs>
<filter id="filter0_b_2063_26199" x="-24.3016" y="-24.3001" width="374.603" height="294.6" filterUnits="userSpaceOnUse" color-interpolation-filters="sRGB">
<feFlood flood-opacity="0" result="BackgroundImageFix"/>
<feGaussianBlur in="BackgroundImageFix" stdDeviation="12.6"/>
<feComposite in2="SourceAlpha" operator="in" result="effect1_backgroundBlur_2063_26199"/>
<feBlend mode="normal" in="SourceGraphic" in2="effect1_backgroundBlur_2063_26199" result="shape"/>
</filter>
<radialGradient id="paint0_radial_2063_26199" cx="0" cy="0" r="1" gradientUnits="userSpaceOnUse" gradientTransform="translate(3 243) rotate(-36.8699) scale(400 266.818)">
<stop stop-color="white" stop-opacity="0.4"/>
<stop offset="1" stop-color="white" stop-opacity="0"/>
</radialGradient>
<radialGradient id="paint1_radial_2063_26199" cx="0" cy="0" r="1" gradientUnits="userSpaceOnUse" gradientTransform="translate(163 123) scale(160 193.903)">
<stop stop-color="#8C4424"/>
<stop offset="1" stop-color="#8C4424" stop-opacity="0"/>
</radialGradient>
<radialGradient id="paint2_radial_2063_26199" cx="0" cy="0" r="1" gradientUnits="userSpaceOnUse" gradientTransform="translate(163 123) scale(160 4.86298)">
<stop stop-color="#00FF1A"/>
<stop offset="1" stop-color="#A3FFA2"/>
</radialGradient>
<linearGradient id="paint3_linear_2063_26199" x1="3.00002" y1="123" x2="323" y2="123" gradientUnits="userSpaceOnUse">
<stop stop-color="white"/>
<stop offset="1" stop-color="white" stop-opacity="0"/>
</linearGradient>
</defs>
</svg>
