<svg  viewBox="0 0 366 1176" fill="none" xmlns="http://www.w3.org/2000/svg">
<g filter="url(#filter0_bdii_3414_11179)">
<path fill-rule="evenodd" clip-rule="evenodd" d="M46 4C32.7452 4 22 14.7452 22 28V76C22 89.2548 32.7452 100 46 100H170C173.314 100 176 102.686 176 106V114C176 117.314 173.314 120 170 120H46C32.7452 120 22 130.745 22 144V192C22 205.255 32.7452 216 46 216H170C173.314 216 176 218.686 176 222V230C176 233.314 173.314 236 170 236H46C32.7452 236 22 246.745 22 260V308C22 321.255 32.7452 332 46 332H170C173.314 332 176 334.686 176 338V346C176 349.314 173.314 352 170 352H46C32.7452 352 22 362.745 22 376V424C22 437.255 32.7452 448 46 448H170C173.314 448 176 450.686 176 454V462C176 465.314 173.314 468 170 468H48C34.7452 468 24 478.745 24 492V540C24 553.255 34.7452 564 48 564H170C173.314 564 176 566.686 176 570V578C176 581.314 173.314 584 170 584H46C32.7452 584 22 594.745 22 608V683C22 696.255 32.7452 707 46 707H170C173.314 707 176 709.686 176 713V721C176 724.314 173.314 727 170 727H46C32.7452 727 22 737.745 22 751V826C22 839.255 32.7452 850 46 850H170C173.314 850 176 852.686 176 856V864C176 867.314 173.314 870 170 870H46C32.7452 870 22 880.745 22 894V969C22 982.255 32.7452 993 46 993H170C173.314 993 176 995.686 176 999V1007C176 1010.31 173.314 1013 170 1013H46C32.7452 1013 22 1023.75 22 1037V1112C22 1125.25 32.7452 1136 46 1136H318C331.255 1136 342 1125.25 342 1112V1037C342 1023.75 331.255 1013 318 1013H196C192.686 1013 190 1010.31 190 1007V999C190 995.686 192.686 993 196 993H318C331.255 993 342 982.255 342 969V894C342 880.745 331.255 870 318 870H196C192.686 870 190 867.314 190 864V856C190 852.686 192.686 850 196 850H318C331.255 850 342 839.255 342 826V751C342 737.745 331.255 727 318 727H196C192.686 727 190 724.314 190 721V713C190 709.686 192.686 707 196 707H318C331.255 707 342 696.255 342 683V608C342 594.745 331.255 584 318 584H196C192.686 584 190 581.314 190 578V570C190 566.686 192.686 564 196 564H320C333.255 564 344 553.255 344 540V492C344 478.745 333.255 468 320 468H196C192.686 468 190 465.314 190 462V454C190 450.686 192.686 448 196 448H318C331.255 448 342 437.255 342 424V376C342 362.745 331.255 352 318 352H196C192.686 352 190 349.314 190 346V338C190 334.686 192.686 332 196 332H318C331.255 332 342 321.255 342 308V260C342 246.745 331.255 236 318 236H196C192.686 236 190 233.314 190 230V222C190 218.686 192.686 216 196 216H318C331.255 216 342 205.255 342 192V144C342 130.745 331.255 120 318 120H196C192.686 120 190 117.314 190 114V106C190 102.686 192.686 100 196 100H318C331.255 100 342 89.2548 342 76V28C342 14.7452 331.255 4 318 4H46Z" fill="#F4F4F4" fill-opacity="0.34" shape-rendering="crispEdges"/>
</g>
<defs>
<filter id="filter0_bdii_3414_11179" x="-133" y="-151" width="632" height="1442" filterUnits="userSpaceOnUse" color-interpolation-filters="sRGB">
<feFlood flood-opacity="0" result="BackgroundImageFix"/>
<feGaussianBlur in="BackgroundImageFix" stdDeviation="77.5"/>
<feComposite in2="SourceAlpha" operator="in" result="effect1_backgroundBlur_3414_11179"/>
<feColorMatrix in="SourceAlpha" type="matrix" values="0 0 0 0 0 0 0 0 0 0 0 0 0 0 0 0 0 0 127 0" result="hardAlpha"/>
<feOffset dy="18"/>
<feGaussianBlur stdDeviation="11"/>
<feComposite in2="hardAlpha" operator="out"/>
<feColorMatrix type="matrix" values="0 0 0 0 0 0 0 0 0 0 0 0 0 0 0 0 0 0 0.05 0"/>
<feBlend mode="normal" in2="effect1_backgroundBlur_3414_11179" result="effect2_dropShadow_3414_11179"/>
<feBlend mode="normal" in="SourceGraphic" in2="effect2_dropShadow_3414_11179" result="shape"/>
<feColorMatrix in="SourceAlpha" type="matrix" values="0 0 0 0 0 0 0 0 0 0 0 0 0 0 0 0 0 0 127 0" result="hardAlpha"/>
<feOffset dy="0.76"/>
<feGaussianBlur stdDeviation="3"/>
<feComposite in2="hardAlpha" operator="arithmetic" k2="-1" k3="1"/>
<feColorMatrix type="matrix" values="0 0 0 0 1 0 0 0 0 1 0 0 0 0 1 0 0 0 0.35 0"/>
<feBlend mode="normal" in2="shape" result="effect3_innerShadow_3414_11179"/>
<feColorMatrix in="SourceAlpha" type="matrix" values="0 0 0 0 0 0 0 0 0 0 0 0 0 0 0 0 0 0 127 0" result="hardAlpha"/>
<feOffset dx="-0.76" dy="0.76"/>
<feGaussianBlur stdDeviation="0.38"/>
<feComposite in2="hardAlpha" operator="arithmetic" k2="-1" k3="1"/>
<feColorMatrix type="matrix" values="0 0 0 0 1 0 0 0 0 1 0 0 0 0 1 0 0 0 0.35 0"/>
<feBlend mode="normal" in2="effect3_innerShadow_3414_11179" result="effect4_innerShadow_3414_11179"/>
</filter>
</defs>
</svg>
