<svg viewBox="0 0 360 972" fill="none" xmlns="http://www.w3.org/2000/svg">
<g filter="url(#filter0_bdii_2063_26224)">
<path fill-rule="evenodd" clip-rule="evenodd" d="M20 28C20 14.7452 30.7452 4 44 4H316C329.255 4 340 14.7452 340 28V76C340 89.2548 329.255 100 316 100H194C190.686 100 188 102.686 188 106V114C188 117.314 190.686 120 194 120H316C329.255 120 340 130.745 340 144V192C340 205.255 329.255 216 316 216H194C190.686 216 188 218.686 188 222V230C188 233.314 190.686 236 194 236H316C329.255 236 340 246.745 340 260V308C340 321.255 329.255 332 316 332H194C190.686 332 188 334.686 188 338V346C188 349.314 190.686 352 194 352H316C329.255 352 340 362.745 340 376V424C340 437.255 329.255 448 316 448H194C190.686 448 188 450.686 188 454V462C188 465.314 190.686 468 194 468H318C331.255 468 342 478.745 342 492V540C342 553.255 331.255 564 318 564H194C190.686 564 188 566.686 188 570V578C188 581.314 190.686 584 194 584H316C329.255 584 340 594.745 340 608V683C340 696.255 329.255 707 316 707H194C190.686 707 188 709.686 188 713V721C188 724.314 190.686 727 194 727H316C329.255 727 340 737.745 340 751V826C340 839.255 329.255 850 316 850H90C86.6863 850 84 852.686 84 856V861C84 864.314 86.6863 867 90 867H186C199.255 867 210 877.745 210 891V908C210 921.255 199.255 932 186 932H44C30.7452 932 20 921.255 20 908V891C20 877.745 30.7452 867 44 867H64C67.3137 867 70 864.314 70 861V856C70 852.686 67.3137 850 64 850H44C30.7452 850 20 839.255 20 826V751C20 737.745 30.7452 727 44 727H168C171.314 727 174 724.314 174 721V713C174 709.686 171.314 707 168 707H44C30.7452 707 20 696.255 20 683V608C20 594.745 30.7452 584 44 584H168C171.314 584 174 581.314 174 578V570C174 566.686 171.314 564 168 564H46C32.7452 564 22 553.255 22 540V492C22 478.745 32.7452 468 46 468H168C171.314 468 174 465.314 174 462V454C174 450.686 171.314 448 168 448H44C30.7452 448 20 437.255 20 424V376C20 362.745 30.7452 352 44 352H168C171.314 352 174 349.314 174 346V338C174 334.686 171.314 332 168 332H44C30.7452 332 20 321.255 20 308V260C20 246.745 30.7452 236 44 236H168C171.314 236 174 233.314 174 230V222C174 218.686 171.314 216 168 216H44C30.7452 216 20 205.255 20 192V144C20 130.745 30.7452 120 44 120H168C171.314 120 174 117.314 174 114V106C174 102.686 171.314 100 168 100H44C30.7452 100 20 89.2548 20 76V28Z" fill="#F4F4F4" fill-opacity="0.34" shape-rendering="crispEdges"/>
</g>
<defs>
<filter id="filter0_bdii_2063_26224" x="-135" y="-151" width="632" height="1238" filterUnits="userSpaceOnUse" color-interpolation-filters="sRGB">
<feFlood flood-opacity="0" result="BackgroundImageFix"/>
<feGaussianBlur in="BackgroundImageFix" stdDeviation="77.5"/>
<feComposite in2="SourceAlpha" operator="in" result="effect1_backgroundBlur_2063_26224"/>
<feColorMatrix in="SourceAlpha" type="matrix" values="0 0 0 0 0 0 0 0 0 0 0 0 0 0 0 0 0 0 127 0" result="hardAlpha"/>
<feOffset dy="18"/>
<feGaussianBlur stdDeviation="11"/>
<feComposite in2="hardAlpha" operator="out"/>
<feColorMatrix type="matrix" values="0 0 0 0 0 0 0 0 0 0 0 0 0 0 0 0 0 0 0.05 0"/>
<feBlend mode="normal" in2="effect1_backgroundBlur_2063_26224" result="effect2_dropShadow_2063_26224"/>
<feBlend mode="normal" in="SourceGraphic" in2="effect2_dropShadow_2063_26224" result="shape"/>
<feColorMatrix in="SourceAlpha" type="matrix" values="0 0 0 0 0 0 0 0 0 0 0 0 0 0 0 0 0 0 127 0" result="hardAlpha"/>
<feOffset dy="0.76"/>
<feGaussianBlur stdDeviation="3"/>
<feComposite in2="hardAlpha" operator="arithmetic" k2="-1" k3="1"/>
<feColorMatrix type="matrix" values="0 0 0 0 1 0 0 0 0 1 0 0 0 0 1 0 0 0 0.35 0"/>
<feBlend mode="normal" in2="shape" result="effect3_innerShadow_2063_26224"/>
<feColorMatrix in="SourceAlpha" type="matrix" values="0 0 0 0 0 0 0 0 0 0 0 0 0 0 0 0 0 0 127 0" result="hardAlpha"/>
<feOffset dx="-0.76" dy="0.76"/>
<feGaussianBlur stdDeviation="0.38"/>
<feComposite in2="hardAlpha" operator="arithmetic" k2="-1" k3="1"/>
<feColorMatrix type="matrix" values="0 0 0 0 1 0 0 0 0 1 0 0 0 0 1 0 0 0 0.35 0"/>
<feBlend mode="normal" in2="effect3_innerShadow_2063_26224" result="effect4_innerShadow_2063_26224"/>
</filter>
</defs>
</svg>
