<svg width="48" height="48" viewBox="0 0 48 48" fill="none" xmlns="http://www.w3.org/2000/svg">
<g id="&#209;&#132;&#208;&#176;&#208;&#185;&#208;&#187;&#209;&#139;  &#208;&#191;&#208;&#190;&#208;&#180;&#208;&#191;&#208;&#184;&#209;&#129;&#208;&#181;&#208;&#185; &#208;&#180;&#208;&#190;&#208;&#186;&#209;&#131;&#208;&#188;&#208;&#181;&#208;&#189;&#209;&#130;&#208;&#176;">
<g id="Group 235">
<g id="Group 221">
<path id="Vector 215" d="M32 15H28M9 15V15C8.44772 15 8 15.4477 8 16V37.7151C8 39.5293 9.47068 41 11.2849 41V41C12.069 41 12.8273 40.7195 13.4226 40.2092L13.6046 40.0532C15.0042 38.8535 17.0492 38.7869 18.5239 39.8929L18.9333 40.2C19.6257 40.7193 20.4679 41 21.3333 41H21.6287C22.5067 41 23.3488 40.6512 23.9697 40.0303V40.0303C25.1347 38.8653 26.979 38.7343 28.2971 39.7228L30 41" stroke="black" stroke-width="3" stroke-linecap="round"/>
<path id="Vector 216" d="M8 19V12C8 9.79086 9.79086 8 12 8H21.6787C23.1141 8 24.4395 8.76914 25.1517 10.0154L28 15" stroke="black" stroke-width="3" stroke-linecap="round"/>
</g>
<path id="Vector 223" d="M41 26L36.615 30.8722C35.8613 31.7097 34.887 32.318 33.8036 32.6275L29 34L30.4327 28.9855C30.7041 28.0355 31.206 27.1673 31.8936 26.4578L41.608 16.4361C42.4978 15.5181 43.7216 15 45 15V15" stroke="black" stroke-width="3" stroke-linecap="round" stroke-linejoin="round"/>
</g>
</g>
</svg>
