<svg width="8" height="8" viewBox="0 0 8 8" fill="none" xmlns="http://www.w3.org/2000/svg">
<path d="M0 3.75C0 1.67893 1.67893 0 3.75 0C5.82107 0 7.5 1.67893 7.5 3.75C7.5 5.82107 5.82107 7.5 3.75 7.5C1.67893 7.5 0 5.82107 0 3.75Z" fill="black"/>
<path d="M1.25 3.125C1.25 1.74429 2.36929 0.625 3.75 0.625C5.13071 0.625 6.25 1.74429 6.25 3.125V4.375C6.25 5.75571 5.13071 6.875 3.75 6.875C2.36929 6.875 1.25 5.75571 1.25 4.375V3.125Z" fill="black"/>
<path fill-rule="evenodd" clip-rule="evenodd" d="M5.91554 3.125C5.48328 2.37775 4.67535 1.875 3.75 1.875C2.82465 1.875 2.01672 2.37775 1.58446 3.125C1.47256 3.31844 1.38583 3.52827 1.32876 3.75C1.38583 3.97173 1.47256 4.18156 1.58446 4.375C2.01672 5.12225 2.82465 5.625 3.75 5.625C4.67535 5.625 5.48328 5.12225 5.91554 4.375C6.02744 4.18156 6.11417 3.97173 6.17124 3.75C6.11417 3.52827 6.02744 3.31844 5.91554 3.125ZM6.25 3.125C6.25 1.74429 5.13071 0.625 3.75 0.625C2.36929 0.625 1.25 1.74429 1.25 3.125V4.375C1.25 5.75571 2.36929 6.875 3.75 6.875C5.13071 6.875 6.25 5.75571 6.25 4.375V3.125Z" fill="white"/>
</svg>
