<svg width="1397" height="94" viewBox="0 0 1397 94" fill="none" xmlns="http://www.w3.org/2000/svg">
<g filter="url(#filter0_bdii_2074_28098)">
<path fill-rule="evenodd" clip-rule="evenodd" d="M22 14C22 8.47715 26.4772 4 32 4H173C178.523 4 183 8.47715 183 14V21C183 23.7614 185.239 26 188 26C190.761 26 193 23.7614 193 21V14C193 8.47715 197.477 4 203 4H366C371.523 4 376 8.47715 376 14V21C376 23.7614 378.239 26 381 26C383.761 26 386 23.7614 386 21V14C386 8.47715 390.477 4 396 4H523C528.523 4 533 8.47715 533 14V21C533 23.7614 535.239 26 538 26C540.761 26 543 23.7614 543 21V14C543 8.47715 547.477 4 553 4H708C713.523 4 718 8.47715 718 14V21C718 23.7614 720.239 26 723 26C725.761 26 728 23.7614 728 21V14C728 8.47715 732.477 4 738 4H1168C1173.52 4 1178 8.47715 1178 14V22C1178 24.2091 1179.79 26 1182 26C1184.21 26 1186 24.2091 1186 22V14C1186 8.47715 1190.48 4 1196 4H1365C1370.52 4 1375 8.47715 1375 14V44C1375 49.5228 1370.52 54 1365 54H1196C1190.48 54 1186 49.5228 1186 44V36C1186 33.7909 1184.21 32 1182 32C1179.79 32 1178 33.7909 1178 36V44C1178 49.5228 1173.52 54 1168 54H738C732.477 54 728 49.5228 728 44V37C728 34.2386 725.761 32 723 32C720.239 32 718 34.2386 718 37V44C718 49.5228 713.523 54 708 54H553C547.477 54 543 49.5228 543 44V37C543 34.2386 540.761 32 538 32C535.239 32 533 34.2386 533 37V44C533 49.5228 528.523 54 523 54H396C390.477 54 386 49.5228 386 44V37C386 34.2386 383.761 32 381 32C378.239 32 376 34.2386 376 37V44C376 49.5228 371.523 54 366 54H203C197.477 54 193 49.5228 193 44V37C193 34.2386 190.761 32 188 32C185.239 32 183 34.2386 183 37V44C183 49.5228 178.523 54 173 54H32C26.4772 54 22 49.5228 22 44V14Z" fill="#F4F4F4" fill-opacity="0.34" shape-rendering="crispEdges"/>
</g>
<path d="M46.592 30.656L40.496 20.36L41.096 20.936L41.192 22.76V35H39.368V18.2H41.144L47.6 29.144L54.056 18.2H55.832V35H54.008V22.76L54.104 20.936L54.656 20.432L48.608 30.656H46.592ZM70.4433 35H68.5473V23H70.4433V35ZM58.2273 29C58.2273 28.056 58.3633 27.208 58.6353 26.456C58.9233 25.688 59.3073 25.032 59.7873 24.488C60.2833 23.928 60.8673 23.504 61.5393 23.216C62.2273 22.912 62.9633 22.76 63.7473 22.76C64.5313 22.76 65.2273 22.912 65.8353 23.216C66.4593 23.504 66.9793 23.928 67.3953 24.488C67.8273 25.032 68.1473 25.688 68.3553 26.456C68.5793 27.208 68.6913 28.056 68.6913 29C68.6913 29.928 68.5793 30.776 68.3553 31.544C68.1473 32.312 67.8273 32.976 67.3953 33.536C66.9793 34.08 66.4593 34.504 65.8353 34.808C65.2273 35.096 64.5313 35.24 63.7473 35.24C62.9633 35.24 62.2273 35.096 61.5393 34.808C60.8673 34.504 60.2833 34.08 59.7873 33.536C59.3073 32.976 58.9233 32.312 58.6353 31.544C58.3633 30.776 58.2273 29.928 58.2273 29ZM60.1713 29C60.1713 29.72 60.2673 30.392 60.4593 31.016C60.6673 31.624 60.9473 32.144 61.2993 32.576C61.6673 32.992 62.1073 33.32 62.6193 33.56C63.1313 33.8 63.6993 33.92 64.3233 33.92C64.9473 33.92 65.4993 33.8 65.9793 33.56C66.4753 33.32 66.8913 32.992 67.2273 32.576C67.5633 32.144 67.8113 31.624 67.9713 31.016C68.1473 30.408 68.2353 29.728 68.2353 28.976C68.2353 28.24 68.1473 27.568 67.9713 26.96C67.8113 26.352 67.5633 25.84 67.2273 25.424C66.8913 24.992 66.4753 24.656 65.9793 24.416C65.4993 24.176 64.9473 24.056 64.3233 24.056C63.6993 24.056 63.1313 24.176 62.6193 24.416C62.1073 24.656 61.6673 24.992 61.2993 25.424C60.9473 25.84 60.6673 26.352 60.4593 26.96C60.2673 27.568 60.1713 28.248 60.1713 29ZM82.7851 23V24.488H77.3371L78.2491 23.264V35H76.4251V23.312L77.3371 24.488H71.8651V23H82.7851ZM89.9846 35.24C89.0406 35.24 88.1926 35.088 87.4406 34.784C86.7046 34.48 86.0806 34.056 85.5686 33.512C85.0726 32.952 84.6886 32.296 84.4166 31.544C84.1446 30.776 84.0086 29.928 84.0086 29C84.0086 28.008 84.1526 27.128 84.4406 26.36C84.7286 25.576 85.1286 24.92 85.6406 24.392C86.1526 23.864 86.7686 23.464 87.4886 23.192C88.2246 22.904 89.0326 22.76 89.9126 22.76C90.7606 22.76 91.5206 22.896 92.1926 23.168C92.8646 23.44 93.4246 23.84 93.8726 24.368C94.3366 24.896 94.6726 25.552 94.8806 26.336C95.1046 27.12 95.1846 28.024 95.1206 29.048H85.3526L85.5446 27.776H93.3206C93.3206 27.28 93.2486 26.824 93.1046 26.408C92.9766 25.976 92.7686 25.608 92.4806 25.304C92.2086 24.984 91.8646 24.736 91.4486 24.56C91.0326 24.368 90.5366 24.272 89.9606 24.272C89.4006 24.272 88.8646 24.36 88.3526 24.536C87.8566 24.712 87.4086 24.992 87.0086 25.376C86.6246 25.744 86.3206 26.232 86.0966 26.84C85.8726 27.448 85.7606 28.184 85.7606 29.048C85.7606 29.768 85.8566 30.416 86.0486 30.992C86.2406 31.568 86.5126 32.064 86.8646 32.48C87.2166 32.88 87.6486 33.192 88.1606 33.416C88.6886 33.64 89.2726 33.752 89.9126 33.752C90.6326 33.752 91.2886 33.648 91.8806 33.44C92.4726 33.232 92.9766 32.92 93.3926 32.504L94.7846 33.416C94.2566 34.024 93.5686 34.48 92.7206 34.784C91.8886 35.088 90.9766 35.24 89.9846 35.24ZM97.5633 38.672V23H99.4353V38.672H97.5633ZM109.755 29C109.755 29.928 109.611 30.776 109.323 31.544C109.051 32.312 108.667 32.976 108.171 33.536C107.691 34.08 107.115 34.504 106.443 34.808C105.771 35.096 105.035 35.24 104.235 35.24C103.451 35.24 102.747 35.096 102.123 34.808C101.515 34.504 101.003 34.08 100.587 33.536C100.171 32.976 99.8513 32.312 99.6273 31.544C99.4033 30.776 99.2913 29.928 99.2913 29C99.2913 28.056 99.4033 27.208 99.6273 26.456C99.8513 25.688 100.171 25.032 100.587 24.488C101.003 23.928 101.515 23.504 102.123 23.216C102.747 22.912 103.451 22.76 104.235 22.76C105.035 22.76 105.771 22.912 106.443 23.216C107.115 23.504 107.691 23.928 108.171 24.488C108.667 25.032 109.051 25.688 109.323 26.456C109.611 27.208 109.755 28.056 109.755 29ZM107.835 28.976C107.835 28.24 107.731 27.568 107.523 26.96C107.331 26.352 107.051 25.84 106.683 25.424C106.315 24.992 105.875 24.656 105.363 24.416C104.851 24.176 104.283 24.056 103.659 24.056C103.035 24.056 102.483 24.176 102.003 24.416C101.523 24.656 101.115 24.992 100.779 25.424C100.443 25.84 100.187 26.352 100.011 26.96C99.8353 27.568 99.7473 28.248 99.7473 29C99.7473 29.72 99.8353 30.392 100.011 31.016C100.187 31.624 100.443 32.144 100.779 32.576C101.115 32.992 101.523 33.32 102.003 33.56C102.483 33.8 103.035 33.92 103.659 33.92C104.283 33.92 104.851 33.8 105.363 33.56C105.875 33.32 106.315 32.992 106.683 32.576C107.051 32.144 107.331 31.624 107.523 31.016C107.731 30.408 107.835 29.728 107.835 28.976ZM123.135 35H121.239V24.032L115.023 35H112.095V23H113.991V33.968L120.159 23H123.135V35ZM137.756 35H135.86V23H137.756V35ZM125.54 29C125.54 28.056 125.676 27.208 125.948 26.456C126.236 25.688 126.62 25.032 127.1 24.488C127.596 23.928 128.18 23.504 128.852 23.216C129.54 22.912 130.276 22.76 131.06 22.76C131.844 22.76 132.54 22.912 133.148 23.216C133.772 23.504 134.292 23.928 134.708 24.488C135.14 25.032 135.46 25.688 135.668 26.456C135.892 27.208 136.004 28.056 136.004 29C136.004 29.928 135.892 30.776 135.668 31.544C135.46 32.312 135.14 32.976 134.708 33.536C134.292 34.08 133.772 34.504 133.148 34.808C132.54 35.096 131.844 35.24 131.06 35.24C130.276 35.24 129.54 35.096 128.852 34.808C128.18 34.504 127.596 34.08 127.1 33.536C126.62 32.976 126.236 32.312 125.948 31.544C125.676 30.776 125.54 29.928 125.54 29ZM127.484 29C127.484 29.72 127.58 30.392 127.772 31.016C127.98 31.624 128.26 32.144 128.612 32.576C128.98 32.992 129.42 33.32 129.932 33.56C130.444 33.8 131.012 33.92 131.636 33.92C132.26 33.92 132.812 33.8 133.292 33.56C133.788 33.32 134.204 32.992 134.54 32.576C134.876 32.144 135.124 31.624 135.284 31.016C135.46 30.408 135.548 29.728 135.548 28.976C135.548 28.24 135.46 27.568 135.284 26.96C135.124 26.352 134.876 25.84 134.54 25.424C134.204 24.992 133.788 24.656 133.292 24.416C132.812 24.176 132.26 24.056 131.636 24.056C131.012 24.056 130.444 24.176 129.932 24.416C129.42 24.656 128.98 24.992 128.612 25.424C128.26 25.84 127.98 26.352 127.772 26.96C127.58 27.568 127.484 28.248 127.484 29ZM139.99 35L144.934 23H146.806L152.109 35H150.022L145.03 23.384H146.782L141.982 35H139.99ZM158.224 27.536C160.032 27.552 161.4 27.872 162.328 28.496C163.272 29.12 163.744 30.016 163.744 31.184C163.744 32.368 163.256 33.304 162.28 33.992C161.32 34.664 159.968 35 158.224 35H155.92L154.744 33.656H158.032C159.264 33.656 160.192 33.448 160.816 33.032C161.44 32.6 161.752 31.968 161.752 31.136C161.752 30.304 161.448 29.704 160.84 29.336C160.248 28.952 159.312 28.76 158.032 28.76H155.152V27.536H158.224ZM154.048 23H155.92V35H154.048V23ZM165.136 23H166.912V35H165.136V23Z" fill="black"/>
<path d="M226.728 33.704C226.136 34.2 225.432 34.584 224.616 34.856C223.8 35.112 222.904 35.24 221.928 35.24C220.776 35.24 219.712 35.04 218.736 34.64C217.776 34.224 216.944 33.64 216.24 32.888C215.536 32.136 214.992 31.232 214.608 30.176C214.224 29.104 214.032 27.912 214.032 26.6C214.032 25.288 214.224 24.104 214.608 23.048C214.992 21.976 215.536 21.064 216.24 20.312C216.944 19.56 217.776 18.984 218.736 18.584C219.712 18.168 220.776 17.96 221.928 17.96C222.904 17.96 223.8 18.096 224.616 18.368C225.432 18.624 226.136 19 226.728 19.496L225.384 20.6C224.968 20.28 224.48 20.016 223.92 19.808C223.36 19.6 222.696 19.496 221.928 19.496C221.064 19.496 220.264 19.68 219.528 20.048C218.808 20.4 218.184 20.888 217.656 21.512C217.128 22.136 216.712 22.888 216.408 23.768C216.12 24.632 215.976 25.576 215.976 26.6C215.976 27.624 216.12 28.576 216.408 29.456C216.712 30.32 217.128 31.064 217.656 31.688C218.184 32.312 218.808 32.808 219.528 33.176C220.264 33.528 221.064 33.704 221.928 33.704C222.696 33.704 223.36 33.6 223.92 33.392C224.48 33.184 224.968 32.92 225.384 32.6L226.728 33.704ZM228.923 35V23H239.675L239.267 24.68H229.259L230.795 23.264V35H228.923ZM237.779 23.24L239.675 23V35H237.779V23.24ZM248.016 35.24C247.072 35.24 246.224 35.088 245.472 34.784C244.736 34.48 244.112 34.056 243.6 33.512C243.104 32.952 242.72 32.296 242.448 31.544C242.176 30.776 242.04 29.928 242.04 29C242.04 28.008 242.184 27.128 242.472 26.36C242.76 25.576 243.16 24.92 243.672 24.392C244.184 23.864 244.8 23.464 245.52 23.192C246.256 22.904 247.064 22.76 247.944 22.76C248.792 22.76 249.552 22.896 250.224 23.168C250.896 23.44 251.456 23.84 251.904 24.368C252.368 24.896 252.704 25.552 252.912 26.336C253.136 27.12 253.216 28.024 253.152 29.048H243.384L243.576 27.776H251.352C251.352 27.28 251.28 26.824 251.136 26.408C251.008 25.976 250.8 25.608 250.512 25.304C250.24 24.984 249.896 24.736 249.48 24.56C249.064 24.368 248.568 24.272 247.992 24.272C247.432 24.272 246.896 24.36 246.384 24.536C245.888 24.712 245.44 24.992 245.04 25.376C244.656 25.744 244.352 26.232 244.128 26.84C243.904 27.448 243.792 28.184 243.792 29.048C243.792 29.768 243.888 30.416 244.08 30.992C244.272 31.568 244.544 32.064 244.896 32.48C245.248 32.88 245.68 33.192 246.192 33.416C246.72 33.64 247.304 33.752 247.944 33.752C248.664 33.752 249.32 33.648 249.912 33.44C250.504 33.232 251.008 32.92 251.424 32.504L252.816 33.416C252.288 34.024 251.6 34.48 250.752 34.784C249.92 35.088 249.008 35.24 248.016 35.24ZM267.907 33.512V35H255.595L256.075 33.512H267.907ZM267.907 35V37.76H266.203V34.784L267.907 35ZM255.595 35V23H257.467V34.328L255.595 35ZM264.043 34.448V23H265.939V34.328L264.043 34.448ZM268.946 29C268.946 28.056 269.082 27.208 269.354 26.456C269.626 25.688 270.018 25.032 270.53 24.488C271.042 23.928 271.666 23.504 272.402 23.216C273.154 22.912 273.994 22.76 274.922 22.76C275.85 22.76 276.682 22.912 277.418 23.216C278.154 23.504 278.77 23.928 279.266 24.488C279.778 25.032 280.17 25.688 280.442 26.456C280.714 27.208 280.85 28.056 280.85 29C280.85 29.928 280.714 30.776 280.442 31.544C280.17 32.312 279.778 32.976 279.266 33.536C278.77 34.08 278.154 34.504 277.418 34.808C276.682 35.096 275.85 35.24 274.922 35.24C273.994 35.24 273.154 35.096 272.402 34.808C271.666 34.504 271.042 34.08 270.53 33.536C270.018 32.976 269.626 32.312 269.354 31.544C269.082 30.776 268.946 29.928 268.946 29ZM270.842 29C270.842 29.736 270.93 30.4 271.106 30.992C271.298 31.584 271.562 32.088 271.898 32.504C272.25 32.92 272.666 33.24 273.146 33.464C273.642 33.688 274.202 33.8 274.826 33.8C275.45 33.8 276.01 33.688 276.506 33.464C277.018 33.24 277.45 32.92 277.802 32.504C278.17 32.088 278.45 31.584 278.642 30.992C278.85 30.4 278.954 29.736 278.954 29C278.954 27.544 278.602 26.392 277.898 25.544C277.21 24.696 276.25 24.272 275.018 24.272C274.394 24.272 273.818 24.384 273.29 24.608C272.778 24.816 272.338 25.128 271.97 25.544C271.618 25.944 271.338 26.44 271.13 27.032C270.938 27.624 270.842 28.28 270.842 29ZM283.19 34.808L287.99 23H289.862L295.022 34.76H293.054L288.206 23.384H289.718L285.038 34.808H283.19ZM296.174 33.512V35H282.086V33.512H296.174ZM282.086 35L283.79 34.784V37.76H282.086V35ZM296.174 35V37.76H294.47V34.784L296.174 35ZM302.649 35.24C301.705 35.24 300.857 35.088 300.105 34.784C299.369 34.48 298.745 34.056 298.233 33.512C297.737 32.952 297.353 32.296 297.081 31.544C296.809 30.776 296.673 29.928 296.673 29C296.673 28.008 296.817 27.128 297.105 26.36C297.393 25.576 297.793 24.92 298.305 24.392C298.817 23.864 299.433 23.464 300.153 23.192C300.889 22.904 301.697 22.76 302.577 22.76C303.425 22.76 304.185 22.896 304.857 23.168C305.529 23.44 306.089 23.84 306.537 24.368C307.001 24.896 307.337 25.552 307.545 26.336C307.769 27.12 307.849 28.024 307.785 29.048H298.017L298.209 27.776H305.985C305.985 27.28 305.913 26.824 305.769 26.408C305.641 25.976 305.433 25.608 305.145 25.304C304.873 24.984 304.529 24.736 304.113 24.56C303.697 24.368 303.201 24.272 302.625 24.272C302.065 24.272 301.529 24.36 301.017 24.536C300.521 24.712 300.073 24.992 299.673 25.376C299.289 25.744 298.985 26.232 298.761 26.84C298.537 27.448 298.425 28.184 298.425 29.048C298.425 29.768 298.521 30.416 298.713 30.992C298.905 31.568 299.177 32.064 299.529 32.48C299.881 32.88 300.313 33.192 300.825 33.416C301.353 33.64 301.937 33.752 302.577 33.752C303.297 33.752 303.953 33.648 304.545 33.44C305.137 33.232 305.641 32.92 306.057 32.504L307.449 33.416C306.921 34.024 306.233 34.48 305.385 34.784C304.553 35.088 303.641 35.24 302.649 35.24ZM316.181 23H317.885V35H316.181V23ZM322.781 23H324.869L320.261 28.4L325.421 35H323.189L318.389 28.52L322.781 23ZM311.309 23L315.701 28.52L310.877 35H308.669L313.829 28.4L309.221 23H311.309ZM328.096 34.808L332.896 23H334.768L339.928 34.76H337.96L333.112 23.384H334.624L329.944 34.808H328.096ZM341.08 33.512V35H326.992V33.512H341.08ZM326.992 35L328.696 34.784V37.76H326.992V35ZM341.08 35V37.76H339.376V34.784L341.08 35ZM354.521 35H352.625V23H354.521V35ZM342.305 29C342.305 28.056 342.441 27.208 342.713 26.456C343.001 25.688 343.385 25.032 343.865 24.488C344.361 23.928 344.945 23.504 345.617 23.216C346.305 22.912 347.041 22.76 347.825 22.76C348.609 22.76 349.305 22.912 349.913 23.216C350.537 23.504 351.057 23.928 351.473 24.488C351.905 25.032 352.225 25.688 352.433 26.456C352.657 27.208 352.769 28.056 352.769 29C352.769 29.928 352.657 30.776 352.433 31.544C352.225 32.312 351.905 32.976 351.473 33.536C351.057 34.08 350.537 34.504 349.913 34.808C349.305 35.096 348.609 35.24 347.825 35.24C347.041 35.24 346.305 35.096 345.617 34.808C344.945 34.504 344.361 34.08 343.865 33.536C343.385 32.976 343.001 32.312 342.713 31.544C342.441 30.776 342.305 29.928 342.305 29ZM344.249 29C344.249 29.72 344.345 30.392 344.537 31.016C344.745 31.624 345.025 32.144 345.377 32.576C345.745 32.992 346.185 33.32 346.697 33.56C347.209 33.8 347.777 33.92 348.401 33.92C349.025 33.92 349.577 33.8 350.057 33.56C350.553 33.32 350.969 32.992 351.305 32.576C351.641 32.144 351.889 31.624 352.049 31.016C352.225 30.408 352.313 29.728 352.313 28.976C352.313 28.24 352.225 27.568 352.049 26.96C351.889 26.352 351.641 25.84 351.305 25.424C350.969 24.992 350.553 24.656 350.057 24.416C349.577 24.176 349.025 24.056 348.401 24.056C347.777 24.056 347.209 24.176 346.697 24.416C346.185 24.656 345.745 24.992 345.377 25.424C345.025 25.84 344.745 26.352 344.537 26.96C344.345 27.568 344.249 28.248 344.249 29Z" fill="black"/>
<path d="M415.072 18.2V19.688H407.824L408.736 18.464V35H406.912V18.512L407.824 19.688H400.552V18.2H415.072ZM413.157 38.672V23H415.029V38.672H413.157ZM425.349 29C425.349 29.928 425.205 30.776 424.917 31.544C424.645 32.312 424.261 32.976 423.765 33.536C423.285 34.08 422.709 34.504 422.037 34.808C421.365 35.096 420.629 35.24 419.829 35.24C419.045 35.24 418.341 35.096 417.717 34.808C417.109 34.504 416.597 34.08 416.181 33.536C415.765 32.976 415.445 32.312 415.221 31.544C414.997 30.776 414.885 29.928 414.885 29C414.885 28.056 414.997 27.208 415.221 26.456C415.445 25.688 415.765 25.032 416.181 24.488C416.597 23.928 417.109 23.504 417.717 23.216C418.341 22.912 419.045 22.76 419.829 22.76C420.629 22.76 421.365 22.912 422.037 23.216C422.709 23.504 423.285 23.928 423.765 24.488C424.261 25.032 424.645 25.688 424.917 26.456C425.205 27.208 425.349 28.056 425.349 29ZM423.429 28.976C423.429 28.24 423.325 27.568 423.117 26.96C422.925 26.352 422.645 25.84 422.277 25.424C421.909 24.992 421.469 24.656 420.957 24.416C420.445 24.176 419.877 24.056 419.253 24.056C418.629 24.056 418.077 24.176 417.597 24.416C417.117 24.656 416.709 24.992 416.373 25.424C416.037 25.84 415.781 26.352 415.605 26.96C415.429 27.568 415.341 28.248 415.341 29C415.341 29.72 415.429 30.392 415.605 31.016C415.781 31.624 416.037 32.144 416.373 32.576C416.709 32.992 417.117 33.32 417.597 33.56C418.077 33.8 418.629 33.92 419.253 33.92C419.877 33.92 420.445 33.8 420.957 33.56C421.469 33.32 421.909 32.992 422.277 32.576C422.645 32.144 422.925 31.624 423.117 31.016C423.325 30.408 423.429 29.728 423.429 28.976ZM439.568 35H437.672V23H439.568V35ZM427.352 29C427.352 28.056 427.488 27.208 427.76 26.456C428.048 25.688 428.432 25.032 428.912 24.488C429.408 23.928 429.992 23.504 430.664 23.216C431.352 22.912 432.088 22.76 432.872 22.76C433.656 22.76 434.352 22.912 434.96 23.216C435.584 23.504 436.104 23.928 436.52 24.488C436.952 25.032 437.272 25.688 437.48 26.456C437.704 27.208 437.816 28.056 437.816 29C437.816 29.928 437.704 30.776 437.48 31.544C437.272 32.312 436.952 32.976 436.52 33.536C436.104 34.08 435.584 34.504 434.96 34.808C434.352 35.096 433.656 35.24 432.872 35.24C432.088 35.24 431.352 35.096 430.664 34.808C429.992 34.504 429.408 34.08 428.912 33.536C428.432 32.976 428.048 32.312 427.76 31.544C427.488 30.776 427.352 29.928 427.352 29ZM429.296 29C429.296 29.72 429.392 30.392 429.584 31.016C429.792 31.624 430.072 32.144 430.424 32.576C430.792 32.992 431.232 33.32 431.744 33.56C432.256 33.8 432.824 33.92 433.448 33.92C434.072 33.92 434.624 33.8 435.104 33.56C435.6 33.32 436.016 32.992 436.352 32.576C436.688 32.144 436.936 31.624 437.096 31.016C437.272 30.408 437.36 29.728 437.36 28.976C437.36 28.24 437.272 27.568 437.096 26.96C436.936 26.352 436.688 25.84 436.352 25.424C436.016 24.992 435.6 24.656 435.104 24.416C434.624 24.176 434.072 24.056 433.448 24.056C432.824 24.056 432.256 24.176 431.744 24.416C431.232 24.656 430.792 24.992 430.424 25.424C430.072 25.84 429.792 26.352 429.584 26.96C429.392 27.568 429.296 28.248 429.296 29ZM451.242 23H453.114V35H451.242V23ZM442.29 23H444.162V35H442.29V23ZM442.89 28.928V27.536H452.01V28.928H442.89ZM465.604 33.632C465.108 34.128 464.516 34.52 463.828 34.808C463.14 35.096 462.348 35.24 461.452 35.24C460.524 35.24 459.692 35.096 458.956 34.808C458.22 34.504 457.596 34.08 457.084 33.536C456.572 32.976 456.18 32.312 455.908 31.544C455.652 30.776 455.524 29.928 455.524 29C455.524 28.056 455.652 27.208 455.908 26.456C456.18 25.688 456.572 25.032 457.084 24.488C457.596 23.928 458.22 23.504 458.956 23.216C459.692 22.912 460.524 22.76 461.452 22.76C462.348 22.76 463.132 22.896 463.804 23.168C464.492 23.44 465.084 23.824 465.58 24.32L464.212 25.28C463.78 24.944 463.364 24.696 462.964 24.536C462.58 24.36 462.108 24.272 461.548 24.272C460.924 24.272 460.356 24.384 459.844 24.608C459.332 24.816 458.9 25.128 458.548 25.544C458.196 25.944 457.916 26.44 457.708 27.032C457.516 27.608 457.42 28.264 457.42 29C457.42 30.456 457.764 31.624 458.452 32.504C459.14 33.368 460.108 33.8 461.356 33.8C461.948 33.8 462.468 33.696 462.916 33.488C463.38 33.28 463.828 33 464.26 32.648L465.604 33.632ZM467.766 35V23H478.518L478.11 24.68H468.102L469.638 23.264V35H467.766ZM476.622 23.24L478.518 23V35H476.622V23.24ZM480.884 29C480.884 28.056 481.02 27.208 481.292 26.456C481.564 25.688 481.956 25.032 482.468 24.488C482.98 23.928 483.604 23.504 484.34 23.216C485.092 22.912 485.932 22.76 486.86 22.76C487.788 22.76 488.62 22.912 489.356 23.216C490.092 23.504 490.708 23.928 491.204 24.488C491.716 25.032 492.108 25.688 492.38 26.456C492.652 27.208 492.788 28.056 492.788 29C492.788 29.928 492.652 30.776 492.38 31.544C492.108 32.312 491.716 32.976 491.204 33.536C490.708 34.08 490.092 34.504 489.356 34.808C488.62 35.096 487.788 35.24 486.86 35.24C485.932 35.24 485.092 35.096 484.34 34.808C483.604 34.504 482.98 34.08 482.468 33.536C481.956 32.976 481.564 32.312 481.292 31.544C481.02 30.776 480.884 29.928 480.884 29ZM482.78 29C482.78 29.736 482.868 30.4 483.044 30.992C483.236 31.584 483.5 32.088 483.836 32.504C484.188 32.92 484.604 33.24 485.084 33.464C485.58 33.688 486.14 33.8 486.764 33.8C487.388 33.8 487.948 33.688 488.444 33.464C488.956 33.24 489.388 32.92 489.74 32.504C490.108 32.088 490.388 31.584 490.58 30.992C490.788 30.4 490.892 29.736 490.892 29C490.892 27.544 490.54 26.392 489.836 25.544C489.148 24.696 488.188 24.272 486.956 24.272C486.332 24.272 485.756 24.384 485.228 24.608C484.716 24.816 484.276 25.128 483.908 25.544C483.556 25.944 483.276 26.44 483.068 27.032C482.876 27.624 482.78 28.28 482.78 29ZM495.188 38.672V23H497.06V38.672H495.188ZM507.38 29C507.38 29.928 507.236 30.776 506.948 31.544C506.676 32.312 506.292 32.976 505.796 33.536C505.316 34.08 504.74 34.504 504.068 34.808C503.396 35.096 502.66 35.24 501.86 35.24C501.076 35.24 500.372 35.096 499.748 34.808C499.14 34.504 498.628 34.08 498.212 33.536C497.796 32.976 497.476 32.312 497.252 31.544C497.028 30.776 496.916 29.928 496.916 29C496.916 28.056 497.028 27.208 497.252 26.456C497.476 25.688 497.796 25.032 498.212 24.488C498.628 23.928 499.14 23.504 499.748 23.216C500.372 22.912 501.076 22.76 501.86 22.76C502.66 22.76 503.396 22.912 504.068 23.216C504.74 23.504 505.316 23.928 505.796 24.488C506.292 25.032 506.676 25.688 506.948 26.456C507.236 27.208 507.38 28.056 507.38 29ZM505.46 28.976C505.46 28.24 505.356 27.568 505.148 26.96C504.956 26.352 504.676 25.84 504.308 25.424C503.94 24.992 503.5 24.656 502.988 24.416C502.476 24.176 501.908 24.056 501.284 24.056C500.66 24.056 500.108 24.176 499.628 24.416C499.148 24.656 498.74 24.992 498.404 25.424C498.068 25.84 497.812 26.352 497.636 26.96C497.46 27.568 497.372 28.248 497.372 29C497.372 29.72 497.46 30.392 497.636 31.016C497.812 31.624 498.068 32.144 498.404 32.576C498.74 32.992 499.148 33.32 499.628 33.56C500.108 33.8 500.66 33.92 501.284 33.92C501.908 33.92 502.476 33.8 502.988 33.56C503.5 33.32 503.94 32.992 504.308 32.576C504.676 32.144 504.956 31.624 505.148 31.016C505.356 30.408 505.46 29.728 505.46 28.976ZM519.457 23V24.488H514.009L514.921 23.264V35H513.097V23.312L514.009 24.488H508.537V23H519.457Z" fill="black"/>
<path d="M566.056 26.6C566.056 25.224 566.24 24 566.608 22.928C566.992 21.856 567.52 20.952 568.192 20.216C568.864 19.48 569.68 18.92 570.64 18.536C571.6 18.152 572.656 17.96 573.808 17.96C574.96 17.96 576 18.152 576.928 18.536C577.872 18.92 578.68 19.48 579.352 20.216C580.04 20.952 580.568 21.856 580.936 22.928C581.32 24 581.512 25.224 581.512 26.6C581.512 27.976 581.32 29.2 580.936 30.272C580.568 31.344 580.04 32.248 579.352 32.984C578.68 33.72 577.872 34.28 576.928 34.664C576 35.048 574.96 35.24 573.808 35.24C572.656 35.24 571.6 35.048 570.64 34.664C569.68 34.28 568.864 33.72 568.192 32.984C567.52 32.248 566.992 31.344 566.608 30.272C566.24 29.2 566.056 27.976 566.056 26.6ZM568 26.6C568 27.688 568.136 28.672 568.408 29.552C568.696 30.432 569.096 31.176 569.608 31.784C570.12 32.392 570.728 32.864 571.432 33.2C572.152 33.536 572.944 33.704 573.808 33.704C574.672 33.704 575.456 33.536 576.16 33.2C576.864 32.864 577.464 32.392 577.96 31.784C578.472 31.176 578.872 30.432 579.16 29.552C579.448 28.672 579.592 27.688 579.592 26.6C579.592 25.496 579.448 24.512 579.16 23.648C578.872 22.768 578.472 22.024 577.96 21.416C577.464 20.792 576.864 20.32 576.16 20C575.456 19.664 574.672 19.496 573.808 19.496C572.944 19.496 572.152 19.664 571.432 20C570.728 20.32 570.12 20.792 569.608 21.416C569.096 22.024 568.696 22.768 568.408 23.648C568.136 24.512 568 25.496 568 26.6ZM583.923 38.672V23H585.795V38.672H583.923ZM596.115 29C596.115 29.928 595.971 30.776 595.683 31.544C595.411 32.312 595.027 32.976 594.531 33.536C594.051 34.08 593.475 34.504 592.803 34.808C592.131 35.096 591.395 35.24 590.595 35.24C589.811 35.24 589.107 35.096 588.483 34.808C587.875 34.504 587.363 34.08 586.947 33.536C586.531 32.976 586.211 32.312 585.987 31.544C585.763 30.776 585.651 29.928 585.651 29C585.651 28.056 585.763 27.208 585.987 26.456C586.211 25.688 586.531 25.032 586.947 24.488C587.363 23.928 587.875 23.504 588.483 23.216C589.107 22.912 589.811 22.76 590.595 22.76C591.395 22.76 592.131 22.912 592.803 23.216C593.475 23.504 594.051 23.928 594.531 24.488C595.027 25.032 595.411 25.688 595.683 26.456C595.971 27.208 596.115 28.056 596.115 29ZM594.195 28.976C594.195 28.24 594.091 27.568 593.883 26.96C593.691 26.352 593.411 25.84 593.043 25.424C592.675 24.992 592.235 24.656 591.723 24.416C591.211 24.176 590.643 24.056 590.019 24.056C589.395 24.056 588.843 24.176 588.363 24.416C587.883 24.656 587.475 24.992 587.139 25.424C586.803 25.84 586.547 26.352 586.371 26.96C586.195 27.568 586.107 28.248 586.107 29C586.107 29.72 586.195 30.392 586.371 31.016C586.547 31.624 586.803 32.144 587.139 32.576C587.475 32.992 587.883 33.32 588.363 33.56C588.843 33.8 589.395 33.92 590.019 33.92C590.643 33.92 591.211 33.8 591.723 33.56C592.235 33.32 592.675 32.992 593.043 32.576C593.411 32.144 593.691 31.624 593.883 31.016C594.091 30.408 594.195 29.728 594.195 28.976ZM598.454 35V23H607.022V24.68H598.79L600.326 23.264V35H598.454ZM619.465 23V24.488H614.017L614.929 23.264V35H613.105V23.312L614.017 24.488H608.545V23H619.465ZM626.664 35.24C625.72 35.24 624.872 35.088 624.12 34.784C623.384 34.48 622.76 34.056 622.248 33.512C621.752 32.952 621.368 32.296 621.096 31.544C620.824 30.776 620.688 29.928 620.688 29C620.688 28.008 620.832 27.128 621.12 26.36C621.408 25.576 621.808 24.92 622.32 24.392C622.832 23.864 623.448 23.464 624.168 23.192C624.904 22.904 625.712 22.76 626.592 22.76C627.44 22.76 628.2 22.896 628.872 23.168C629.544 23.44 630.104 23.84 630.552 24.368C631.016 24.896 631.352 25.552 631.56 26.336C631.784 27.12 631.864 28.024 631.8 29.048H622.032L622.224 27.776H630C630 27.28 629.928 26.824 629.784 26.408C629.656 25.976 629.448 25.608 629.16 25.304C628.888 24.984 628.544 24.736 628.128 24.56C627.712 24.368 627.216 24.272 626.64 24.272C626.08 24.272 625.544 24.36 625.032 24.536C624.536 24.712 624.088 24.992 623.688 25.376C623.304 25.744 623 26.232 622.776 26.84C622.552 27.448 622.44 28.184 622.44 29.048C622.44 29.768 622.536 30.416 622.728 30.992C622.92 31.568 623.192 32.064 623.544 32.48C623.896 32.88 624.328 33.192 624.84 33.416C625.368 33.64 625.952 33.752 626.592 33.752C627.312 33.752 627.968 33.648 628.56 33.44C629.152 33.232 629.656 32.92 630.072 32.504L631.464 33.416C630.936 34.024 630.248 34.48 629.4 34.784C628.568 35.088 627.656 35.24 626.664 35.24ZM632.682 35L637.698 28.568L638.034 28.424L642.306 23H644.25L639.546 29L639.282 29.048L634.674 35H632.682ZM633.162 23H635.322L644.514 35H642.258L633.162 23ZM655.57 23H657.442V35H655.57V23ZM646.618 23H648.49V35H646.618V23ZM647.218 28.928V27.536H656.338V28.928H647.218ZM671.228 35H669.332V24.032L663.116 35H660.188V23H662.084V33.968L668.252 23H671.228V35ZM673.97 23H675.842V35H673.97V23ZM681.746 23H683.882L678.77 28.4L684.434 35H682.13L676.658 28.52L681.746 23ZM697.779 35H695.883V23H697.779V35ZM685.563 29C685.563 28.056 685.699 27.208 685.971 26.456C686.259 25.688 686.643 25.032 687.123 24.488C687.619 23.928 688.203 23.504 688.875 23.216C689.563 22.912 690.299 22.76 691.083 22.76C691.867 22.76 692.563 22.912 693.171 23.216C693.795 23.504 694.315 23.928 694.731 24.488C695.163 25.032 695.483 25.688 695.691 26.456C695.915 27.208 696.027 28.056 696.027 29C696.027 29.928 695.915 30.776 695.691 31.544C695.483 32.312 695.163 32.976 694.731 33.536C694.315 34.08 693.795 34.504 693.171 34.808C692.563 35.096 691.867 35.24 691.083 35.24C690.299 35.24 689.563 35.096 688.875 34.808C688.203 34.504 687.619 34.08 687.123 33.536C686.643 32.976 686.259 32.312 685.971 31.544C685.699 30.776 685.563 29.928 685.563 29ZM687.507 29C687.507 29.72 687.603 30.392 687.795 31.016C688.003 31.624 688.283 32.144 688.635 32.576C689.003 32.992 689.443 33.32 689.955 33.56C690.467 33.8 691.035 33.92 691.659 33.92C692.283 33.92 692.835 33.8 693.315 33.56C693.811 33.32 694.227 32.992 694.563 32.576C694.899 32.144 695.147 31.624 695.307 31.016C695.483 30.408 695.571 29.728 695.571 28.976C695.571 28.24 695.483 27.568 695.307 26.96C695.147 26.352 694.899 25.84 694.563 25.424C694.227 24.992 693.811 24.656 693.315 24.416C692.835 24.176 692.283 24.056 691.659 24.056C691.035 24.056 690.467 24.176 689.955 24.416C689.443 24.656 689.003 24.992 688.635 25.424C688.283 25.84 688.003 26.352 687.795 26.96C687.603 27.568 687.507 28.248 687.507 29Z" fill="black"/>
<path d="M751.272 25.952C751.752 25.952 752.272 25.968 752.832 26C753.408 26.032 753.976 26.104 754.536 26.216C755.112 26.312 755.664 26.464 756.192 26.672C756.72 26.88 757.184 27.152 757.584 27.488C758 27.808 758.328 28.208 758.568 28.688C758.824 29.168 758.952 29.736 758.952 30.392C758.952 31.416 758.704 32.232 758.208 32.84C757.728 33.432 757.104 33.896 756.336 34.232C755.568 34.552 754.712 34.76 753.768 34.856C752.824 34.952 751.896 35 750.984 35H747.24L746.352 33.608H750.696C751.56 33.608 752.368 33.584 753.12 33.536C753.872 33.488 754.528 33.36 755.088 33.152C755.664 32.928 756.112 32.608 756.432 32.192C756.752 31.76 756.912 31.168 756.912 30.416C756.912 29.68 756.752 29.08 756.432 28.616C756.112 28.152 755.664 27.792 755.088 27.536C754.528 27.264 753.872 27.08 753.12 26.984C752.368 26.872 751.56 26.816 750.696 26.816H750.072V25.328H750.312C751.032 25.328 751.728 25.304 752.4 25.256C753.072 25.192 753.664 25.064 754.176 24.872C754.704 24.664 755.128 24.368 755.448 23.984C755.768 23.6 755.928 23.08 755.928 22.424C755.928 21.736 755.768 21.208 755.448 20.84C755.128 20.456 754.68 20.168 754.104 19.976C753.544 19.784 752.888 19.672 752.136 19.64C751.384 19.608 750.576 19.592 749.712 19.592H746.352L747.24 18.464V35H745.368V18.2H750C750.912 18.2 751.84 18.24 752.784 18.32C753.728 18.4 754.584 18.592 755.352 18.896C756.12 19.184 756.744 19.608 757.224 20.168C757.72 20.728 757.968 21.488 757.968 22.448C757.968 23.36 757.752 24.056 757.32 24.536C756.888 25 756.344 25.336 755.688 25.544C755.032 25.752 754.312 25.872 753.528 25.904C752.744 25.936 751.992 25.952 751.272 25.952ZM761.352 38.672V23H763.224V38.672H761.352ZM773.544 29C773.544 29.928 773.4 30.776 773.112 31.544C772.84 32.312 772.456 32.976 771.96 33.536C771.48 34.08 770.904 34.504 770.232 34.808C769.56 35.096 768.824 35.24 768.024 35.24C767.24 35.24 766.536 35.096 765.912 34.808C765.304 34.504 764.792 34.08 764.376 33.536C763.96 32.976 763.64 32.312 763.416 31.544C763.192 30.776 763.08 29.928 763.08 29C763.08 28.056 763.192 27.208 763.416 26.456C763.64 25.688 763.96 25.032 764.376 24.488C764.792 23.928 765.304 23.504 765.912 23.216C766.536 22.912 767.24 22.76 768.024 22.76C768.824 22.76 769.56 22.912 770.232 23.216C770.904 23.504 771.48 23.928 771.96 24.488C772.456 25.032 772.84 25.688 773.112 26.456C773.4 27.208 773.544 28.056 773.544 29ZM771.624 28.976C771.624 28.24 771.52 27.568 771.312 26.96C771.12 26.352 770.84 25.84 770.472 25.424C770.104 24.992 769.664 24.656 769.152 24.416C768.64 24.176 768.072 24.056 767.448 24.056C766.824 24.056 766.272 24.176 765.792 24.416C765.312 24.656 764.904 24.992 764.568 25.424C764.232 25.84 763.976 26.352 763.8 26.96C763.624 27.568 763.536 28.248 763.536 29C763.536 29.72 763.624 30.392 763.8 31.016C763.976 31.624 764.232 32.144 764.568 32.576C764.904 32.992 765.312 33.32 765.792 33.56C766.272 33.8 766.824 33.92 767.448 33.92C768.072 33.92 768.64 33.8 769.152 33.56C769.664 33.32 770.104 32.992 770.472 32.576C770.84 32.144 771.12 31.624 771.312 31.016C771.52 30.408 771.624 29.728 771.624 28.976ZM781.524 35.24C780.58 35.24 779.732 35.088 778.98 34.784C778.244 34.48 777.62 34.056 777.108 33.512C776.612 32.952 776.228 32.296 775.956 31.544C775.684 30.776 775.548 29.928 775.548 29C775.548 28.008 775.692 27.128 775.98 26.36C776.268 25.576 776.668 24.92 777.18 24.392C777.692 23.864 778.308 23.464 779.028 23.192C779.764 22.904 780.572 22.76 781.452 22.76C782.3 22.76 783.06 22.896 783.732 23.168C784.404 23.44 784.964 23.84 785.412 24.368C785.876 24.896 786.212 25.552 786.42 26.336C786.644 27.12 786.724 28.024 786.66 29.048H776.892L777.084 27.776H784.86C784.86 27.28 784.788 26.824 784.644 26.408C784.516 25.976 784.308 25.608 784.02 25.304C783.748 24.984 783.404 24.736 782.988 24.56C782.572 24.368 782.076 24.272 781.5 24.272C780.94 24.272 780.404 24.36 779.892 24.536C779.396 24.712 778.948 24.992 778.548 25.376C778.164 25.744 777.86 26.232 777.636 26.84C777.412 27.448 777.3 28.184 777.3 29.048C777.3 29.768 777.396 30.416 777.588 30.992C777.78 31.568 778.052 32.064 778.404 32.48C778.756 32.88 779.188 33.192 779.7 33.416C780.228 33.64 780.812 33.752 781.452 33.752C782.172 33.752 782.828 33.648 783.42 33.44C784.012 33.232 784.516 32.92 784.932 32.504L786.324 33.416C785.796 34.024 785.108 34.48 784.26 34.784C783.428 35.088 782.516 35.24 781.524 35.24ZM794.406 32.312L790.23 25.16L790.71 25.736L790.926 27.56V35H789.102V23H790.782L795.414 30.8L800.046 23H801.726V35H799.902V27.56L800.118 25.736L800.55 25.232L796.422 32.312H794.406ZM810.094 35.24C809.15 35.24 808.302 35.088 807.55 34.784C806.814 34.48 806.19 34.056 805.678 33.512C805.182 32.952 804.798 32.296 804.526 31.544C804.254 30.776 804.118 29.928 804.118 29C804.118 28.008 804.262 27.128 804.55 26.36C804.838 25.576 805.238 24.92 805.75 24.392C806.262 23.864 806.878 23.464 807.598 23.192C808.334 22.904 809.142 22.76 810.022 22.76C810.87 22.76 811.63 22.896 812.302 23.168C812.974 23.44 813.534 23.84 813.982 24.368C814.446 24.896 814.782 25.552 814.99 26.336C815.214 27.12 815.294 28.024 815.23 29.048H805.462L805.654 27.776H813.43C813.43 27.28 813.358 26.824 813.214 26.408C813.086 25.976 812.878 25.608 812.59 25.304C812.318 24.984 811.974 24.736 811.558 24.56C811.142 24.368 810.646 24.272 810.07 24.272C809.51 24.272 808.974 24.36 808.462 24.536C807.966 24.712 807.518 24.992 807.118 25.376C806.734 25.744 806.43 26.232 806.206 26.84C805.982 27.448 805.87 28.184 805.87 29.048C805.87 29.768 805.966 30.416 806.158 30.992C806.35 31.568 806.622 32.064 806.974 32.48C807.326 32.88 807.758 33.192 808.27 33.416C808.798 33.64 809.382 33.752 810.022 33.752C810.742 33.752 811.398 33.648 811.99 33.44C812.582 33.232 813.086 32.92 813.502 32.504L814.894 33.416C814.366 34.024 813.678 34.48 812.83 34.784C811.998 35.088 811.086 35.24 810.094 35.24ZM826.625 23H828.497V35H826.625V23ZM817.673 23H819.545V35H817.673V23ZM818.273 28.928V27.536H827.393V28.928H818.273ZM840.195 23H842.067V35H840.195V23ZM831.243 23H833.115V35H831.243V23ZM831.843 28.928V27.536H840.963V28.928H831.843ZM848.989 27.536C850.797 27.552 852.165 27.872 853.093 28.496C854.037 29.12 854.509 30.016 854.509 31.184C854.509 32.368 854.021 33.304 853.045 33.992C852.085 34.664 850.733 35 848.989 35H846.685L845.509 33.656H848.797C850.029 33.656 850.957 33.448 851.581 33.032C852.205 32.6 852.517 31.968 852.517 31.136C852.517 30.304 852.213 29.704 851.605 29.336C851.013 28.952 850.077 28.76 848.797 28.76H845.917V27.536H848.989ZM844.813 23H846.685V35H844.813V23ZM855.901 23H857.677V35H855.901V23ZM866.063 35.24C865.119 35.24 864.271 35.088 863.519 34.784C862.783 34.48 862.159 34.056 861.647 33.512C861.151 32.952 860.767 32.296 860.495 31.544C860.223 30.776 860.087 29.928 860.087 29C860.087 28.008 860.231 27.128 860.519 26.36C860.807 25.576 861.207 24.92 861.719 24.392C862.231 23.864 862.847 23.464 863.567 23.192C864.303 22.904 865.111 22.76 865.991 22.76C866.839 22.76 867.599 22.896 868.271 23.168C868.943 23.44 869.503 23.84 869.951 24.368C870.415 24.896 870.751 25.552 870.959 26.336C871.183 27.12 871.263 28.024 871.199 29.048H861.431L861.623 27.776H869.399C869.399 27.28 869.327 26.824 869.183 26.408C869.055 25.976 868.847 25.608 868.559 25.304C868.287 24.984 867.943 24.736 867.527 24.56C867.111 24.368 866.615 24.272 866.039 24.272C865.479 24.272 864.943 24.36 864.431 24.536C863.935 24.712 863.487 24.992 863.087 25.376C862.703 25.744 862.399 26.232 862.175 26.84C861.951 27.448 861.839 28.184 861.839 29.048C861.839 29.768 861.935 30.416 862.127 30.992C862.319 31.568 862.591 32.064 862.943 32.48C863.295 32.88 863.727 33.192 864.239 33.416C864.767 33.64 865.351 33.752 865.991 33.752C866.711 33.752 867.367 33.648 867.959 33.44C868.551 33.232 869.055 32.92 869.471 32.504L870.863 33.416C870.335 34.024 869.647 34.48 868.799 34.784C867.967 35.088 867.055 35.24 866.063 35.24ZM882.763 33.728C883.275 33.712 883.731 33.648 884.131 33.536C884.547 33.424 884.899 33.264 885.187 33.056C885.475 32.832 885.699 32.568 885.859 32.264C886.019 31.944 886.107 31.584 886.123 31.184C886.139 30.832 886.083 30.536 885.955 30.296C885.827 30.056 885.619 29.864 885.331 29.72C885.043 29.576 884.659 29.472 884.179 29.408C883.715 29.344 883.147 29.312 882.475 29.312H881.275L881.443 27.968H882.163C882.803 27.968 883.339 27.944 883.771 27.896C884.203 27.832 884.555 27.744 884.827 27.632C885.099 27.504 885.299 27.352 885.427 27.176C885.571 26.984 885.659 26.752 885.691 26.48C885.803 25.76 885.595 25.216 885.067 24.848C884.539 24.464 883.819 24.272 882.907 24.272C882.379 24.272 881.851 24.36 881.323 24.536C880.811 24.696 880.339 24.944 879.907 25.28L878.539 24.32C879.035 23.808 879.667 23.424 880.435 23.168C881.203 22.896 882.043 22.76 882.955 22.76C883.675 22.76 884.331 22.848 884.923 23.024C885.515 23.2 886.011 23.44 886.411 23.744C886.827 24.048 887.147 24.424 887.371 24.872C887.595 25.304 887.691 25.776 887.659 26.288C887.643 26.848 887.475 27.28 887.155 27.584C886.851 27.888 886.451 28.12 885.955 28.28C885.475 28.424 884.931 28.512 884.323 28.544C883.731 28.576 883.139 28.592 882.547 28.592C883.155 28.592 883.795 28.624 884.467 28.688C885.139 28.736 885.747 28.856 886.291 29.048C886.851 29.24 887.299 29.536 887.635 29.936C887.987 30.32 888.139 30.84 888.091 31.496C888.059 32.056 887.891 32.568 887.587 33.032C887.283 33.48 886.875 33.872 886.363 34.208C885.867 34.528 885.283 34.784 884.611 34.976C883.955 35.152 883.251 35.24 882.499 35.24C881.555 35.24 880.691 35.104 879.907 34.832C879.139 34.544 878.499 34.144 877.987 33.632L879.331 32.648C879.731 33 880.227 33.272 880.819 33.464C881.411 33.656 882.059 33.744 882.763 33.728ZM902.396 35H900.5V23H902.396V35ZM890.18 29C890.18 28.056 890.316 27.208 890.588 26.456C890.876 25.688 891.26 25.032 891.74 24.488C892.236 23.928 892.82 23.504 893.492 23.216C894.18 22.912 894.916 22.76 895.7 22.76C896.484 22.76 897.18 22.912 897.788 23.216C898.412 23.504 898.932 23.928 899.348 24.488C899.78 25.032 900.1 25.688 900.308 26.456C900.532 27.208 900.644 28.056 900.644 29C900.644 29.928 900.532 30.776 900.308 31.544C900.1 32.312 899.78 32.976 899.348 33.536C898.932 34.08 898.412 34.504 897.788 34.808C897.18 35.096 896.484 35.24 895.7 35.24C894.916 35.24 894.18 35.096 893.492 34.808C892.82 34.504 892.236 34.08 891.74 33.536C891.26 32.976 890.876 32.312 890.588 31.544C890.316 30.776 890.18 29.928 890.18 29ZM892.124 29C892.124 29.72 892.22 30.392 892.412 31.016C892.62 31.624 892.9 32.144 893.252 32.576C893.62 32.992 894.06 33.32 894.572 33.56C895.084 33.8 895.652 33.92 896.276 33.92C896.9 33.92 897.452 33.8 897.932 33.56C898.428 33.32 898.844 32.992 899.18 32.576C899.516 32.144 899.764 31.624 899.924 31.016C900.1 30.408 900.188 29.728 900.188 28.976C900.188 28.24 900.1 27.568 899.924 26.96C899.764 26.352 899.516 25.84 899.18 25.424C898.844 24.992 898.428 24.656 897.932 24.416C897.452 24.176 896.9 24.056 896.276 24.056C895.652 24.056 895.084 24.176 894.572 24.416C894.06 24.656 893.62 24.992 893.252 25.424C892.9 25.84 892.62 26.352 892.412 26.96C892.22 27.568 892.124 28.248 892.124 29ZM905.526 34.808L910.326 23H912.198L917.358 34.76H915.39L910.542 23.384H912.054L907.374 34.808H905.526ZM918.51 33.512V35H904.422V33.512H918.51ZM904.422 35L906.126 34.784V37.76H904.422V35ZM918.51 35V37.76H916.806V34.784L918.51 35ZM931.951 35H930.055V23H931.951V35ZM919.735 29C919.735 28.056 919.871 27.208 920.143 26.456C920.431 25.688 920.815 25.032 921.295 24.488C921.791 23.928 922.375 23.504 923.047 23.216C923.735 22.912 924.471 22.76 925.255 22.76C926.039 22.76 926.735 22.912 927.343 23.216C927.967 23.504 928.487 23.928 928.903 24.488C929.335 25.032 929.655 25.688 929.863 26.456C930.087 27.208 930.199 28.056 930.199 29C930.199 29.928 930.087 30.776 929.863 31.544C929.655 32.312 929.335 32.976 928.903 33.536C928.487 34.08 927.967 34.504 927.343 34.808C926.735 35.096 926.039 35.24 925.255 35.24C924.471 35.24 923.735 35.096 923.047 34.808C922.375 34.504 921.791 34.08 921.295 33.536C920.815 32.976 920.431 32.312 920.143 31.544C919.871 30.776 919.735 29.928 919.735 29ZM921.679 29C921.679 29.72 921.775 30.392 921.967 31.016C922.175 31.624 922.455 32.144 922.807 32.576C923.175 32.992 923.615 33.32 924.127 33.56C924.639 33.8 925.207 33.92 925.831 33.92C926.455 33.92 927.007 33.8 927.487 33.56C927.983 33.32 928.399 32.992 928.735 32.576C929.071 32.144 929.319 31.624 929.479 31.016C929.655 30.408 929.743 29.728 929.743 28.976C929.743 28.24 929.655 27.568 929.479 26.96C929.319 26.352 929.071 25.84 928.735 25.424C928.399 24.992 927.983 24.656 927.487 24.416C927.007 24.176 926.455 24.056 925.831 24.056C925.207 24.056 924.639 24.176 924.127 24.416C923.615 24.656 923.175 24.992 922.807 25.424C922.455 25.84 922.175 26.352 921.967 26.96C921.775 27.568 921.679 28.248 921.679 29ZM943.625 23H945.497V35H943.625V23ZM934.673 23H936.545V35H934.673V23ZM935.273 28.928V27.536H944.393V28.928H935.273ZM959.283 35H957.387V24.032L951.171 35H948.243V23H950.139V33.968L956.307 23H959.283V35ZM971.96 35H970.088V23H971.96V35ZM966.944 30.008C965.472 29.816 964.328 29.464 963.512 28.952C962.712 28.424 962.272 27.648 962.192 26.624C962.144 26.048 962.224 25.536 962.432 25.088C962.656 24.624 962.992 24.24 963.44 23.936C963.904 23.632 964.472 23.4 965.144 23.24C965.832 23.08 966.616 23 967.496 23H970.088L971.528 24.344H967.712C966.432 24.344 965.488 24.528 964.88 24.896C964.288 25.248 964.024 25.832 964.088 26.648C964.136 27.016 964.248 27.328 964.424 27.584C964.6 27.84 964.832 28.056 965.12 28.232C965.424 28.408 965.776 28.56 966.176 28.688C966.576 28.8 967.008 28.912 967.472 29.024L968.768 29.36L963.56 35H961.376L965.432 30.608L966.992 29.336L966.944 30.008ZM990.666 35H988.77V24.032L982.554 35H979.626V23H981.522V33.968L987.69 23H990.666V35ZM1008.07 33.632C1007.58 34.128 1006.98 34.52 1006.3 34.808C1005.61 35.096 1004.82 35.24 1003.92 35.24C1002.99 35.24 1002.16 35.096 1001.42 34.808C1000.69 34.504 1000.06 34.08 999.553 33.536C999.041 32.976 998.649 32.312 998.377 31.544C998.121 30.776 997.993 29.928 997.993 29C997.993 28.056 998.121 27.208 998.377 26.456C998.649 25.688 999.041 25.032 999.553 24.488C1000.06 23.928 1000.69 23.504 1001.42 23.216C1002.16 22.912 1002.99 22.76 1003.92 22.76C1004.82 22.76 1005.6 22.896 1006.27 23.168C1006.96 23.44 1007.55 23.824 1008.05 24.32L1006.68 25.28C1006.25 24.944 1005.83 24.696 1005.43 24.536C1005.05 24.36 1004.58 24.272 1004.02 24.272C1003.39 24.272 1002.82 24.384 1002.31 24.608C1001.8 24.816 1001.37 25.128 1001.02 25.544C1000.66 25.944 1000.38 26.44 1000.18 27.032C999.985 27.608 999.889 28.264 999.889 29C999.889 30.456 1000.23 31.624 1000.92 32.504C1001.61 33.368 1002.58 33.8 1003.82 33.8C1004.42 33.8 1004.94 33.696 1005.38 33.488C1005.85 33.28 1006.3 33 1006.73 32.648L1008.07 33.632ZM1009.9 29C1009.9 28.056 1010.04 27.208 1010.31 26.456C1010.58 25.688 1010.97 25.032 1011.48 24.488C1012 23.928 1012.62 23.504 1013.36 23.216C1014.11 22.912 1014.95 22.76 1015.88 22.76C1016.8 22.76 1017.64 22.912 1018.37 23.216C1019.11 23.504 1019.72 23.928 1020.22 24.488C1020.73 25.032 1021.12 25.688 1021.4 26.456C1021.67 27.208 1021.8 28.056 1021.8 29C1021.8 29.928 1021.67 30.776 1021.4 31.544C1021.12 32.312 1020.73 32.976 1020.22 33.536C1019.72 34.08 1019.11 34.504 1018.37 34.808C1017.64 35.096 1016.8 35.24 1015.88 35.24C1014.95 35.24 1014.11 35.096 1013.36 34.808C1012.62 34.504 1012 34.08 1011.48 33.536C1010.97 32.976 1010.58 32.312 1010.31 31.544C1010.04 30.776 1009.9 29.928 1009.9 29ZM1011.8 29C1011.8 29.736 1011.88 30.4 1012.06 30.992C1012.25 31.584 1012.52 32.088 1012.85 32.504C1013.2 32.92 1013.62 33.24 1014.1 33.464C1014.6 33.688 1015.16 33.8 1015.78 33.8C1016.4 33.8 1016.96 33.688 1017.46 33.464C1017.97 33.24 1018.4 32.92 1018.76 32.504C1019.12 32.088 1019.4 31.584 1019.6 30.992C1019.8 30.4 1019.91 29.736 1019.91 29C1019.91 27.544 1019.56 26.392 1018.85 25.544C1018.16 24.696 1017.2 24.272 1015.97 24.272C1015.35 24.272 1014.77 24.384 1014.24 24.608C1013.73 24.816 1013.29 25.128 1012.92 25.544C1012.57 25.944 1012.29 26.44 1012.08 27.032C1011.89 27.624 1011.8 28.28 1011.8 29ZM1023.87 29C1023.87 28.056 1024 27.208 1024.28 26.456C1024.55 25.688 1024.94 25.032 1025.45 24.488C1025.96 23.928 1026.59 23.504 1027.32 23.216C1028.08 22.912 1028.92 22.76 1029.84 22.76C1030.77 22.76 1031.6 22.912 1032.34 23.216C1033.08 23.504 1033.69 23.928 1034.19 24.488C1034.7 25.032 1035.09 25.688 1035.36 26.456C1035.64 27.208 1035.77 28.056 1035.77 29C1035.77 29.928 1035.64 30.776 1035.36 31.544C1035.09 32.312 1034.7 32.976 1034.19 33.536C1033.69 34.08 1033.08 34.504 1032.34 34.808C1031.6 35.096 1030.77 35.24 1029.84 35.24C1028.92 35.24 1028.08 35.096 1027.32 34.808C1026.59 34.504 1025.96 34.08 1025.45 33.536C1024.94 32.976 1024.55 32.312 1024.28 31.544C1024 30.776 1023.87 29.928 1023.87 29ZM1025.76 29C1025.76 29.736 1025.85 30.4 1026.03 30.992C1026.22 31.584 1026.48 32.088 1026.82 32.504C1027.17 32.92 1027.59 33.24 1028.07 33.464C1028.56 33.688 1029.12 33.8 1029.75 33.8C1030.37 33.8 1030.93 33.688 1031.43 33.464C1031.94 33.24 1032.37 32.92 1032.72 32.504C1033.09 32.088 1033.37 31.584 1033.56 30.992C1033.77 30.4 1033.88 29.736 1033.88 29C1033.88 27.544 1033.52 26.392 1032.82 25.544C1032.13 24.696 1031.17 24.272 1029.94 24.272C1029.32 24.272 1028.74 24.384 1028.21 24.608C1027.7 24.816 1027.26 25.128 1026.89 25.544C1026.54 25.944 1026.26 26.44 1026.05 27.032C1025.86 27.624 1025.76 28.28 1025.76 29ZM1038.17 38.672V23H1040.04V38.672H1038.17ZM1050.36 29C1050.36 29.928 1050.22 30.776 1049.93 31.544C1049.66 32.312 1049.28 32.976 1048.78 33.536C1048.3 34.08 1047.72 34.504 1047.05 34.808C1046.38 35.096 1045.64 35.24 1044.84 35.24C1044.06 35.24 1043.36 35.096 1042.73 34.808C1042.12 34.504 1041.61 34.08 1041.2 33.536C1040.78 32.976 1040.46 32.312 1040.24 31.544C1040.01 30.776 1039.9 29.928 1039.9 29C1039.9 28.056 1040.01 27.208 1040.24 26.456C1040.46 25.688 1040.78 25.032 1041.2 24.488C1041.61 23.928 1042.12 23.504 1042.73 23.216C1043.36 22.912 1044.06 22.76 1044.84 22.76C1045.64 22.76 1046.38 22.912 1047.05 23.216C1047.72 23.504 1048.3 23.928 1048.78 24.488C1049.28 25.032 1049.66 25.688 1049.93 26.456C1050.22 27.208 1050.36 28.056 1050.36 29ZM1048.44 28.976C1048.44 28.24 1048.34 27.568 1048.13 26.96C1047.94 26.352 1047.66 25.84 1047.29 25.424C1046.92 24.992 1046.48 24.656 1045.97 24.416C1045.46 24.176 1044.89 24.056 1044.27 24.056C1043.64 24.056 1043.09 24.176 1042.61 24.416C1042.13 24.656 1041.72 24.992 1041.39 25.424C1041.05 25.84 1040.8 26.352 1040.62 26.96C1040.44 27.568 1040.36 28.248 1040.36 29C1040.36 29.72 1040.44 30.392 1040.62 31.016C1040.8 31.624 1041.05 32.144 1041.39 32.576C1041.72 32.992 1042.13 33.32 1042.61 33.56C1043.09 33.8 1043.64 33.92 1044.27 33.92C1044.89 33.92 1045.46 33.8 1045.97 33.56C1046.48 33.32 1046.92 32.992 1047.29 32.576C1047.66 32.144 1047.94 31.624 1048.13 31.016C1048.34 30.408 1048.44 29.728 1048.44 28.976ZM1057.45 34.328L1056.59 35.048L1051.4 23H1053.47L1056.49 30.2L1057.45 34.328ZM1058.15 35C1057.6 36.168 1057.03 37.208 1056.44 38.12C1055.85 39.048 1055.25 39.792 1054.64 40.352L1053.03 39.8C1053.42 39.416 1053.78 39.008 1054.11 38.576C1054.47 38.16 1054.8 37.712 1055.12 37.232C1055.44 36.752 1055.75 36.216 1056.06 35.624C1056.38 35.048 1056.7 34.4 1057.02 33.68L1061.77 23H1063.71L1058.15 35ZM1072.02 23H1073.72V35H1072.02V23ZM1078.62 23H1080.71L1076.1 28.4L1081.26 35H1079.03L1074.23 28.52L1078.62 23ZM1067.15 23L1071.54 28.52L1066.71 35H1064.51L1069.67 28.4L1065.06 23H1067.15ZM1088.09 35.24C1087.14 35.24 1086.29 35.088 1085.54 34.784C1084.81 34.48 1084.18 34.056 1083.67 33.512C1083.17 32.952 1082.79 32.296 1082.52 31.544C1082.25 30.776 1082.11 29.928 1082.11 29C1082.11 28.008 1082.25 27.128 1082.54 26.36C1082.83 25.576 1083.23 24.92 1083.74 24.392C1084.25 23.864 1084.87 23.464 1085.59 23.192C1086.33 22.904 1087.13 22.76 1088.01 22.76C1088.86 22.76 1089.62 22.896 1090.29 23.168C1090.97 23.44 1091.53 23.84 1091.97 24.368C1092.44 24.896 1092.77 25.552 1092.98 26.336C1093.21 27.12 1093.29 28.024 1093.22 29.048H1083.45L1083.65 27.776H1091.42C1091.42 27.28 1091.35 26.824 1091.21 26.408C1091.08 25.976 1090.87 25.608 1090.58 25.304C1090.31 24.984 1089.97 24.736 1089.55 24.56C1089.13 24.368 1088.64 24.272 1088.06 24.272C1087.5 24.272 1086.97 24.36 1086.45 24.536C1085.96 24.712 1085.51 24.992 1085.11 25.376C1084.73 25.744 1084.42 26.232 1084.2 26.84C1083.97 27.448 1083.86 28.184 1083.86 29.048C1083.86 29.768 1083.96 30.416 1084.15 30.992C1084.34 31.568 1084.61 32.064 1084.97 32.48C1085.32 32.88 1085.75 33.192 1086.26 33.416C1086.79 33.64 1087.37 33.752 1088.01 33.752C1088.73 33.752 1089.39 33.648 1089.98 33.44C1090.57 33.232 1091.08 32.92 1091.49 32.504L1092.89 33.416C1092.36 34.024 1091.67 34.48 1090.82 34.784C1089.99 35.088 1089.08 35.24 1088.09 35.24ZM1104.62 23H1106.49V35H1104.62V23ZM1095.66 23H1097.54V35H1095.66V23ZM1096.26 28.928V27.536H1105.38V28.928H1096.26ZM1120.28 35H1118.38V24.032L1112.16 35H1109.24V23H1111.13V33.968L1117.3 23H1120.28V35ZM1132.95 35H1131.08V23H1132.95V35ZM1127.94 30.008C1126.46 29.816 1125.32 29.464 1124.5 28.952C1123.7 28.424 1123.26 27.648 1123.18 26.624C1123.14 26.048 1123.22 25.536 1123.42 25.088C1123.65 24.624 1123.98 24.24 1124.43 23.936C1124.9 23.632 1125.46 23.4 1126.14 23.24C1126.82 23.08 1127.61 23 1128.49 23H1131.08L1132.52 24.344H1128.7C1127.42 24.344 1126.48 24.528 1125.87 24.896C1125.28 25.248 1125.02 25.832 1125.08 26.648C1125.13 27.016 1125.24 27.328 1125.42 27.584C1125.59 27.84 1125.82 28.056 1126.11 28.232C1126.42 28.408 1126.77 28.56 1127.17 28.688C1127.57 28.8 1128 28.912 1128.46 29.024L1129.76 29.36L1124.55 35H1122.37L1126.42 30.608L1127.98 29.336L1127.94 30.008Z" fill="black"/>
<path d="M1196.06 26.6C1196.06 25.224 1196.24 24 1196.61 22.928C1196.99 21.856 1197.52 20.952 1198.19 20.216C1198.86 19.48 1199.68 18.92 1200.64 18.536C1201.6 18.152 1202.66 17.96 1203.81 17.96C1204.96 17.96 1206 18.152 1206.93 18.536C1207.87 18.92 1208.68 19.48 1209.35 20.216C1210.04 20.952 1210.57 21.856 1210.94 22.928C1211.32 24 1211.51 25.224 1211.51 26.6C1211.51 27.976 1211.32 29.2 1210.94 30.272C1210.57 31.344 1210.04 32.248 1209.35 32.984C1208.68 33.72 1207.87 34.28 1206.93 34.664C1206 35.048 1204.96 35.24 1203.81 35.24C1202.66 35.24 1201.6 35.048 1200.64 34.664C1199.68 34.28 1198.86 33.72 1198.19 32.984C1197.52 32.248 1196.99 31.344 1196.61 30.272C1196.24 29.2 1196.06 27.976 1196.06 26.6ZM1198 26.6C1198 27.688 1198.14 28.672 1198.41 29.552C1198.7 30.432 1199.1 31.176 1199.61 31.784C1200.12 32.392 1200.73 32.864 1201.43 33.2C1202.15 33.536 1202.94 33.704 1203.81 33.704C1204.67 33.704 1205.46 33.536 1206.16 33.2C1206.86 32.864 1207.46 32.392 1207.96 31.784C1208.47 31.176 1208.87 30.432 1209.16 29.552C1209.45 28.672 1209.59 27.688 1209.59 26.6C1209.59 25.496 1209.45 24.512 1209.16 23.648C1208.87 22.768 1208.47 22.024 1207.96 21.416C1207.46 20.792 1206.86 20.32 1206.16 20C1205.46 19.664 1204.67 19.496 1203.81 19.496C1202.94 19.496 1202.15 19.664 1201.43 20C1200.73 20.32 1200.12 20.792 1199.61 21.416C1199.1 22.024 1198.7 22.768 1198.41 23.648C1198.14 24.512 1198 25.496 1198 26.6ZM1213.92 35V23H1224.67L1224.27 24.68H1214.26L1215.79 23.264V35H1213.92ZM1222.78 23.24L1224.67 23V35H1222.78V23.24ZM1226.56 35L1231.5 23H1233.38L1238.68 35H1236.59L1231.6 23.384H1233.35L1228.55 35H1226.56ZM1252.03 35H1250.13V23H1252.03V35ZM1239.81 29C1239.81 28.056 1239.95 27.208 1240.22 26.456C1240.51 25.688 1240.89 25.032 1241.37 24.488C1241.87 23.928 1242.45 23.504 1243.13 23.216C1243.81 22.912 1244.55 22.76 1245.33 22.76C1246.12 22.76 1246.81 22.912 1247.42 23.216C1248.05 23.504 1248.57 23.928 1248.98 24.488C1249.41 25.032 1249.73 25.688 1249.94 26.456C1250.17 27.208 1250.28 28.056 1250.28 29C1250.28 29.928 1250.17 30.776 1249.94 31.544C1249.73 32.312 1249.41 32.976 1248.98 33.536C1248.57 34.08 1248.05 34.504 1247.42 34.808C1246.81 35.096 1246.12 35.24 1245.33 35.24C1244.55 35.24 1243.81 35.096 1243.13 34.808C1242.45 34.504 1241.87 34.08 1241.37 33.536C1240.89 32.976 1240.51 32.312 1240.22 31.544C1239.95 30.776 1239.81 29.928 1239.81 29ZM1241.76 29C1241.76 29.72 1241.85 30.392 1242.05 31.016C1242.25 31.624 1242.53 32.144 1242.89 32.576C1243.25 32.992 1243.69 33.32 1244.21 33.56C1244.72 33.8 1245.29 33.92 1245.91 33.92C1246.53 33.92 1247.09 33.8 1247.57 33.56C1248.06 33.32 1248.48 32.992 1248.81 32.576C1249.15 32.144 1249.4 31.624 1249.56 31.016C1249.73 30.408 1249.82 29.728 1249.82 28.976C1249.82 28.24 1249.73 27.568 1249.56 26.96C1249.4 26.352 1249.15 25.84 1248.81 25.424C1248.48 24.992 1248.06 24.656 1247.57 24.416C1247.09 24.176 1246.53 24.056 1245.91 24.056C1245.29 24.056 1244.72 24.176 1244.21 24.416C1243.69 24.656 1243.25 24.992 1242.89 25.424C1242.53 25.84 1242.25 26.352 1242.05 26.96C1241.85 27.568 1241.76 28.248 1241.76 29ZM1264.37 23V24.488H1258.92L1259.84 23.264V35H1258.01V23.312L1258.92 24.488H1253.45V23H1264.37ZM1278.07 35H1276.17V23H1278.07V35ZM1265.85 29C1265.85 28.056 1265.99 27.208 1266.26 26.456C1266.55 25.688 1266.93 25.032 1267.41 24.488C1267.91 23.928 1268.49 23.504 1269.16 23.216C1269.85 22.912 1270.59 22.76 1271.37 22.76C1272.16 22.76 1272.85 22.912 1273.46 23.216C1274.08 23.504 1274.6 23.928 1275.02 24.488C1275.45 25.032 1275.77 25.688 1275.98 26.456C1276.2 27.208 1276.32 28.056 1276.32 29C1276.32 29.928 1276.2 30.776 1275.98 31.544C1275.77 32.312 1275.45 32.976 1275.02 33.536C1274.6 34.08 1274.08 34.504 1273.46 34.808C1272.85 35.096 1272.16 35.24 1271.37 35.24C1270.59 35.24 1269.85 35.096 1269.16 34.808C1268.49 34.504 1267.91 34.08 1267.41 33.536C1266.93 32.976 1266.55 32.312 1266.26 31.544C1265.99 30.776 1265.85 29.928 1265.85 29ZM1267.8 29C1267.8 29.72 1267.89 30.392 1268.08 31.016C1268.29 31.624 1268.57 32.144 1268.92 32.576C1269.29 32.992 1269.73 33.32 1270.24 33.56C1270.76 33.8 1271.32 33.92 1271.95 33.92C1272.57 33.92 1273.12 33.8 1273.6 33.56C1274.1 33.32 1274.52 32.992 1274.85 32.576C1275.19 32.144 1275.44 31.624 1275.6 31.016C1275.77 30.408 1275.86 29.728 1275.86 28.976C1275.86 28.24 1275.77 27.568 1275.6 26.96C1275.44 26.352 1275.19 25.84 1274.85 25.424C1274.52 24.992 1274.1 24.656 1273.6 24.416C1273.12 24.176 1272.57 24.056 1271.95 24.056C1271.32 24.056 1270.76 24.176 1270.24 24.416C1269.73 24.656 1269.29 24.992 1268.92 25.424C1268.57 25.84 1268.29 26.352 1268.08 26.96C1267.89 27.568 1267.8 28.248 1267.8 29ZM1297.59 35H1295.7V23H1297.59V35ZM1285.38 29C1285.38 28.056 1285.51 27.208 1285.78 26.456C1286.07 25.688 1286.46 25.032 1286.94 24.488C1287.43 23.928 1288.02 23.504 1288.69 23.216C1289.38 22.912 1290.11 22.76 1290.9 22.76C1291.68 22.76 1292.38 22.912 1292.98 23.216C1293.61 23.504 1294.13 23.928 1294.54 24.488C1294.98 25.032 1295.3 25.688 1295.5 26.456C1295.73 27.208 1295.84 28.056 1295.84 29C1295.84 29.928 1295.73 30.776 1295.5 31.544C1295.3 32.312 1294.98 32.976 1294.54 33.536C1294.13 34.08 1293.61 34.504 1292.98 34.808C1292.38 35.096 1291.68 35.24 1290.9 35.24C1290.11 35.24 1289.38 35.096 1288.69 34.808C1288.02 34.504 1287.43 34.08 1286.94 33.536C1286.46 32.976 1286.07 32.312 1285.78 31.544C1285.51 30.776 1285.38 29.928 1285.38 29ZM1287.32 29C1287.32 29.72 1287.42 30.392 1287.61 31.016C1287.82 31.624 1288.1 32.144 1288.45 32.576C1288.82 32.992 1289.26 33.32 1289.77 33.56C1290.28 33.8 1290.85 33.92 1291.47 33.92C1292.1 33.92 1292.65 33.8 1293.13 33.56C1293.62 33.32 1294.04 32.992 1294.38 32.576C1294.71 32.144 1294.96 31.624 1295.12 31.016C1295.3 30.408 1295.38 29.728 1295.38 28.976C1295.38 28.24 1295.3 27.568 1295.12 26.96C1294.96 26.352 1294.71 25.84 1294.38 25.424C1294.04 24.992 1293.62 24.656 1293.13 24.416C1292.65 24.176 1292.1 24.056 1291.47 24.056C1290.85 24.056 1290.28 24.176 1289.77 24.416C1289.26 24.656 1288.82 24.992 1288.45 25.424C1288.1 25.84 1287.82 26.352 1287.61 26.96C1287.42 27.568 1287.32 28.248 1287.32 29ZM1300.31 23H1302.19V35H1300.31V23ZM1308.09 23H1310.23L1305.11 28.4L1310.78 35H1308.47L1303 28.52L1308.09 23ZM1322.59 23V24.488H1317.14L1318.05 23.264V35H1316.23V23.312L1317.14 24.488H1311.67V23H1322.59ZM1323.81 29C1323.81 28.056 1323.95 27.208 1324.22 26.456C1324.49 25.688 1324.89 25.032 1325.4 24.488C1325.91 23.928 1326.53 23.504 1327.27 23.216C1328.02 22.912 1328.86 22.76 1329.79 22.76C1330.72 22.76 1331.55 22.912 1332.29 23.216C1333.02 23.504 1333.64 23.928 1334.13 24.488C1334.65 25.032 1335.04 25.688 1335.31 26.456C1335.58 27.208 1335.72 28.056 1335.72 29C1335.72 29.928 1335.58 30.776 1335.31 31.544C1335.04 32.312 1334.65 32.976 1334.13 33.536C1333.64 34.08 1333.02 34.504 1332.29 34.808C1331.55 35.096 1330.72 35.24 1329.79 35.24C1328.86 35.24 1328.02 35.096 1327.27 34.808C1326.53 34.504 1325.91 34.08 1325.4 33.536C1324.89 32.976 1324.49 32.312 1324.22 31.544C1323.95 30.776 1323.81 29.928 1323.81 29ZM1325.71 29C1325.71 29.736 1325.8 30.4 1325.97 30.992C1326.17 31.584 1326.43 32.088 1326.77 32.504C1327.12 32.92 1327.53 33.24 1328.01 33.464C1328.51 33.688 1329.07 33.8 1329.69 33.8C1330.32 33.8 1330.88 33.688 1331.37 33.464C1331.89 33.24 1332.32 32.92 1332.67 32.504C1333.04 32.088 1333.32 31.584 1333.51 30.992C1333.72 30.4 1333.82 29.736 1333.82 29C1333.82 27.544 1333.47 26.392 1332.77 25.544C1332.08 24.696 1331.12 24.272 1329.89 24.272C1329.26 24.272 1328.69 24.384 1328.16 24.608C1327.65 24.816 1327.21 25.128 1326.84 25.544C1326.49 25.944 1326.21 26.44 1326 27.032C1325.81 27.624 1325.71 28.28 1325.71 29ZM1343.28 28.568C1343.79 28.568 1344.37 28.6 1345.01 28.664C1345.65 28.712 1346.25 28.84 1346.81 29.048C1347.37 29.256 1347.84 29.568 1348.22 29.984C1348.61 30.384 1348.8 30.944 1348.8 31.664C1348.8 32.384 1348.61 32.96 1348.22 33.392C1347.85 33.824 1347.37 34.16 1346.78 34.4C1346.21 34.64 1345.57 34.8 1344.86 34.88C1344.17 34.96 1343.5 35 1342.85 35H1339.99L1338.81 33.656H1342.63C1343.24 33.656 1343.8 33.632 1344.31 33.584C1344.84 33.536 1345.28 33.44 1345.63 33.296C1346 33.136 1346.29 32.912 1346.49 32.624C1346.7 32.336 1346.81 31.96 1346.81 31.496C1346.81 31.048 1346.73 30.688 1346.59 30.416C1346.45 30.128 1346.22 29.904 1345.92 29.744C1345.63 29.568 1345.25 29.456 1344.79 29.408C1344.34 29.344 1343.81 29.312 1343.21 29.312H1342.13V27.92H1342.87C1343.38 27.92 1343.84 27.912 1344.24 27.896C1344.64 27.864 1344.97 27.792 1345.25 27.68C1345.52 27.568 1345.73 27.392 1345.87 27.152C1346.03 26.912 1346.11 26.584 1346.11 26.168C1346.11 25.736 1346.01 25.4 1345.8 25.16C1345.59 24.92 1345.3 24.744 1344.93 24.632C1344.57 24.504 1344.13 24.424 1343.61 24.392C1343.1 24.36 1342.54 24.344 1341.93 24.344H1338.81L1339.99 23.192V35H1338.12V23H1342.15C1342.81 23 1343.48 23.032 1344.17 23.096C1344.87 23.144 1345.51 23.272 1346.09 23.48C1346.66 23.672 1347.13 23.968 1347.5 24.368C1347.89 24.768 1348.08 25.312 1348.08 26C1348.08 26.64 1347.93 27.136 1347.62 27.488C1347.32 27.84 1346.93 28.096 1346.45 28.256C1345.97 28.416 1345.45 28.512 1344.89 28.544C1344.33 28.56 1343.79 28.568 1343.28 28.568Z" fill="black"/>
<defs>
<filter id="filter0_bdii_2074_28098" x="-133" y="-151" width="1663" height="360" filterUnits="userSpaceOnUse" color-interpolation-filters="sRGB">
<feFlood flood-opacity="0" result="BackgroundImageFix"/>
<feGaussianBlur in="BackgroundImageFix" stdDeviation="77.5"/>
<feComposite in2="SourceAlpha" operator="in" result="effect1_backgroundBlur_2074_28098"/>
<feColorMatrix in="SourceAlpha" type="matrix" values="0 0 0 0 0 0 0 0 0 0 0 0 0 0 0 0 0 0 127 0" result="hardAlpha"/>
<feOffset dy="18"/>
<feGaussianBlur stdDeviation="11"/>
<feComposite in2="hardAlpha" operator="out"/>
<feColorMatrix type="matrix" values="0 0 0 0 0 0 0 0 0 0 0 0 0 0 0 0 0 0 0.05 0"/>
<feBlend mode="normal" in2="effect1_backgroundBlur_2074_28098" result="effect2_dropShadow_2074_28098"/>
<feBlend mode="normal" in="SourceGraphic" in2="effect2_dropShadow_2074_28098" result="shape"/>
<feColorMatrix in="SourceAlpha" type="matrix" values="0 0 0 0 0 0 0 0 0 0 0 0 0 0 0 0 0 0 127 0" result="hardAlpha"/>
<feOffset dy="0.76"/>
<feGaussianBlur stdDeviation="3"/>
<feComposite in2="hardAlpha" operator="arithmetic" k2="-1" k3="1"/>
<feColorMatrix type="matrix" values="0 0 0 0 1 0 0 0 0 1 0 0 0 0 1 0 0 0 0.35 0"/>
<feBlend mode="normal" in2="shape" result="effect3_innerShadow_2074_28098"/>
<feColorMatrix in="SourceAlpha" type="matrix" values="0 0 0 0 0 0 0 0 0 0 0 0 0 0 0 0 0 0 127 0" result="hardAlpha"/>
<feOffset dx="-0.76" dy="0.76"/>
<feGaussianBlur stdDeviation="0.38"/>
<feComposite in2="hardAlpha" operator="arithmetic" k2="-1" k3="1"/>
<feColorMatrix type="matrix" values="0 0 0 0 1 0 0 0 0 1 0 0 0 0 1 0 0 0 0.35 0"/>
<feBlend mode="normal" in2="effect3_innerShadow_2074_28098" result="effect4_innerShadow_2074_28098"/>
</filter>
</defs>
</svg>
