<svg width="195" height="88" viewBox="0 0 195 88" fill="none" xmlns="http://www.w3.org/2000/svg">
<g id="Union" filter="url(#filter0_bdii_2470_613)">
<path fill-rule="evenodd" clip-rule="evenodd" d="M22 26C22 13.8497 31.8497 4 44 4H79.3233C89.5384 4 98.1274 10.962 100.604 20.3999C100.99 21.8692 102.253 23 103.772 23C105.291 23 106.554 21.8692 106.94 20.3999C109.417 10.962 118.006 4 128.221 4H150.813C162.963 4 172.813 13.8497 172.813 26C172.813 38.1503 162.963 48 150.813 48H128.221C118.006 48 109.417 41.038 106.94 31.6001C106.554 30.1308 105.291 29 103.772 29C102.253 29 100.99 30.1308 100.604 31.6001C98.1274 41.038 89.5384 48 79.3233 48H44C31.8498 48 22 38.1503 22 26Z" fill="#F4F4F4" fill-opacity="0.34" shape-rendering="crispEdges"/>
</g>
<defs>
<filter id="filter0_bdii_2470_613" x="-133" y="-151" width="460.812" height="354" filterUnits="userSpaceOnUse" color-interpolation-filters="sRGB">
<feFlood flood-opacity="0" result="BackgroundImageFix"/>
<feGaussianBlur in="BackgroundImageFix" stdDeviation="77.5"/>
<feComposite in2="SourceAlpha" operator="in" result="effect1_backgroundBlur_2470_613"/>
<feColorMatrix in="SourceAlpha" type="matrix" values="0 0 0 0 0 0 0 0 0 0 0 0 0 0 0 0 0 0 127 0" result="hardAlpha"/>
<feOffset dy="18"/>
<feGaussianBlur stdDeviation="11"/>
<feComposite in2="hardAlpha" operator="out"/>
<feColorMatrix type="matrix" values="0 0 0 0 0 0 0 0 0 0 0 0 0 0 0 0 0 0 0.05 0"/>
<feBlend mode="normal" in2="effect1_backgroundBlur_2470_613" result="effect2_dropShadow_2470_613"/>
<feBlend mode="normal" in="SourceGraphic" in2="effect2_dropShadow_2470_613" result="shape"/>
<feColorMatrix in="SourceAlpha" type="matrix" values="0 0 0 0 0 0 0 0 0 0 0 0 0 0 0 0 0 0 127 0" result="hardAlpha"/>
<feOffset dy="0.76"/>
<feGaussianBlur stdDeviation="3"/>
<feComposite in2="hardAlpha" operator="arithmetic" k2="-1" k3="1"/>
<feColorMatrix type="matrix" values="0 0 0 0 1 0 0 0 0 1 0 0 0 0 1 0 0 0 0.35 0"/>
<feBlend mode="normal" in2="shape" result="effect3_innerShadow_2470_613"/>
<feColorMatrix in="SourceAlpha" type="matrix" values="0 0 0 0 0 0 0 0 0 0 0 0 0 0 0 0 0 0 127 0" result="hardAlpha"/>
<feOffset dx="-0.76" dy="0.76"/>
<feGaussianBlur stdDeviation="0.38"/>
<feComposite in2="hardAlpha" operator="arithmetic" k2="-1" k3="1"/>
<feColorMatrix type="matrix" values="0 0 0 0 1 0 0 0 0 1 0 0 0 0 1 0 0 0 0.35 0"/>
<feBlend mode="normal" in2="effect3_innerShadow_2470_613" result="effect4_innerShadow_2470_613"/>
</filter>
</defs>
</svg>
