<svg width="295" height="84" viewBox="0 0 295 84" fill="none" xmlns="http://www.w3.org/2000/svg">
<path fill-rule="evenodd" clip-rule="evenodd" d="M16 0C7.16344 0 0 7.16344 0 16V36C0 44.8366 7.16344 52 16 52H183C191.837 52 199 59.1634 199 68C199 76.8366 206.163 84 215 84H279C287.837 84 295 76.8366 295 68V16C295 7.16344 287.837 0 279 0H16Z" fill="black"/>
<path d="M23.272 23.952C23.752 23.952 24.272 23.968 24.832 24C25.408 24.032 25.976 24.104 26.536 24.216C27.112 24.312 27.664 24.464 28.192 24.672C28.72 24.88 29.184 25.152 29.584 25.488C30 25.808 30.328 26.208 30.568 26.688C30.824 27.168 30.952 27.736 30.952 28.392C30.952 29.416 30.704 30.232 30.208 30.84C29.728 31.432 29.104 31.896 28.336 32.232C27.568 32.552 26.712 32.76 25.768 32.856C24.824 32.952 23.896 33 22.984 33H19.24L18.352 31.608H22.696C23.56 31.608 24.368 31.584 25.12 31.536C25.872 31.488 26.528 31.36 27.088 31.152C27.664 30.928 28.112 30.608 28.432 30.192C28.752 29.76 28.912 29.168 28.912 28.416C28.912 27.68 28.752 27.08 28.432 26.616C28.112 26.152 27.664 25.792 27.088 25.536C26.528 25.264 25.872 25.08 25.12 24.984C24.368 24.872 23.56 24.816 22.696 24.816H22.072V23.328H22.312C23.032 23.328 23.728 23.304 24.4 23.256C25.072 23.192 25.664 23.064 26.176 22.872C26.704 22.664 27.128 22.368 27.448 21.984C27.768 21.6 27.928 21.08 27.928 20.424C27.928 19.736 27.768 19.208 27.448 18.84C27.128 18.456 26.68 18.168 26.104 17.976C25.544 17.784 24.888 17.672 24.136 17.64C23.384 17.608 22.576 17.592 21.712 17.592H18.352L19.24 16.464V33H17.368V16.2H22C22.912 16.2 23.84 16.24 24.784 16.32C25.728 16.4 26.584 16.592 27.352 16.896C28.12 17.184 28.744 17.608 29.224 18.168C29.72 18.728 29.968 19.488 29.968 20.448C29.968 21.36 29.752 22.056 29.32 22.536C28.888 23 28.344 23.336 27.688 23.544C27.032 23.752 26.312 23.872 25.528 23.904C24.744 23.936 23.992 23.952 23.272 23.952ZM39.7124 33.24C38.7684 33.24 37.9204 33.088 37.1684 32.784C36.4324 32.48 35.8084 32.056 35.2964 31.512C34.8004 30.952 34.4164 30.296 34.1444 29.544C33.8724 28.776 33.7364 27.928 33.7364 27C33.7364 26.008 33.8804 25.128 34.1684 24.36C34.4564 23.576 34.8564 22.92 35.3684 22.392C35.8804 21.864 36.4964 21.464 37.2164 21.192C37.9524 20.904 38.7604 20.76 39.6404 20.76C40.4884 20.76 41.2484 20.896 41.9204 21.168C42.5924 21.44 43.1524 21.84 43.6004 22.368C44.0644 22.896 44.4004 23.552 44.6084 24.336C44.8324 25.12 44.9124 26.024 44.8484 27.048H35.0804L35.2724 25.776H43.0484C43.0484 25.28 42.9764 24.824 42.8324 24.408C42.7044 23.976 42.4964 23.608 42.2084 23.304C41.9364 22.984 41.5924 22.736 41.1764 22.56C40.7604 22.368 40.2644 22.272 39.6884 22.272C39.1284 22.272 38.5924 22.36 38.0804 22.536C37.5844 22.712 37.1364 22.992 36.7364 23.376C36.3524 23.744 36.0484 24.232 35.8244 24.84C35.6004 25.448 35.4884 26.184 35.4884 27.048C35.4884 27.768 35.5844 28.416 35.7764 28.992C35.9684 29.568 36.2404 30.064 36.5924 30.48C36.9444 30.88 37.3764 31.192 37.8884 31.416C38.4164 31.64 39.0004 31.752 39.6404 31.752C40.3604 31.752 41.0164 31.648 41.6084 31.44C42.2004 31.232 42.7044 30.92 43.1204 30.504L44.5124 31.416C43.9844 32.024 43.2964 32.48 42.4484 32.784C41.6164 33.088 40.7044 33.24 39.7124 33.24ZM49.7151 26.28C49.6991 27.08 49.7791 27.816 49.9551 28.488C50.1471 29.16 50.4271 29.744 50.7951 30.24C51.1631 30.72 51.6191 31.104 52.1631 31.392C52.7071 31.664 53.3391 31.8 54.0591 31.8C54.7471 31.8 55.3551 31.68 55.8831 31.44C56.4271 31.184 56.8831 30.832 57.2511 30.384C57.6191 29.936 57.8991 29.4 58.0911 28.776C58.2831 28.136 58.3711 27.432 58.3551 26.664C58.3391 26.056 58.2271 25.472 58.0191 24.912C57.8111 24.352 57.5151 23.864 57.1311 23.448C56.7471 23.032 56.2831 22.712 55.7391 22.488C55.2111 22.264 54.6031 22.176 53.9151 22.224C53.2751 22.272 52.6991 22.4 52.1871 22.608C51.6751 22.8 51.2351 23.064 50.8671 23.4C50.5151 23.736 50.2351 24.152 50.0271 24.648C49.8351 25.128 49.7311 25.672 49.7151 26.28ZM47.8191 25.608C47.8191 24.44 47.8671 23.4 47.9631 22.488C48.0751 21.576 48.2591 20.752 48.5151 20.016C48.7871 19.28 49.1391 18.64 49.5711 18.096C50.0031 17.536 50.5391 17.048 51.1791 16.632C51.7391 16.264 52.2671 16.016 52.7631 15.888C53.2751 15.744 53.7951 15.64 54.3231 15.576C54.8671 15.512 55.4271 15.448 56.0031 15.384C56.5951 15.32 57.2511 15.192 57.9711 15L59.0271 16.296C58.2911 16.664 57.6351 16.888 57.0591 16.968C56.4991 17.048 55.9631 17.104 55.4511 17.136C54.9391 17.168 54.4351 17.224 53.9391 17.304C53.4431 17.368 52.8911 17.584 52.2831 17.952C51.6911 18.304 51.2191 18.744 50.8671 19.272C50.5151 19.784 50.2431 20.368 50.0511 21.024C49.8591 21.68 49.7231 22.4 49.6431 23.184C49.5791 23.968 49.5231 24.792 49.4751 25.656H49.3071C49.3711 25.064 49.5311 24.512 49.7871 24C50.0431 23.472 50.3711 23.008 50.7711 22.608C51.1871 22.192 51.6751 21.856 52.2351 21.6C52.7951 21.344 53.4111 21.184 54.0831 21.12C54.9951 21.04 55.8271 21.12 56.5791 21.36C57.3471 21.584 58.0031 21.952 58.5471 22.464C59.0911 22.976 59.5151 23.616 59.8191 24.384C60.1391 25.136 60.2831 26.008 60.2511 27C60.2351 28.024 60.0671 28.928 59.7471 29.712C59.4431 30.48 59.0111 31.128 58.4511 31.656C57.9071 32.184 57.2591 32.584 56.5071 32.856C55.7551 33.112 54.9391 33.24 54.0591 33.24C53.1951 33.24 52.3791 33.104 51.6111 32.832C50.8591 32.544 50.2031 32.088 49.6431 31.464C49.0831 30.84 48.6431 30.048 48.3231 29.088C48.0031 28.128 47.8351 26.968 47.8191 25.608ZM69.0449 33V21H79.7969L79.3889 22.68H69.3809L70.9169 21.264V33H69.0449ZM77.9009 21.24L79.7969 21V33H77.9009V21.24ZM83.218 36.672V21H85.09V36.672H83.218ZM95.41 27C95.41 27.928 95.266 28.776 94.978 29.544C94.706 30.312 94.322 30.976 93.826 31.536C93.346 32.08 92.77 32.504 92.098 32.808C91.426 33.096 90.69 33.24 89.89 33.24C89.106 33.24 88.402 33.096 87.778 32.808C87.17 32.504 86.658 32.08 86.242 31.536C85.826 30.976 85.506 30.312 85.282 29.544C85.058 28.776 84.946 27.928 84.946 27C84.946 26.056 85.058 25.208 85.282 24.456C85.506 23.688 85.826 23.032 86.242 22.488C86.658 21.928 87.17 21.504 87.778 21.216C88.402 20.912 89.106 20.76 89.89 20.76C90.69 20.76 91.426 20.912 92.098 21.216C92.77 21.504 93.346 21.928 93.826 22.488C94.322 23.032 94.706 23.688 94.978 24.456C95.266 25.208 95.41 26.056 95.41 27ZM93.49 26.976C93.49 26.24 93.386 25.568 93.178 24.96C92.986 24.352 92.706 23.84 92.338 23.424C91.97 22.992 91.53 22.656 91.018 22.416C90.506 22.176 89.938 22.056 89.314 22.056C88.69 22.056 88.138 22.176 87.658 22.416C87.178 22.656 86.77 22.992 86.434 23.424C86.098 23.84 85.842 24.352 85.666 24.96C85.49 25.568 85.402 26.248 85.402 27C85.402 27.72 85.49 28.392 85.666 29.016C85.842 29.624 86.098 30.144 86.434 30.576C86.77 30.992 87.178 31.32 87.658 31.56C88.138 31.8 88.69 31.92 89.314 31.92C89.938 31.92 90.506 31.8 91.018 31.56C91.53 31.32 91.97 30.992 92.338 30.576C92.706 30.144 92.986 29.624 93.178 29.016C93.386 28.408 93.49 27.728 93.49 26.976ZM109.509 33H107.613V22.032L101.397 33H98.4692V21H100.365V31.968L106.533 21H109.509V33ZM112.155 33L117.099 21H118.971L124.275 33H122.187L117.195 21.384H118.947L114.147 33H112.155ZM126.597 27C126.597 26.056 126.733 25.208 127.005 24.456C127.277 23.688 127.669 23.032 128.181 22.488C128.693 21.928 129.317 21.504 130.053 21.216C130.805 20.912 131.645 20.76 132.573 20.76C133.501 20.76 134.333 20.912 135.069 21.216C135.805 21.504 136.421 21.928 136.917 22.488C137.429 23.032 137.821 23.688 138.093 24.456C138.365 25.208 138.501 26.056 138.501 27C138.501 27.928 138.365 28.776 138.093 29.544C137.821 30.312 137.429 30.976 136.917 31.536C136.421 32.08 135.805 32.504 135.069 32.808C134.333 33.096 133.501 33.24 132.573 33.24C131.645 33.24 130.805 33.096 130.053 32.808C129.317 32.504 128.693 32.08 128.181 31.536C127.669 30.976 127.277 30.312 127.005 29.544C126.733 28.776 126.597 27.928 126.597 27ZM128.493 27C128.493 27.736 128.581 28.4 128.757 28.992C128.949 29.584 129.213 30.088 129.549 30.504C129.901 30.92 130.317 31.24 130.797 31.464C131.293 31.688 131.853 31.8 132.477 31.8C133.101 31.8 133.661 31.688 134.157 31.464C134.669 31.24 135.101 30.92 135.453 30.504C135.821 30.088 136.101 29.584 136.293 28.992C136.501 28.4 136.605 27.736 136.605 27C136.605 25.544 136.253 24.392 135.549 23.544C134.861 22.696 133.901 22.272 132.669 22.272C132.045 22.272 131.469 22.384 130.941 22.608C130.429 22.816 129.989 23.128 129.621 23.544C129.269 23.944 128.989 24.44 128.781 25.032C128.589 25.624 128.493 26.28 128.493 27ZM147.575 21H149.279V33H147.575V21ZM154.175 21H156.263L151.655 26.4L156.815 33H154.583L149.783 26.52L154.175 21ZM142.703 21L147.095 26.52L142.271 33H140.063L145.223 26.4L140.615 21H142.703ZM164.364 33.24C163.42 33.24 162.572 33.088 161.82 32.784C161.084 32.48 160.46 32.056 159.948 31.512C159.452 30.952 159.068 30.296 158.796 29.544C158.524 28.776 158.388 27.928 158.388 27C158.388 26.008 158.532 25.128 158.82 24.36C159.108 23.576 159.508 22.92 160.02 22.392C160.532 21.864 161.148 21.464 161.868 21.192C162.604 20.904 163.412 20.76 164.292 20.76C165.14 20.76 165.9 20.896 166.572 21.168C167.244 21.44 167.804 21.84 168.252 22.368C168.716 22.896 169.052 23.552 169.26 24.336C169.484 25.12 169.564 26.024 169.5 27.048H159.732L159.924 25.776H167.7C167.7 25.28 167.628 24.824 167.484 24.408C167.356 23.976 167.148 23.608 166.86 23.304C166.588 22.984 166.244 22.736 165.828 22.56C165.412 22.368 164.916 22.272 164.34 22.272C163.78 22.272 163.244 22.36 162.732 22.536C162.236 22.712 161.788 22.992 161.388 23.376C161.004 23.744 160.7 24.232 160.476 24.84C160.252 25.448 160.14 26.184 160.14 27.048C160.14 27.768 160.236 28.416 160.428 28.992C160.62 29.568 160.892 30.064 161.244 30.48C161.596 30.88 162.028 31.192 162.54 31.416C163.068 31.64 163.652 31.752 164.292 31.752C165.012 31.752 165.668 31.648 166.26 31.44C166.852 31.232 167.356 30.92 167.772 30.504L169.164 31.416C168.636 32.024 167.948 32.48 167.1 32.784C166.268 33.088 165.356 33.24 164.364 33.24ZM181.615 21H183.487V33H181.615V21ZM172.663 21H174.535V33H172.663V21ZM173.263 26.928V25.536H182.383V26.928H173.263ZM197.993 33H196.097V22.032L189.881 33H186.953V21H188.849V31.968L195.017 21H197.993V33ZM207.095 33.24C206.151 33.24 205.303 33.088 204.551 32.784C203.815 32.48 203.191 32.056 202.679 31.512C202.183 30.952 201.799 30.296 201.527 29.544C201.255 28.776 201.119 27.928 201.119 27C201.119 26.008 201.263 25.128 201.551 24.36C201.839 23.576 202.239 22.92 202.751 22.392C203.263 21.864 203.879 21.464 204.599 21.192C205.335 20.904 206.143 20.76 207.023 20.76C207.871 20.76 208.631 20.896 209.303 21.168C209.975 21.44 210.535 21.84 210.983 22.368C211.447 22.896 211.783 23.552 211.991 24.336C212.215 25.12 212.295 26.024 212.231 27.048H202.463L202.655 25.776H210.431C210.431 25.28 210.359 24.824 210.215 24.408C210.087 23.976 209.879 23.608 209.591 23.304C209.319 22.984 208.975 22.736 208.559 22.56C208.143 22.368 207.647 22.272 207.071 22.272C206.511 22.272 205.975 22.36 205.463 22.536C204.967 22.712 204.519 22.992 204.119 23.376C203.735 23.744 203.431 24.232 203.207 24.84C202.983 25.448 202.871 26.184 202.871 27.048C202.871 27.768 202.967 28.416 203.159 28.992C203.351 29.568 203.623 30.064 203.975 30.48C204.327 30.88 204.759 31.192 205.271 31.416C205.799 31.64 206.383 31.752 207.023 31.752C207.743 31.752 208.399 31.648 208.991 31.44C209.583 31.232 210.087 30.92 210.503 30.504L211.895 31.416C211.367 32.024 210.679 32.48 209.831 32.784C208.999 33.088 208.087 33.24 207.095 33.24Z" fill="white"/>
<path fill-rule="evenodd" clip-rule="evenodd" d="M270.354 26L257.354 13L256.646 13.7071L268.793 25.8536H242.5C237.806 25.8536 234 29.6591 234 34.3536V64.8536H235V34.3536C235 30.2114 238.358 26.8536 242.5 26.8536H269.367L257.664 37.4834L258.336 38.2236L270.836 26.8701L270.821 26.8536H271.207L270.354 26Z" fill="white"/>
</svg>
